<svg width="20" height="20" viewBox="0 0 20 20" fill="none" xmlns="http://www.w3.org/2000/svg">
<g id="check_circle">
<circle id="Ellipse 15" cx="9.99935" cy="10.0003" r="8.33333" fill="white"/>
<path id="Vector" d="M9.99935 1.66699C5.39935 1.66699 1.66602 5.40033 1.66602 10.0003C1.66602 14.6003 5.39935 18.3337 9.99935 18.3337C14.5993 18.3337 18.3327 14.6003 18.3327 10.0003C18.3327 5.40033 14.5993 1.66699 9.99935 1.66699ZM7.74102 13.5753L4.74935 10.5837C4.42435 10.2587 4.42435 9.73366 4.74935 9.40866C5.07435 9.08366 5.59935 9.08366 5.92435 9.40866L8.33268 11.8087L14.066 6.07533C14.391 5.75033 14.916 5.75033 15.241 6.07533C15.566 6.40033 15.566 6.92533 15.241 7.25033L8.91602 13.5753C8.59935 13.9003 8.06602 13.9003 7.74102 13.5753Z" fill="#1DA4B1"/>
</g>
</svg>
