<svg width="18" height="18" viewBox="0 0 18 18" fill="none" xmlns="http://www.w3.org/2000/svg">
<path d="M1.71429 11.8212C1.25714 11.8212 0.857143 11.6498 0.514286 11.3069C0.171429 10.9641 0 10.5641 0 10.1069V8.39263C0 8.29263 0.0107143 8.18549 0.0321429 8.0712C0.0535714 7.95692 0.0857143 7.84977 0.128571 7.74977L2.7 1.70692C2.82857 1.4212 3.04286 1.17834 3.34286 0.978345C3.64286 0.778345 3.95714 0.678345 4.28571 0.678345H11.1429C11.6143 0.678345 12.0179 0.846202 12.3536 1.18192C12.6893 1.51763 12.8571 1.9212 12.8571 2.39263V11.1141C12.8571 11.3426 12.8107 11.5605 12.7179 11.7676C12.625 11.9748 12.5 12.1569 12.3429 12.3141L7.69286 16.9426C7.47857 17.1426 7.225 17.2641 6.93214 17.3069C6.63929 17.3498 6.35714 17.2998 6.08571 17.1569C5.81429 17.0141 5.61786 16.8141 5.49643 16.5569C5.375 16.2998 5.35 16.0355 5.42143 15.7641L6.38571 11.8212H1.71429ZM16.2857 0.678345C16.7571 0.678345 17.1607 0.846202 17.4964 1.18192C17.8321 1.51763 18 1.9212 18 2.39263V10.1069C18 10.5783 17.8321 10.9819 17.4964 11.3176C17.1607 11.6533 16.7571 11.8212 16.2857 11.8212C15.8143 11.8212 15.4107 11.6533 15.075 11.3176C14.7393 10.9819 14.5714 10.5783 14.5714 10.1069V2.39263C14.5714 1.9212 14.7393 1.51763 15.075 1.18192C15.4107 0.846202 15.8143 0.678345 16.2857 0.678345Z" fill="#ECA666"/>
</svg>
