<svg width="18" height="18" viewBox="0 0 18 18" fill="none" xmlns="http://www.w3.org/2000/svg">
<path d="M16.2857 6.17892C16.7429 6.17892 17.1429 6.35035 17.4857 6.69321C17.8286 7.03606 18 7.43606 18 7.89321L18 9.60749C18 9.70749 17.9893 9.81463 17.9679 9.92892C17.9464 10.0432 17.9143 10.1503 17.8714 10.2503L15.3 16.2932C15.1714 16.5789 14.9571 16.8218 14.6571 17.0218C14.3571 17.2218 14.0429 17.3218 13.7143 17.3218L6.85714 17.3218C6.38572 17.3218 5.98214 17.1539 5.64643 16.8182C5.31072 16.4825 5.14286 16.0789 5.14286 15.6075L5.14286 6.88606C5.14286 6.65749 5.18929 6.43963 5.28215 6.23249C5.375 6.02535 5.5 5.84321 5.65715 5.68606L10.3071 1.05749C10.5214 0.857492 10.775 0.736063 11.0679 0.693206C11.3607 0.650349 11.6429 0.700349 11.9143 0.843206C12.1857 0.986064 12.3821 1.18606 12.5036 1.44321C12.625 1.70035 12.65 1.96463 12.5786 2.23606L11.6143 6.17892L16.2857 6.17892ZM1.71429 17.3218C1.24286 17.3218 0.839288 17.1539 0.503574 16.8182C0.16786 16.4825 2.74616e-06 16.0789 2.78737e-06 15.6075L3.46178e-06 7.8932C3.50299e-06 7.42178 0.167861 7.0182 0.503575 6.68249C0.839289 6.34678 1.24286 6.17892 1.71429 6.17892C2.18572 6.17892 2.58929 6.34678 2.925 6.68249C3.26072 7.01821 3.42857 7.42178 3.42857 7.89321L3.42857 15.6075C3.42857 16.0789 3.26072 16.4825 2.925 16.8182C2.58929 17.1539 2.18572 17.3218 1.71429 17.3218Z" fill="#8ADCB5"/>
</svg>
