<?xml version="1.0" encoding="UTF-8"?>
<svg width="24px" height="24px" viewBox="0 0 24 24" version="1.1" xmlns="http://www.w3.org/2000/svg" xmlns:xlink="http://www.w3.org/1999/xlink">
    <title>Foto de perfil</title>
    <g id="Iconografía" stroke="none" stroke-width="1" fill="#DADFE9" fill-rule="evenodd">
        <g transform="translate(-635.000000, -743.000000)" fill-rule="nonzero" id="Shape-Copy">
            <path d="M647,743 C640.376,743 635,748.376 635,755 C635,761.624 640.376,767 647,767 C653.624,767 659,761.624 659,755 C659,748.376 653.624,743 647,743 Z M647,746.6 C648.992,746.6 650.6,748.208 650.6,750.2 C650.6,752.192 648.992,753.8 647,753.8 C645.008,753.8 643.4,752.192 643.4,750.2 C643.4,748.208 645.008,746.6 647,746.6 Z M647,763.64 C644,763.64 641.348,762.104 639.8,759.776 C639.836,757.388 644.6,756.08 647,756.08 C649.388,756.08 654.164,757.388 654.2,759.776 C652.652,762.104 650,763.64 647,763.64 Z"></path>
        </g>
    </g>
</svg>