<svg width="16" height="16" viewBox="0 0 16 16" fill="none" xmlns="http://www.w3.org/2000/svg">
<path d="M1 11C1.54927 11 1.9988 11.4488 2 11.9978V14H13.9972L14 14.01V12C14 11.45 14.45 11 15 11C15.5491 11 15.9985 11.4485 16 11.9972V14C16 15.1 15.1 16 14 16H2C0.9008 16 0.00131083 15.1013 0 14.0024L9.53674e-07 12C9.53674e-07 11.45 0.450001 11 1 11Z" fill="#505A78"/>
<path d="M12.5 6.09C12.11 5.7 11.48 5.7 11.09 6.09L8.99876 8.17V1C8.99876 0.45 8.54876 0 7.99876 0C7.44876 0 6.99876 0.45 6.99876 1V8.18L4.91 6.09C4.52 5.7 3.89 5.7 3.5 6.09C3.11 6.48 3.11 7.11 3.5 7.5L7.29876 11.3C7.68876 11.69 8.31876 11.69 8.70876 11.3L12.5 7.51C12.88 7.12 12.88 6.48 12.5 6.09Z" fill="#505A78"/>
</svg>
