<svg width="24" height="24" viewBox="0 0 24 24" fill="none" xmlns="http://www.w3.org/2000/svg">
<g id="star">
<path id="Vector" d="M8.85099 17.8247L12.001 15.9247L15.151 17.8497L14.326 14.2497L17.101 11.8497L13.451 11.5247L12.001 8.12471L10.551 11.4997L6.90099 11.8247L9.67599 14.2497L8.85099 17.8247ZM12.001 18.2747L7.85099 20.7747C7.66766 20.8914 7.47599 20.9414 7.27599 20.9247C7.07599 20.908 6.90099 20.8414 6.75099 20.7247C6.60099 20.608 6.48432 20.4622 6.40099 20.2872C6.31766 20.1122 6.30099 19.9164 6.35099 19.6997L7.45099 14.9747L3.77599 11.7997C3.60932 11.6497 3.50516 11.4789 3.46349 11.2872C3.42182 11.0955 3.43432 10.908 3.50099 10.7247C3.56766 10.5414 3.66766 10.3914 3.80099 10.2747C3.93432 10.158 4.11766 10.083 4.35099 10.0497L9.20099 9.62471L11.076 5.17471C11.1593 4.97471 11.2885 4.82471 11.4635 4.72471C11.6385 4.62471 11.8177 4.57471 12.001 4.57471C12.1843 4.57471 12.3635 4.62471 12.5385 4.72471C12.7135 4.82471 12.8427 4.97471 12.926 5.17471L14.801 9.62471L19.651 10.0497C19.8843 10.083 20.0677 10.158 20.201 10.2747C20.3343 10.3914 20.4343 10.5414 20.501 10.7247C20.5677 10.908 20.5802 11.0955 20.5385 11.2872C20.4968 11.4789 20.3927 11.6497 20.226 11.7997L16.551 14.9747L17.651 19.6997C17.701 19.9164 17.6843 20.1122 17.601 20.2872C17.5177 20.4622 17.401 20.608 17.251 20.7247C17.101 20.8414 16.926 20.908 16.726 20.9247C16.526 20.9414 16.3343 20.8914 16.151 20.7747L12.001 18.2747Z" fill="#505A78"/>
</g>
</svg>
