<?xml version="1.0" encoding="UTF-8"?>
<svg width="22px" height="15px" viewBox="0 0 22 15" version="1.1" xmlns="http://www.w3.org/2000/svg" xmlns:xlink="http://www.w3.org/1999/xlink">
    <title>Shape</title>
    <g id="Bienestar-2022-Mobile" stroke="none" stroke-width="1" fill="none" fill-rule="evenodd">
        <g id="Información-saludable-Artículo" transform="translate(-200.000000, -793.000000)" fill="#505A78" fill-rule="nonzero">
            <path d="M211,795 C214.79,795 218.17,797.13 219.82,800.5 C218.17,803.87 214.79,806 211,806 C207.21,806 203.83,803.87 202.18,800.5 C203.83,797.13 207.21,795 211,795 M211,793 C206,793 201.73,796.11 200,800.5 C201.73,804.89 206,808 211,808 C216,808 220.27,804.89 222,800.5 C220.27,796.11 216,793 211,793 Z M211,798 C212.38,798 213.5,799.12 213.5,800.5 C213.5,801.88 212.38,803 211,803 C209.62,803 208.5,801.88 208.5,800.5 C208.5,799.12 209.62,798 211,798 M211,796 C208.52,796 206.5,798.02 206.5,800.5 C206.5,802.98 208.52,805 211,805 C213.48,805 215.5,802.98 215.5,800.5 C215.5,798.02 213.48,796 211,796 Z" id="Shape"></path>
        </g>
    </g>
</svg>