<!-- Guarda esto como: check-circle.svg -->
<svg xmlns="http://www.w3.org/2000/svg" viewBox="0 0 512 512" fill="#4C97E5" width="12" height="12">
  <path d="M504 256c0 136.967-111.033 248-248 248S8 392.967 8 256 119.033 8 256 8s248 111.033 248 248zM227.314 387.314l184-184c6.248-6.248 6.248-16.379 0-22.627l-22.627-22.627c-6.248-6.248-16.379-6.248-22.627 0L216 308.118l-70.059-70.059c-6.248-6.248-16.379-6.248-22.627 0L101.686 260.686c-6.248 6.248-6.248 16.379 0 22.627l112 112c6.248 6.248 16.379 6.248 22.627 0z"/>
</svg>
