<svg width="22" height="20" viewBox="0 0 22 20" fill="none" xmlns="http://www.w3.org/2000/svg">
<path fill-rule="evenodd" clip-rule="evenodd" d="M1.70998 1.1299C1.31998 1.5199 1.31998 2.1499 1.70998 2.5399L3.67998 4.5099L3.69322 4.52315L3.69 4.52497C2.06 5.80497 0.77 7.5051 0 9.4751C1.73 13.8651 6 16.9751 11 16.9751C12.5192 16.9751 13.9785 16.6854 15.3179 16.1559L18.03 18.8699C18.42 19.2599 19.05 19.2599 19.44 18.8699C19.83 18.4799 19.83 17.8499 19.44 17.4599L16.959 14.9758L16.96 14.9751L12.0136 10.0245L3.12998 1.1299C2.73998 0.739902 2.09998 0.739902 1.70998 1.1299ZM11.12 11.9551L11.108 11.9431L8.51 9.3451C8.51 9.3701 8.5075 9.3901 8.505 9.4101C8.5025 9.4301 8.5 9.4501 8.5 9.4751C8.5 10.8551 9.62 11.9751 11 11.9751C11.04 11.9751 11.08 11.9651 11.12 11.9551ZM19.82 9.4751C18.17 6.1051 14.79 3.9751 11 3.9751C10.32 3.9751 9.66 4.0651 9.01 4.1951L7.36 2.5451C8.51 2.1751 9.73 1.9751 11 1.9751C16 1.9751 20.27 5.0851 22 9.4751C21.31 11.2351 20.21 12.7751 18.82 14.0051L17.41 12.5951C18.4 11.7451 19.23 10.6951 19.82 9.4751ZM12 7.1851L9.93 5.1151C10.28 5.0251 10.63 4.9751 11 4.9751C13.48 4.9751 15.5 6.9851 15.49 9.4651C15.49 9.8351 15.43 10.1951 15.35 10.5351L13.28 8.4651C13.03 7.8951 12.57 7.4351 12 7.1851ZM6.86 7.6951L5.11 5.9451C3.9 6.8651 2.88 8.0451 2.18 9.4751C3.83 12.8451 7.21 14.9751 11 14.9751C11.95 14.9751 12.87 14.8351 13.75 14.5951L12.77 13.6151C12.23 13.8451 11.63 13.9751 11 13.9751C8.52 13.9751 6.5 11.9551 6.5 9.4751C6.5 8.8451 6.63 8.2451 6.86 7.6951Z" fill="#505A78"/>
</svg>
