<svg width="20" height="20" viewBox="0 0 20 20" fill="none" xmlns="http://www.w3.org/2000/svg">
<circle cx="9.99996" cy="9.99999" r="8.33333" fill="white"/>
<path d="M9.99996 1.66666C5.39996 1.66666 1.66663 5.39999 1.66663 9.99999C1.66663 14.6 5.39996 18.3333 9.99996 18.3333C14.6 18.3333 18.3333 14.6 18.3333 9.99999C18.3333 5.39999 14.6 1.66666 9.99996 1.66666ZM7.74163 13.575L4.74996 10.5833C4.42496 10.2583 4.42496 9.73332 4.74996 9.40832C5.07496 9.08332 5.59996 9.08332 5.92496 9.40832L8.33329 11.8083L14.0666 6.07499C14.3916 5.74999 14.9166 5.74999 15.2416 6.07499C15.5666 6.39999 15.5666 6.92499 15.2416 7.24999L8.91663 13.575C8.59996 13.9 8.06663 13.9 7.74163 13.575Z" fill="#1DA4B1"/>
</svg>
