<svg width="25" height="24" viewBox="0 0 25 24" fill="none" xmlns="http://www.w3.org/2000/svg">
<g id="edit">
<path id="Exclude" fill-rule="evenodd" clip-rule="evenodd" d="M3.49878 20.5015V17.4615C3.49878 17.3215 3.54878 17.2015 3.64878 17.1015L14.5588 6.19152L18.3088 9.94152L7.38878 20.8515C7.29878 20.9515 7.16878 21.0015 7.03878 21.0015H3.99878C3.71878 21.0015 3.49878 20.7815 3.49878 20.5015ZM21.2088 5.63152C21.5988 6.02152 21.5988 6.65152 21.2088 7.04152L19.3788 8.87152L15.6288 5.12152L17.4588 3.29152C17.8488 2.90152 18.4788 2.90152 18.8688 3.29152L21.2088 5.63152ZM5.49875 19H6.41875L15.4787 9.94002L14.5587 9.02002L5.49875 18.08V19Z" fill="#1DA4B1"/>
</g>
</svg>
