<svg width="96" height="80" viewBox="0 0 96 80" fill="none" xmlns="http://www.w3.org/2000/svg">
<path d="M88 4L85.26 2.74L84 0L82.74 2.74L80 4L82.74 5.26L84 8L85.26 5.26L88 4Z" fill="#1DA4B1"/>
<path d="M8 40.8L5.26 39.54L4 36.8L2.74 39.54L0 40.8L2.74 42.06L4 44.8L5.26 42.06L8 40.8Z" fill="#1DA4B1"/>
<path d="M76 34.8L74.63 34.17L74 32.8L73.37 34.17L72 34.8L73.37 35.43L74 36.8L74.63 35.43L76 34.8Z" fill="#1DA4B1"/>
<path d="M33.6 3.60001L32.23 2.97001L31.6 1.60001L30.97 2.97001L29.6 3.60001L30.97 4.23001L31.6 5.60001L32.23 4.23001L33.6 3.60001Z" fill="#1DA4B1"/>
<path d="M70.4 66.8L69.03 66.17L68.4 64.8L67.77 66.17L66.4 66.8L67.77 67.43L68.4 68.8L69.03 67.43L70.4 66.8Z" fill="#1DA4B1"/>
<path d="M96 78L94.63 77.37L94 76L93.37 77.37L92 78L93.37 78.63L94 80L94.63 78.63L96 78Z" fill="#1DA4B1"/>
</svg>
