<svg width="33" height="33" viewBox="0 0 33 33" fill="none" xmlns="http://www.w3.org/2000/svg">
<path d="M25.8854 28.5522C25.0187 28.5522 24.241 28.3022 23.5521 27.8022C22.8632 27.3022 22.3854 26.6633 22.1187 25.8855H15.2187C13.7521 25.8855 12.4965 25.3633 11.4521 24.3189C10.4076 23.2744 9.88542 22.0189 9.88542 20.5522C9.88542 19.0855 10.4076 17.83 11.4521 16.7855C12.4965 15.7411 13.7521 15.2189 15.2187 15.2189H17.8854C18.6187 15.2189 19.2465 14.9578 19.7687 14.4355C20.291 13.9133 20.5521 13.2855 20.5521 12.5522C20.5521 11.8189 20.291 11.1911 19.7687 10.6689C19.2465 10.1467 18.6187 9.88555 17.8854 9.88555H10.9854C10.6965 10.6633 10.2132 11.3022 9.53542 11.8022C8.85764 12.3022 8.08542 12.5522 7.21875 12.5522C6.10764 12.5522 5.16319 12.1633 4.38542 11.3855C3.60764 10.6078 3.21875 9.66333 3.21875 8.55222C3.21875 7.4411 3.60764 6.49666 4.38542 5.71888C5.16319 4.9411 6.10764 4.55222 7.21875 4.55222C8.08542 4.55222 8.85764 4.80222 9.53542 5.30222C10.2132 5.80222 10.6965 6.4411 10.9854 7.21888H17.8854C19.3521 7.21888 20.6076 7.7411 21.6521 8.78555C22.6965 9.82999 23.2187 11.0855 23.2187 12.5522C23.2187 14.0189 22.6965 15.2744 21.6521 16.3189C20.6076 17.3633 19.3521 17.8855 17.8854 17.8855H15.2187C14.4854 17.8855 13.8576 18.1467 13.3354 18.6689C12.8132 19.1911 12.5521 19.8189 12.5521 20.5522C12.5521 21.2855 12.8132 21.9133 13.3354 22.4356C13.8576 22.9578 14.4854 23.2189 15.2187 23.2189H22.1187C22.4076 22.4411 22.891 21.8022 23.5687 21.3022C24.2465 20.8022 25.0187 20.5522 25.8854 20.5522C26.9965 20.5522 27.941 20.9411 28.7187 21.7189C29.4965 22.4967 29.8854 23.4411 29.8854 24.5522C29.8854 25.6633 29.4965 26.6078 28.7187 27.3855C27.941 28.1633 26.9965 28.5522 25.8854 28.5522ZM7.21875 9.88555C7.59653 9.88555 7.91319 9.75777 8.16875 9.50222C8.42431 9.24666 8.55208 8.92999 8.55208 8.55222C8.55208 8.17444 8.42431 7.85777 8.16875 7.60222C7.91319 7.34666 7.59653 7.21888 7.21875 7.21888C6.84097 7.21888 6.52431 7.34666 6.26875 7.60222C6.01319 7.85777 5.88542 8.17444 5.88542 8.55222C5.88542 8.92999 6.01319 9.24666 6.26875 9.50222C6.52431 9.75777 6.84097 9.88555 7.21875 9.88555Z" fill="#1DA4B1"/>
</svg>
