<svg width="32" height="32" viewBox="0 0 32 32" fill="none" xmlns="http://www.w3.org/2000/svg">
<path d="M20.6665 14.666C21.7711 14.666 22.6665 13.7706 22.6665 12.666C22.6665 11.5614 21.7711 10.666 20.6665 10.666C19.5619 10.666 18.6665 11.5614 18.6665 12.666C18.6665 13.7706 19.5619 14.666 20.6665 14.666Z" fill="#1DA4B1"/>
<path d="M11.3332 14.666C12.4377 14.666 13.3332 13.7706 13.3332 12.666C13.3332 11.5614 12.4377 10.666 11.3332 10.666C10.2286 10.666 9.33317 11.5614 9.33317 12.666C9.33317 13.7706 10.2286 14.666 11.3332 14.666Z" fill="#1DA4B1"/>
<path d="M15.9865 2.66602C8.6265 2.66602 2.6665 8.63935 2.6665 15.9993C2.6665 23.3593 8.6265 29.3327 15.9865 29.3327C23.3598 29.3327 29.3332 23.3593 29.3332 15.9993C29.3332 8.63935 23.3598 2.66602 15.9865 2.66602ZM15.9998 26.666C10.1065 26.666 5.33317 21.8927 5.33317 15.9993C5.33317 10.106 10.1065 5.33268 15.9998 5.33268C21.8932 5.33268 26.6665 10.106 26.6665 15.9993C26.6665 21.8927 21.8932 26.666 15.9998 26.666ZM21.8798 18.5193C21.4132 18.226 20.7865 18.3727 20.5065 18.8393C19.5198 20.3993 17.8398 21.3327 15.9998 21.3327C14.1598 21.3327 12.4798 20.3993 11.4932 18.826C11.1998 18.3593 10.5865 18.2127 10.1198 18.506C9.65317 18.7993 9.5065 19.4127 9.79984 19.8793C11.1598 22.0527 13.4665 23.3327 15.9998 23.3327C18.5332 23.3327 20.8398 22.0393 22.1998 19.8927C22.4932 19.426 22.3465 18.8127 21.8798 18.5193Z" fill="#1DA4B1"/>
</svg>
