<svg width="80" height="80" viewBox="0 0 80 80" fill="none" xmlns="http://www.w3.org/2000/svg">
<rect width="80" height="80" rx="40" fill="#E8F6F7"/>
<path d="M40 60C37.2333 60 34.6333 59.475 32.2 58.425C29.7667 57.375 27.65 55.95 25.85 54.15C24.05 52.35 22.625 50.2333 21.575 47.8C20.525 45.3667 20 42.7667 20 40C20 37.2333 20.525 34.6333 21.575 32.2C22.625 29.7667 24.05 27.65 25.85 25.85C27.65 24.05 29.7667 22.625 32.2 21.575C34.6333 20.525 37.2333 20 40 20C41.1 20 42.1833 20.0833 43.25 20.25C44.3167 20.4167 45.35 20.6667 46.35 21C47.1167 21.2667 47.6 21.6583 47.8 22.175C48 22.6917 48.0167 23.2 47.85 23.7C47.6833 24.2 47.375 24.5917 46.925 24.875C46.475 25.1583 45.9667 25.1833 45.4 24.95C44.5333 24.65 43.6583 24.4167 42.775 24.25C41.8917 24.0833 40.9667 24 40 24C35.5667 24 31.7917 25.5583 28.675 28.675C25.5583 31.7917 24 35.5667 24 40C24 44.4333 25.5583 48.2083 28.675 51.325C31.7917 54.4417 35.5667 56 40 56C44.4333 56 48.2083 54.4417 51.325 51.325C54.4417 48.2083 56 44.4333 56 40C56 39.4 55.9667 38.8 55.9 38.2C55.8333 37.6 55.7333 37.0167 55.6 36.45C55.4333 35.8167 55.5167 35.3 55.85 34.9C56.1833 34.5 56.6 34.25 57.1 34.15C57.6 34.05 58.0917 34.125 58.575 34.375C59.0583 34.625 59.3833 35.1 59.55 35.8C59.7167 36.4667 59.8333 37.15 59.9 37.85C59.9667 38.55 60 39.2667 60 40C60 42.7667 59.475 45.3667 58.425 47.8C57.375 50.2333 55.95 52.35 54.15 54.15C52.35 55.95 50.2333 57.375 47.8 58.425C45.3667 59.475 42.7667 60 40 60ZM56 26H54C53.4333 26 52.9583 25.8083 52.575 25.425C52.1917 25.0417 52 24.5667 52 24C52 23.4333 52.1917 22.9583 52.575 22.575C52.9583 22.1917 53.4333 22 54 22H56V20C56 19.4333 56.1917 18.9583 56.575 18.575C56.9583 18.1917 57.4333 18 58 18C58.5667 18 59.0417 18.1917 59.425 18.575C59.8083 18.9583 60 19.4333 60 20V22H62C62.5667 22 63.0417 22.1917 63.425 22.575C63.8083 22.9583 64 23.4333 64 24C64 24.5667 63.8083 25.0417 63.425 25.425C63.0417 25.8083 62.5667 26 62 26H60V28C60 28.5667 59.8083 29.0417 59.425 29.425C59.0417 29.8083 58.5667 30 58 30C57.4333 30 56.9583 29.8083 56.575 29.425C56.1917 29.0417 56 28.5667 56 28V26ZM47 38C47.8333 38 48.5417 37.7083 49.125 37.125C49.7083 36.5417 50 35.8333 50 35C50 34.1667 49.7083 33.4583 49.125 32.875C48.5417 32.2917 47.8333 32 47 32C46.1667 32 45.4583 32.2917 44.875 32.875C44.2917 33.4583 44 34.1667 44 35C44 35.8333 44.2917 36.5417 44.875 37.125C45.4583 37.7083 46.1667 38 47 38ZM33 38C33.8333 38 34.5417 37.7083 35.125 37.125C35.7083 36.5417 36 35.8333 36 35C36 34.1667 35.7083 33.4583 35.125 32.875C34.5417 32.2917 33.8333 32 33 32C32.1667 32 31.4583 32.2917 30.875 32.875C30.2917 33.4583 30 34.1667 30 35C30 35.8333 30.2917 36.5417 30.875 37.125C31.4583 37.7083 32.1667 38 33 38ZM40 51C41.9333 51 43.7167 50.5333 45.35 49.6C46.9833 48.6667 48.3 47.4 49.3 45.8C49.5 45.4 49.4833 45 49.25 44.6C49.0167 44.2 48.6667 44 48.2 44H31.8C31.3333 44 30.9833 44.2 30.75 44.6C30.5167 45 30.5 45.4 30.7 45.8C31.7 47.4 33.025 48.6667 34.675 49.6C36.325 50.5333 38.1 51 40 51Z" fill="url(#paint0_linear_1_1024)"/>
<defs>
<linearGradient id="paint0_linear_1_1024" x1="20" y1="18" x2="61.9546" y2="61.9524" gradientUnits="userSpaceOnUse">
<stop stop-color="#1DA4B1"/>
<stop offset="0.500092" stop-color="#3AA6CC"/>
<stop offset="1" stop-color="#44D8E8"/>
</linearGradient>
</defs>
</svg>
