<svg width="48" height="48" viewBox="0 0 48 48" fill="none" xmlns="http://www.w3.org/2000/svg">
<rect width="48" height="48" rx="24" fill="#383E52"/>
<path d="M23.9987 14.6667C25.4654 14.6667 26.6654 15.8667 26.6654 17.3333C26.6654 18.8 25.4654 20 23.9987 20C22.532 20 21.332 18.8 21.332 17.3333C21.332 15.8667 22.532 14.6667 23.9987 14.6667ZM23.9987 12C21.052 12 18.6654 14.3867 18.6654 17.3333C18.6654 20.28 21.052 22.6667 23.9987 22.6667C26.9454 22.6667 29.332 20.28 29.332 17.3333C29.332 14.3867 26.9454 12 23.9987 12Z" fill="white"/>
<path fill-rule="evenodd" clip-rule="evenodd" d="M13.332 30.6667C13.332 27.7211 15.7198 25.3333 18.6654 25.3333H29.332C32.2775 25.3333 34.6654 27.7211 34.6654 30.6667V34.6667C34.6654 35.403 34.0684 36 33.332 36C32.5957 36 31.9987 35.403 31.9987 34.6667V30.6667C31.9987 29.1939 30.8048 28 29.332 28H18.6654C17.1926 28 15.9987 29.1939 15.9987 30.6667V34.6667C15.9987 35.403 15.4017 36 14.6654 36C13.929 36 13.332 35.403 13.332 34.6667V30.6667Z" fill="white"/>
</svg>
