<svg width="61" height="24" viewBox="0 0 61 24" fill="none" xmlns="http://www.w3.org/2000/svg">
<rect x="0.669922" width="60" height="24" rx="4" fill="#4AB6C1"/>
<path d="M10.9199 18.2159H9.76083L9.84606 11.9432H10.8347L10.9199 18.2159ZM10.3404 9.42045C10.5506 9.42045 10.731 9.49574 10.8816 9.64631C11.0321 9.79687 11.1074 9.97727 11.1074 10.1875C11.1074 10.3977 11.0321 10.5781 10.8816 10.7287C10.731 10.8793 10.5506 10.9545 10.3404 10.9545C10.1301 10.9545 9.94975 10.8793 9.79918 10.7287C9.64862 10.5781 9.57333 10.3977 9.57333 10.1875C9.57333 10.0455 9.60742 9.91761 9.6756 9.80398C9.74663 9.6875 9.84038 9.59517 9.95685 9.52699C10.0733 9.45597 10.2012 9.42045 10.3404 9.42045ZM20.035 7.27273V16H19.0123L14.2566 9.14773H14.1714V16H13.1146V7.27273H14.1373L18.91 14.142H18.9953V7.27273H20.035ZM26.1864 13.3239V9.45455H27.1921V16H26.1864V14.892H26.1182C25.9648 15.2244 25.7261 15.5071 25.4023 15.7401C25.0784 15.9702 24.6693 16.0852 24.175 16.0852C23.7659 16.0852 23.4023 15.9957 23.0841 15.8168C22.7659 15.6349 22.5159 15.3622 22.3341 14.9986C22.1523 14.6321 22.0614 14.1705 22.0614 13.6136V9.45455H23.0671V13.5455C23.0671 14.0227 23.2006 14.4034 23.4676 14.6875C23.7375 14.9716 24.0813 15.1136 24.4989 15.1136C24.7489 15.1136 25.0031 15.0497 25.2617 14.9219C25.523 14.794 25.7418 14.598 25.9179 14.3338C26.0969 14.0696 26.1864 13.733 26.1864 13.3239ZM31.8264 16.1364C31.1957 16.1364 30.6516 15.9972 30.1942 15.7188C29.7397 15.4375 29.3888 15.0455 29.1417 14.5426C28.8974 14.0369 28.7752 13.4489 28.7752 12.7784C28.7752 12.108 28.8974 11.517 29.1417 11.0057C29.3888 10.4915 29.7326 10.0909 30.1729 9.80398C30.6161 9.5142 31.1332 9.36932 31.7241 9.36932C32.065 9.36932 32.4016 9.42614 32.734 9.53977C33.0664 9.65341 33.369 9.83807 33.6417 10.0938C33.9144 10.3466 34.1317 10.6818 34.2937 11.0994C34.4556 11.517 34.5366 12.0312 34.5366 12.642V13.0682H29.4911V12.1989H33.5139C33.5139 11.8295 33.44 11.5 33.2923 11.2102C33.1474 10.9205 32.94 10.6918 32.6701 10.5241C32.4031 10.3565 32.0877 10.2727 31.7241 10.2727C31.3235 10.2727 30.9769 10.3722 30.6843 10.571C30.3945 10.767 30.1715 11.0227 30.0153 11.3381C29.859 11.6534 29.7809 11.9915 29.7809 12.3523V12.9318C29.7809 13.4261 29.8661 13.8452 30.0366 14.1889C30.2099 14.5298 30.4499 14.7898 30.7567 14.9688C31.0636 15.1449 31.4201 15.233 31.8264 15.233C32.0906 15.233 32.3292 15.196 32.5423 15.1222C32.7582 15.0455 32.9442 14.9318 33.1005 14.7812C33.2567 14.6278 33.3775 14.4375 33.4627 14.2102L34.4343 14.483C34.332 14.8125 34.1602 15.1023 33.9187 15.3523C33.6772 15.5994 33.3789 15.7926 33.0238 15.9318C32.6687 16.0682 32.2695 16.1364 31.8264 16.1364ZM41.2675 9.45455L38.847 16H37.8243L35.4038 9.45455H36.4947L38.3016 14.6705H38.3697L40.1766 9.45455H41.2675ZM45.0676 16.1364C44.4767 16.1364 43.9582 15.9957 43.5122 15.7145C43.069 15.4332 42.7224 15.0398 42.4724 14.5341C42.2253 14.0284 42.1017 13.4375 42.1017 12.7614C42.1017 12.0795 42.2253 11.4844 42.4724 10.9759C42.7224 10.4673 43.069 10.0724 43.5122 9.79119C43.9582 9.50994 44.4767 9.36932 45.0676 9.36932C45.6585 9.36932 46.1755 9.50994 46.6187 9.79119C47.0648 10.0724 47.4113 10.4673 47.6585 10.9759C47.9085 11.4844 48.0335 12.0795 48.0335 12.7614C48.0335 13.4375 47.9085 14.0284 47.6585 14.5341C47.4113 15.0398 47.0648 15.4332 46.6187 15.7145C46.1755 15.9957 45.6585 16.1364 45.0676 16.1364ZM45.0676 15.233C45.5165 15.233 45.8858 15.1179 46.1755 14.8878C46.4653 14.6577 46.6798 14.3551 46.819 13.9801C46.9582 13.6051 47.0278 13.1989 47.0278 12.7614C47.0278 12.3239 46.9582 11.9162 46.819 11.5384C46.6798 11.1605 46.4653 10.8551 46.1755 10.6222C45.8858 10.3892 45.5165 10.2727 45.0676 10.2727C44.6187 10.2727 44.2494 10.3892 43.9596 10.6222C43.6699 10.8551 43.4554 11.1605 43.3162 11.5384C43.177 11.9162 43.1074 12.3239 43.1074 12.7614C43.1074 13.1989 43.177 13.6051 43.3162 13.9801C43.4554 14.3551 43.6699 14.6577 43.9596 14.8878C44.2494 15.1179 44.6187 15.233 45.0676 15.233ZM50.9462 7.27273L50.861 13.5455H49.8723L49.7871 7.27273H50.9462ZM50.3667 16.0682C50.1564 16.0682 49.976 15.9929 49.8255 15.8423C49.6749 15.6918 49.5996 15.5114 49.5996 15.3011C49.5996 15.0909 49.6749 14.9105 49.8255 14.7599C49.976 14.6094 50.1564 14.5341 50.3667 14.5341C50.5769 14.5341 50.7573 14.6094 50.9078 14.7599C51.0584 14.9105 51.1337 15.0909 51.1337 15.3011C51.1337 15.4403 51.0982 15.5682 51.0272 15.6847C50.959 15.8011 50.8667 15.8949 50.7502 15.9659C50.6365 16.0341 50.5087 16.0682 50.3667 16.0682Z" fill="white"/>
</svg>
