<svg width="32" height="32" viewBox="0 0 32 32" fill="none" xmlns="http://www.w3.org/2000/svg">
<path d="M15.9979 29.9978C25.3324 29.9978 29.9968 23.7303 29.9968 15.9989C29.9968 8.26751 25.3324 2 15.9979 2C6.66346 2 1.99902 8.26751 1.99902 15.9989C1.99902 23.7303 6.66346 29.9978 15.9979 29.9978Z" fill="url(#paint0_radial_715_2577)"/>
<path d="M15.9979 29.9978C25.3324 29.9978 29.9968 23.7303 29.9968 15.9989C29.9968 8.26751 25.3324 2 15.9979 2C6.66346 2 1.99902 8.26751 1.99902 15.9989C1.99902 23.7303 6.66346 29.9978 15.9979 29.9978Z" fill="url(#paint1_radial_715_2577)"/>
<path d="M15.9979 29.9978C25.3324 29.9978 29.9968 23.7303 29.9968 15.9989C29.9968 8.26751 25.3324 2 15.9979 2C6.66346 2 1.99902 8.26751 1.99902 15.9989C1.99902 23.7303 6.66346 29.9978 15.9979 29.9978Z" fill="url(#paint2_radial_715_2577)"/>
<path d="M15.9979 29.9978C25.3324 29.9978 29.9968 23.7303 29.9968 15.9989C29.9968 8.26751 25.3324 2 15.9979 2C6.66346 2 1.99902 8.26751 1.99902 15.9989C1.99902 23.7303 6.66346 29.9978 15.9979 29.9978Z" fill="url(#paint3_radial_715_2577)" fill-opacity="0.6"/>
<path d="M15.9979 29.9978C25.3324 29.9978 29.9968 23.7303 29.9968 15.9989C29.9968 8.26751 25.3324 2 15.9979 2C6.66346 2 1.99902 8.26751 1.99902 15.9989C1.99902 23.7303 6.66346 29.9978 15.9979 29.9978Z" fill="url(#paint4_radial_715_2577)"/>
<path d="M15.9979 29.9978C25.3324 29.9978 29.9968 23.7303 29.9968 15.9989C29.9968 8.26751 25.3324 2 15.9979 2C6.66346 2 1.99902 8.26751 1.99902 15.9989C1.99902 23.7303 6.66346 29.9978 15.9979 29.9978Z" fill="url(#paint5_radial_715_2577)"/>
<path d="M15.9979 29.9978C25.3324 29.9978 29.9968 23.7303 29.9968 15.9989C29.9968 8.26751 25.3324 2 15.9979 2C6.66346 2 1.99902 8.26751 1.99902 15.9989C1.99902 23.7303 6.66346 29.9978 15.9979 29.9978Z" fill="url(#paint6_radial_715_2577)"/>
<path d="M15.9979 29.9978C25.3324 29.9978 29.9968 23.7303 29.9968 15.9989C29.9968 8.26751 25.3324 2 15.9979 2C6.66346 2 1.99902 8.26751 1.99902 15.9989C1.99902 23.7303 6.66346 29.9978 15.9979 29.9978Z" fill="url(#paint7_radial_715_2577)"/>
<path d="M11.3271 19C11.3271 19 12.7287 21 15.999 21C19.2693 21 20.6709 19 20.6709 19" stroke="url(#paint8_radial_715_2577)" stroke-width="2" stroke-linecap="round" stroke-linejoin="round"/>
<g filter="url(#filter0_f_715_2577)">
<path d="M3.54834 14.5961C3.76709 15.5023 4.39559 17.2239 6.4024 17.7208C6.70155 17.7948 6.99559 17.8487 7.29049 17.8893C7.30483 17.8913 7.31921 17.8929 7.33362 17.8943C11.6386 18.2977 14.4846 14.6586 14.6236 10.6996C14.6351 10.3714 14.8878 10.0939 15.2161 10.0897C15.3909 10.0874 15.5722 10.0877 15.7588 10.0909C16.0858 10.0966 16.3367 10.3733 16.3483 10.7001C16.4888 14.659 19.3321 18.2978 23.6381 17.8943C23.6525 17.8929 23.6669 17.8913 23.6812 17.8893C23.9761 17.8487 24.2701 17.7948 24.5693 17.7208C27.2279 17.0626 28.8772 15.3152 29.7206 13.4409C29.5898 12.648 29.4035 11.8799 29.1618 11.1426C28.9094 13.3461 27.7296 13.6243 24.5693 14.4067C24.3092 14.4711 23.4203 15.0908 23.1551 15.1273C20.1551 15.4086 19.3114 13.4409 17.6109 10.2992L17.6107 10.2679C17.6107 10.2535 17.6108 10.2391 17.611 10.2247C17.7212 10.2391 17.8319 10.2548 17.9429 10.2719L18.2165 8.49642C18.5326 8.08898 18.9553 7.76839 19.4428 7.57654C19.5573 7.52706 19.8252 7.4146 20.6537 7.26014C21.5084 7.10078 23.7901 7.10261 25.1828 7.10372L25.4935 7.10389C26.2289 7.10389 26.8967 7.31739 27.328 7.51262C26.9756 7.0275 26.5878 6.56932 26.1644 6.14129C25.9445 6.11743 25.7193 6.10389 25.4935 6.10389L25.179 6.10371C24.485 6.10316 23.5569 6.10242 22.6938 6.12201C21.8576 6.14099 20.6187 6.1943 20.098 6.29138C19.2372 6.45188 18.8899 6.58047 18.6888 6.66639C18.136 6.88671 17.6612 7.22634 17.2864 7.65451C17.04 7.93601 16.6908 8.12396 16.3171 8.1074C15.717 8.08081 15.1527 8.08385 14.6475 8.10432C14.2756 8.11938 13.9287 7.93216 13.6834 7.6523C13.3089 7.22517 12.8348 6.88633 12.2828 6.66639C12.0818 6.58047 11.7345 6.45188 10.8736 6.29138C10.3529 6.1943 9.11412 6.14099 8.27787 6.12201C7.41475 6.10242 6.48666 6.10316 5.79272 6.10371L5.77986 6.10372C5.4484 6.43582 5.13849 6.78627 4.85011 7.15356C5.05072 7.12242 5.2615 7.10389 5.47815 7.10389L5.78889 7.10372C7.18154 7.10261 9.46329 7.10078 10.318 7.26014C11.1464 7.4146 11.4143 7.52706 11.5289 7.57654C11.9984 7.76132 12.4078 8.06554 12.7198 8.45175L13.0615 10.2663C13.1431 10.2509 13.2434 10.2346 13.3605 10.2183C13.3608 10.2348 13.361 10.2514 13.361 10.2679L13.3608 10.2992C13.5405 14.5101 10.3336 17.0481 7.33362 16.7668C7.06841 16.7303 6.8095 16.6826 6.54938 16.6182C4.25084 16.0492 4.41788 14.3607 3.76709 12.7523C3.65163 13.343 3.60068 13.9785 3.54834 14.5961Z" fill="url(#paint9_linear_715_2577)"/>
</g>
<path fill-rule="evenodd" clip-rule="evenodd" d="M12.7959 5.66639C13.3479 5.88633 13.822 6.22517 14.1965 6.6523C14.4419 6.93216 14.7887 7.11938 15.1606 7.10432C15.6658 7.08386 16.2301 7.08081 16.8302 7.1074C17.204 7.12396 17.5531 6.93601 17.7995 6.65451C18.1743 6.22634 18.6491 5.88671 19.2019 5.66639C19.403 5.58047 19.7503 5.45188 20.6111 5.29138C21.1318 5.1943 22.3707 5.14099 23.2069 5.12201C24.07 5.10242 24.9981 5.10316 25.6921 5.10371L26.0066 5.10389C27.196 5.10389 28.3694 5.47968 28.8348 5.76014C29.8816 6.29139 30.8504 7.30701 30.9199 9.05473C30.9227 9.08087 30.9246 9.10722 30.9254 9.13372C31.0079 11.8221 29.3385 15.6671 25.0824 16.7208C24.7832 16.7948 24.4892 16.8487 24.1943 16.8893C24.18 16.8913 24.1656 16.8929 24.1512 16.8943C19.8453 17.2978 17.002 13.659 16.8614 9.70014C16.8498 9.37332 16.5989 9.09664 16.2719 9.09093C16.0853 9.08767 15.904 9.08744 15.7292 9.0897C15.4009 9.09393 15.1483 9.37144 15.1367 9.69957C14.9978 13.6586 12.1517 17.2977 7.84672 16.8943C7.83231 16.8929 7.81794 16.8913 7.8036 16.8893C7.5087 16.8487 7.21466 16.7948 6.91551 16.7208C2.65942 15.6671 0.990014 11.8221 1.07248 9.13372C1.07329 9.10722 1.07515 9.08087 1.07804 9.05473C1.14751 7.30701 2.11626 6.29139 3.16314 5.76014C3.62846 5.47968 4.80188 5.10389 5.99126 5.10389L6.30582 5.10371C6.99977 5.10316 7.92786 5.10242 8.79097 5.12201C9.62723 5.14099 10.866 5.1943 11.3867 5.29138C12.2476 5.45188 12.5949 5.58047 12.7959 5.66639ZM2.48946 8.16506C2.73935 7.55643 3.20319 7.05906 3.82764 6.6827C4.17876 6.47107 5.02691 6.10389 5.99126 6.10389L6.302 6.10372C7.69465 6.10261 9.97639 6.10078 10.8311 6.26014C11.6596 6.4146 11.9275 6.52706 12.042 6.57654C12.5115 6.76132 12.9209 7.06554 13.2329 7.45175L13.5746 9.2663C13.6562 9.25095 13.7565 9.23462 13.8736 9.21831C13.8739 9.23482 13.8741 9.25137 13.8741 9.26795L13.8739 9.29915C14.0536 13.5101 10.8467 16.0481 7.84673 15.7668C7.58152 15.7303 7.32261 15.6826 7.06248 15.6182C3.9022 14.8358 2.57541 12.3461 2.32299 10.1426C2.28412 9.80332 2.27072 9.47079 2.28004 9.15233L2.28031 9.14339L2.28232 9.14346L2.28269 9.13372C2.29661 8.78513 2.36759 8.46187 2.48946 8.16506ZM18.1241 9.22468C18.1239 9.23908 18.1238 9.2535 18.1238 9.26795L18.124 9.29915C17.9443 13.5101 21.1512 16.0481 24.1512 15.7668C24.4164 15.7303 24.6753 15.6826 24.9354 15.6182C28.0957 14.8358 29.4225 12.3461 29.6749 10.1426C29.7138 9.80332 29.7272 9.47079 29.7179 9.15233L29.7176 9.14339L29.7156 9.14346L29.7152 9.13372C29.7013 8.78513 29.6303 8.46187 29.5084 8.16506C29.2585 7.55643 28.7947 7.05906 28.1703 6.6827C27.8191 6.47107 26.971 6.10389 26.0066 6.10389L25.6959 6.10372C24.3032 6.10261 22.0215 6.10078 21.1668 6.26014C20.3383 6.4146 20.0704 6.52706 19.9559 6.57654C19.4684 6.76839 19.0457 7.08898 18.7296 7.49642L18.456 9.27191C18.345 9.2548 18.2343 9.23908 18.1241 9.22468Z" fill="url(#paint10_radial_715_2577)"/>
<path fill-rule="evenodd" clip-rule="evenodd" d="M12.7959 5.66639C13.3479 5.88633 13.822 6.22517 14.1965 6.6523C14.4419 6.93216 14.7887 7.11938 15.1606 7.10432C15.6658 7.08386 16.2301 7.08081 16.8302 7.1074C17.204 7.12396 17.5531 6.93601 17.7995 6.65451C18.1743 6.22634 18.6491 5.88671 19.2019 5.66639C19.403 5.58047 19.7503 5.45188 20.6111 5.29138C21.1318 5.1943 22.3707 5.14099 23.2069 5.12201C24.07 5.10242 24.9981 5.10316 25.6921 5.10371L26.0066 5.10389C27.196 5.10389 28.3694 5.47968 28.8348 5.76014C29.8816 6.29139 30.8504 7.30701 30.9199 9.05473C30.9227 9.08087 30.9246 9.10722 30.9254 9.13372C31.0079 11.8221 29.3385 15.6671 25.0824 16.7208C24.7832 16.7948 24.4892 16.8487 24.1943 16.8893C24.18 16.8913 24.1656 16.8929 24.1512 16.8943C19.8453 17.2978 17.002 13.659 16.8614 9.70014C16.8498 9.37332 16.5989 9.09664 16.2719 9.09093C16.0853 9.08767 15.904 9.08744 15.7292 9.0897C15.4009 9.09393 15.1483 9.37144 15.1367 9.69957C14.9978 13.6586 12.1517 17.2977 7.84672 16.8943C7.83231 16.8929 7.81794 16.8913 7.8036 16.8893C7.5087 16.8487 7.21466 16.7948 6.91551 16.7208C2.65942 15.6671 0.990014 11.8221 1.07248 9.13372C1.07329 9.10722 1.07515 9.08087 1.07804 9.05473C1.14751 7.30701 2.11626 6.29139 3.16314 5.76014C3.62846 5.47968 4.80188 5.10389 5.99126 5.10389L6.30582 5.10371C6.99977 5.10316 7.92786 5.10242 8.79097 5.12201C9.62723 5.14099 10.866 5.1943 11.3867 5.29138C12.2476 5.45188 12.5949 5.58047 12.7959 5.66639ZM2.48946 8.16506C2.73935 7.55643 3.20319 7.05906 3.82764 6.6827C4.17876 6.47107 5.02691 6.10389 5.99126 6.10389L6.302 6.10372C7.69465 6.10261 9.97639 6.10078 10.8311 6.26014C11.6596 6.4146 11.9275 6.52706 12.042 6.57654C12.5115 6.76132 12.9209 7.06554 13.2329 7.45175L13.5746 9.2663C13.6562 9.25095 13.7565 9.23462 13.8736 9.21831C13.8739 9.23482 13.8741 9.25137 13.8741 9.26795L13.8739 9.29915C14.0536 13.5101 10.8467 16.0481 7.84673 15.7668C7.58152 15.7303 7.32261 15.6826 7.06248 15.6182C3.9022 14.8358 2.57541 12.3461 2.32299 10.1426C2.28412 9.80332 2.27072 9.47079 2.28004 9.15233L2.28031 9.14339L2.28232 9.14346L2.28269 9.13372C2.29661 8.78513 2.36759 8.46187 2.48946 8.16506ZM18.1241 9.22468C18.1239 9.23908 18.1238 9.2535 18.1238 9.26795L18.124 9.29915C17.9443 13.5101 21.1512 16.0481 24.1512 15.7668C24.4164 15.7303 24.6753 15.6826 24.9354 15.6182C28.0957 14.8358 29.4225 12.3461 29.6749 10.1426C29.7138 9.80332 29.7272 9.47079 29.7179 9.15233L29.7176 9.14339L29.7156 9.14346L29.7152 9.13372C29.7013 8.78513 29.6303 8.46187 29.5084 8.16506C29.2585 7.55643 28.7947 7.05906 28.1703 6.6827C27.8191 6.47107 26.971 6.10389 26.0066 6.10389L25.6959 6.10372C24.3032 6.10261 22.0215 6.10078 21.1668 6.26014C20.3383 6.4146 20.0704 6.52706 19.9559 6.57654C19.4684 6.76839 19.0457 7.08898 18.7296 7.49642L18.456 9.27191C18.345 9.2548 18.2343 9.23908 18.1241 9.22468Z" fill="url(#paint11_radial_715_2577)"/>
<path fill-rule="evenodd" clip-rule="evenodd" d="M12.7959 5.66639C13.3479 5.88633 13.822 6.22517 14.1965 6.6523C14.4419 6.93216 14.7887 7.11938 15.1606 7.10432C15.6658 7.08386 16.2301 7.08081 16.8302 7.1074C17.204 7.12396 17.5531 6.93601 17.7995 6.65451C18.1743 6.22634 18.6491 5.88671 19.2019 5.66639C19.403 5.58047 19.7503 5.45188 20.6111 5.29138C21.1318 5.1943 22.3707 5.14099 23.2069 5.12201C24.07 5.10242 24.9981 5.10316 25.6921 5.10371L26.0066 5.10389C27.196 5.10389 28.3694 5.47968 28.8348 5.76014C29.8816 6.29139 30.8504 7.30701 30.9199 9.05473C30.9227 9.08087 30.9246 9.10722 30.9254 9.13372C31.0079 11.8221 29.3385 15.6671 25.0824 16.7208C24.7832 16.7948 24.4892 16.8487 24.1943 16.8893C24.18 16.8913 24.1656 16.8929 24.1512 16.8943C19.8453 17.2978 17.002 13.659 16.8614 9.70014C16.8498 9.37332 16.5989 9.09664 16.2719 9.09093C16.0853 9.08767 15.904 9.08744 15.7292 9.0897C15.4009 9.09393 15.1483 9.37144 15.1367 9.69957C14.9978 13.6586 12.1517 17.2977 7.84672 16.8943C7.83231 16.8929 7.81794 16.8913 7.8036 16.8893C7.5087 16.8487 7.21466 16.7948 6.91551 16.7208C2.65942 15.6671 0.990014 11.8221 1.07248 9.13372C1.07329 9.10722 1.07515 9.08087 1.07804 9.05473C1.14751 7.30701 2.11626 6.29139 3.16314 5.76014C3.62846 5.47968 4.80188 5.10389 5.99126 5.10389L6.30582 5.10371C6.99977 5.10316 7.92786 5.10242 8.79097 5.12201C9.62723 5.14099 10.866 5.1943 11.3867 5.29138C12.2476 5.45188 12.5949 5.58047 12.7959 5.66639ZM2.48946 8.16506C2.73935 7.55643 3.20319 7.05906 3.82764 6.6827C4.17876 6.47107 5.02691 6.10389 5.99126 6.10389L6.302 6.10372C7.69465 6.10261 9.97639 6.10078 10.8311 6.26014C11.6596 6.4146 11.9275 6.52706 12.042 6.57654C12.5115 6.76132 12.9209 7.06554 13.2329 7.45175L13.5746 9.2663C13.6562 9.25095 13.7565 9.23462 13.8736 9.21831C13.8739 9.23482 13.8741 9.25137 13.8741 9.26795L13.8739 9.29915C14.0536 13.5101 10.8467 16.0481 7.84673 15.7668C7.58152 15.7303 7.32261 15.6826 7.06248 15.6182C3.9022 14.8358 2.57541 12.3461 2.32299 10.1426C2.28412 9.80332 2.27072 9.47079 2.28004 9.15233L2.28031 9.14339L2.28232 9.14346L2.28269 9.13372C2.29661 8.78513 2.36759 8.46187 2.48946 8.16506ZM18.1241 9.22468C18.1239 9.23908 18.1238 9.2535 18.1238 9.26795L18.124 9.29915C17.9443 13.5101 21.1512 16.0481 24.1512 15.7668C24.4164 15.7303 24.6753 15.6826 24.9354 15.6182C28.0957 14.8358 29.4225 12.3461 29.6749 10.1426C29.7138 9.80332 29.7272 9.47079 29.7179 9.15233L29.7176 9.14339L29.7156 9.14346L29.7152 9.13372C29.7013 8.78513 29.6303 8.46187 29.5084 8.16506C29.2585 7.55643 28.7947 7.05906 28.1703 6.6827C27.8191 6.47107 26.971 6.10389 26.0066 6.10389L25.6959 6.10372C24.3032 6.10261 22.0215 6.10078 21.1668 6.26014C20.3383 6.4146 20.0704 6.52706 19.9559 6.57654C19.4684 6.76839 19.0457 7.08898 18.7296 7.49642L18.456 9.27191C18.345 9.2548 18.2343 9.23908 18.1241 9.22468Z" fill="url(#paint12_radial_715_2577)"/>
<path d="M3.82779 6.6827C4.17891 6.47107 5.02706 6.10389 5.9914 6.10389C6.08874 6.10389 6.1927 6.1038 6.30215 6.10372C7.6948 6.1026 9.97654 6.10078 10.8312 6.26013C11.6597 6.41459 11.9276 6.52706 12.0422 6.57654C13.1152 6.99884 13.8742 8.045 13.8742 9.26795L13.8741 9.29915C14.0537 13.5101 10.8469 16.0481 7.84687 15.7668C7.58167 15.7303 7.32276 15.6826 7.06263 15.6182C3.41089 14.7142 2.20723 11.5304 2.28047 9.14295L2.28247 9.14346C2.3218 8.07536 2.89598 7.24431 3.82779 6.6827Z" fill="url(#paint13_radial_715_2577)"/>
<path d="M3.82779 6.6827C4.17891 6.47107 5.02706 6.10389 5.9914 6.10389C6.08874 6.10389 6.1927 6.1038 6.30215 6.10372C7.6948 6.1026 9.97654 6.10078 10.8312 6.26013C11.6597 6.41459 11.9276 6.52706 12.0422 6.57654C13.1152 6.99884 13.8742 8.045 13.8742 9.26795L13.8741 9.29915C14.0537 13.5101 10.8469 16.0481 7.84687 15.7668C7.58167 15.7303 7.32276 15.6826 7.06263 15.6182C3.41089 14.7142 2.20723 11.5304 2.28047 9.14295L2.28247 9.14346C2.3218 8.07536 2.89598 7.24431 3.82779 6.6827Z" fill="url(#paint14_radial_715_2577)"/>
<path d="M3.82779 6.6827C4.17891 6.47107 5.02706 6.10389 5.9914 6.10389C6.08874 6.10389 6.1927 6.1038 6.30215 6.10372C7.6948 6.1026 9.97654 6.10078 10.8312 6.26013C11.6597 6.41459 11.9276 6.52706 12.0422 6.57654C13.1152 6.99884 13.8742 8.045 13.8742 9.26795L13.8741 9.29915C14.0537 13.5101 10.8469 16.0481 7.84687 15.7668C7.58167 15.7303 7.32276 15.6826 7.06263 15.6182C3.41089 14.7142 2.20723 11.5304 2.28047 9.14295L2.28247 9.14346C2.3218 8.07536 2.89598 7.24431 3.82779 6.6827Z" fill="url(#paint15_radial_715_2577)"/>
<path d="M3.82779 6.6827C4.17891 6.47107 5.02706 6.10389 5.9914 6.10389C6.08874 6.10389 6.1927 6.1038 6.30215 6.10372C7.6948 6.1026 9.97654 6.10078 10.8312 6.26013C11.6597 6.41459 11.9276 6.52706 12.0422 6.57654C13.1152 6.99884 13.8742 8.045 13.8742 9.26795L13.8741 9.29915C14.0537 13.5101 10.8469 16.0481 7.84687 15.7668C7.58167 15.7303 7.32276 15.6826 7.06263 15.6182C3.41089 14.7142 2.20723 11.5304 2.28047 9.14295L2.28247 9.14346C2.3218 8.07536 2.89598 7.24431 3.82779 6.6827Z" fill="url(#paint16_radial_715_2577)"/>
<ellipse cx="11.1382" cy="9.14283" rx="1.49418" ry="1.8791" transform="rotate(-25.8832 11.1382 9.14283)" fill="url(#paint17_linear_715_2577)"/>
<path d="M28.1703 6.6827C27.8191 6.47107 26.971 6.10389 26.0066 6.10389C25.9093 6.10389 25.8053 6.1038 25.6959 6.10372C24.3032 6.1026 22.0215 6.10078 21.1668 6.26013C20.3383 6.41459 20.0704 6.52706 19.9559 6.57654C18.8828 6.99884 18.1238 8.045 18.1238 9.26795L18.124 9.29915C17.9443 13.5101 21.1512 16.0481 24.1512 15.7668C24.4164 15.7303 24.6753 15.6826 24.9354 15.6182C28.5872 14.7142 29.7908 11.5304 29.7176 9.14295L29.7156 9.14346C29.6762 8.07536 29.1021 7.24431 28.1703 6.6827Z" fill="url(#paint18_radial_715_2577)"/>
<path d="M28.1703 6.6827C27.8191 6.47107 26.971 6.10389 26.0066 6.10389C25.9093 6.10389 25.8053 6.1038 25.6959 6.10372C24.3032 6.1026 22.0215 6.10078 21.1668 6.26013C20.3383 6.41459 20.0704 6.52706 19.9559 6.57654C18.8828 6.99884 18.1238 8.045 18.1238 9.26795L18.124 9.29915C17.9443 13.5101 21.1512 16.0481 24.1512 15.7668C24.4164 15.7303 24.6753 15.6826 24.9354 15.6182C28.5872 14.7142 29.7908 11.5304 29.7176 9.14295L29.7156 9.14346C29.6762 8.07536 29.1021 7.24431 28.1703 6.6827Z" fill="url(#paint19_radial_715_2577)"/>
<path d="M28.1703 6.6827C27.8191 6.47107 26.971 6.10389 26.0066 6.10389C25.9093 6.10389 25.8053 6.1038 25.6959 6.10372C24.3032 6.1026 22.0215 6.10078 21.1668 6.26013C20.3383 6.41459 20.0704 6.52706 19.9559 6.57654C18.8828 6.99884 18.1238 8.045 18.1238 9.26795L18.124 9.29915C17.9443 13.5101 21.1512 16.0481 24.1512 15.7668C24.4164 15.7303 24.6753 15.6826 24.9354 15.6182C28.5872 14.7142 29.7908 11.5304 29.7176 9.14295L29.7156 9.14346C29.6762 8.07536 29.1021 7.24431 28.1703 6.6827Z" fill="url(#paint20_radial_715_2577)"/>
<path d="M28.1703 6.6827C27.8191 6.47107 26.971 6.10389 26.0066 6.10389C25.9093 6.10389 25.8053 6.1038 25.6959 6.10372C24.3032 6.1026 22.0215 6.10078 21.1668 6.26013C20.3383 6.41459 20.0704 6.52706 19.9559 6.57654C18.8828 6.99884 18.1238 8.045 18.1238 9.26795L18.124 9.29915C17.9443 13.5101 21.1512 16.0481 24.1512 15.7668C24.4164 15.7303 24.6753 15.6826 24.9354 15.6182C28.5872 14.7142 29.7908 11.5304 29.7176 9.14295L29.7156 9.14346C29.6762 8.07536 29.1021 7.24431 28.1703 6.6827Z" fill="url(#paint21_radial_715_2577)"/>
<ellipse cx="27.1724" cy="9.14283" rx="1.49418" ry="1.8791" transform="rotate(-25.8832 27.1724 9.14283)" fill="url(#paint22_linear_715_2577)"/>
<defs>
<filter id="filter0_f_715_2577" x="2.34834" y="4.90352" width="28.5724" height="14.2215" filterUnits="userSpaceOnUse" color-interpolation-filters="sRGB">
<feFlood flood-opacity="0" result="BackgroundImageFix"/>
<feBlend mode="normal" in="SourceGraphic" in2="BackgroundImageFix" result="shape"/>
<feGaussianBlur stdDeviation="0.6" result="effect1_foregroundBlur_715_2577"/>
</filter>
<radialGradient id="paint0_radial_715_2577" cx="0" cy="0" r="1" gradientUnits="userSpaceOnUse" gradientTransform="translate(25.499 9) rotate(132.839) scale(37.5033)">
<stop stop-color="#FFF478"/>
<stop offset="0.474827" stop-color="#FFB02E"/>
<stop offset="1" stop-color="#F70A8D"/>
</radialGradient>
<radialGradient id="paint1_radial_715_2577" cx="0" cy="0" r="1" gradientUnits="userSpaceOnUse" gradientTransform="translate(25.499 9) rotate(131.878) scale(38.9487)">
<stop stop-color="#FFF478"/>
<stop offset="0.474827" stop-color="#FFB02E"/>
<stop offset="1" stop-color="#F70A8D"/>
</radialGradient>
<radialGradient id="paint2_radial_715_2577" cx="0" cy="0" r="1" gradientUnits="userSpaceOnUse" gradientTransform="translate(15.999 12.5) rotate(101.31) scale(17.8466 22.8581)">
<stop offset="0.787821" stop-color="#F59639" stop-opacity="0"/>
<stop offset="0.972509" stop-color="#FF7DCE"/>
</radialGradient>
<radialGradient id="paint3_radial_715_2577" cx="0" cy="0" r="1" gradientUnits="userSpaceOnUse" gradientTransform="translate(17.999 14) rotate(135) scale(41.0122)">
<stop offset="0.314853" stop-opacity="0"/>
<stop offset="1"/>
</radialGradient>
<radialGradient id="paint4_radial_715_2577" cx="0" cy="0" r="1" gradientUnits="userSpaceOnUse" gradientTransform="translate(15.999 17) rotate(77.692) scale(28.1469)">
<stop offset="0.507903" stop-color="#7D6133" stop-opacity="0"/>
<stop offset="1" stop-color="#715B32"/>
</radialGradient>
<radialGradient id="paint5_radial_715_2577" cx="0" cy="0" r="1" gradientUnits="userSpaceOnUse" gradientTransform="translate(16.499 16.5) rotate(55.7131) scale(13.3135 9.65032)">
<stop stop-color="#FFB849"/>
<stop offset="1" stop-color="#FFB847" stop-opacity="0"/>
</radialGradient>
<radialGradient id="paint6_radial_715_2577" cx="0" cy="0" r="1" gradientUnits="userSpaceOnUse" gradientTransform="translate(20.499 18) rotate(9.86581) scale(11.6726)">
<stop stop-color="#FFA64B"/>
<stop offset="0.900412" stop-color="#FFAE46" stop-opacity="0"/>
</radialGradient>
<radialGradient id="paint7_radial_715_2577" cx="0" cy="0" r="1" gradientUnits="userSpaceOnUse" gradientTransform="translate(17.499 15) rotate(43.9708) scale(59.0529)">
<stop offset="0.185425" stop-opacity="0"/>
<stop offset="1" stop-opacity="0.4"/>
</radialGradient>
<radialGradient id="paint8_radial_715_2577" cx="0" cy="0" r="1" gradientUnits="userSpaceOnUse" gradientTransform="translate(15.999 17.8147) rotate(90) scale(10.9375 16.8684)">
<stop offset="0.145833" stop-color="#2E1529"/>
<stop offset="0.276042" stop-color="#503A4A"/>
<stop offset="0.342857" stop-color="#4B2744"/>
</radialGradient>
<linearGradient id="paint9_linear_715_2577" x1="22.6864" y1="12.0143" x2="8.62387" y2="17.3773" gradientUnits="userSpaceOnUse">
<stop stop-color="#E78F00"/>
<stop offset="1" stop-color="#D07000"/>
</linearGradient>
<radialGradient id="paint10_radial_715_2577" cx="0" cy="0" r="1" gradientUnits="userSpaceOnUse" gradientTransform="translate(21.1238 5.75232) rotate(78.8614) scale(12.2941 25.4762)">
<stop stop-color="#5F5B9B"/>
<stop offset="1" stop-color="#5C3085"/>
</radialGradient>
<radialGradient id="paint11_radial_715_2577" cx="0" cy="0" r="1" gradientUnits="userSpaceOnUse" gradientTransform="translate(23.8896 11.0135) rotate(78.0636) scale(5.51431 6.19479)">
<stop offset="0.776042" stop-color="#77579C"/>
<stop offset="0.9375" stop-color="#77579C" stop-opacity="0"/>
</radialGradient>
<radialGradient id="paint12_radial_715_2577" cx="0" cy="0" r="1" gradientUnits="userSpaceOnUse" gradientTransform="translate(21.8738 10.0023) rotate(-122.735) scale(4.68093 3.43606)">
<stop offset="0.769354" stop-color="#4E3D92"/>
<stop offset="1" stop-color="#534687" stop-opacity="0"/>
</radialGradient>
<radialGradient id="paint13_radial_715_2577" cx="0" cy="0" r="1" gradientUnits="userSpaceOnUse" gradientTransform="translate(10.6866 9.06482) rotate(121.845) scale(5.92276 6.72838)">
<stop stop-color="#4C3D70"/>
<stop offset="1" stop-color="#361C5D"/>
</radialGradient>
<radialGradient id="paint14_radial_715_2577" cx="0" cy="0" r="1" gradientUnits="userSpaceOnUse" gradientTransform="translate(9.46797 9.22107) rotate(87.1376) scale(7.50937 11.1509)">
<stop offset="0.647365" stop-color="#5B2B84" stop-opacity="0"/>
<stop offset="1" stop-color="#5B2B84"/>
</radialGradient>
<radialGradient id="paint15_radial_715_2577" cx="0" cy="0" r="1" gradientUnits="userSpaceOnUse" gradientTransform="translate(7.78047 16.7836) rotate(-99.5134) scale(11.5336 11.4216)">
<stop offset="0.858612" stop-color="#2E1D57" stop-opacity="0"/>
<stop offset="1" stop-color="#20143D"/>
</radialGradient>
<radialGradient id="paint16_radial_715_2577" cx="0" cy="0" r="1" gradientUnits="userSpaceOnUse" gradientTransform="translate(8.74922 8.47107) rotate(102.225) scale(7.67402 7.20221)">
<stop offset="0.872281" stop-color="#2E1D57" stop-opacity="0"/>
<stop offset="1" stop-color="#20143D" stop-opacity="0.6"/>
</radialGradient>
<linearGradient id="paint17_linear_715_2577" x1="11.792" y1="7.79538" x2="10.3985" y2="10.9574" gradientUnits="userSpaceOnUse">
<stop stop-color="white"/>
<stop offset="0.973958" stop-color="white" stop-opacity="0"/>
</linearGradient>
<radialGradient id="paint18_radial_715_2577" cx="0" cy="0" r="1" gradientUnits="userSpaceOnUse" gradientTransform="translate(24.6552 8.65857) rotate(121.289) scale(6.61888 9.94211)">
<stop stop-color="#4C3D70"/>
<stop offset="1" stop-color="#361C5D"/>
</radialGradient>
<radialGradient id="paint19_radial_715_2577" cx="0" cy="0" r="1" gradientUnits="userSpaceOnUse" gradientTransform="translate(22.5301 9.22107) rotate(92.8624) scale(7.50937 11.1509)">
<stop offset="0.647365" stop-color="#5B2B84" stop-opacity="0"/>
<stop offset="1" stop-color="#5B2B84"/>
</radialGradient>
<radialGradient id="paint20_radial_715_2577" cx="0" cy="0" r="1" gradientUnits="userSpaceOnUse" gradientTransform="translate(23.9187 15.4398) rotate(-77.6023) scale(10.2708 10.171)">
<stop offset="0.858612" stop-color="#2E1D57" stop-opacity="0"/>
<stop offset="1" stop-color="#20143D"/>
</radialGradient>
<radialGradient id="paint21_radial_715_2577" cx="0" cy="0" r="1" gradientUnits="userSpaceOnUse" gradientTransform="translate(23.2488 8.47107) rotate(77.7749) scale(7.67402 7.20221)">
<stop offset="0.872281" stop-color="#2E1D57" stop-opacity="0"/>
<stop offset="1" stop-color="#20143D" stop-opacity="0.6"/>
</radialGradient>
<linearGradient id="paint22_linear_715_2577" x1="27.8262" y1="7.79538" x2="26.4327" y2="10.9574" gradientUnits="userSpaceOnUse">
<stop stop-color="white"/>
<stop offset="0.973958" stop-color="white" stop-opacity="0"/>
</linearGradient>
</defs>
</svg>
