<svg width="32" height="32" viewBox="0 0 32 32" fill="none" xmlns="http://www.w3.org/2000/svg">
<g clip-path="url(#clip0_715_2477)">
<path d="M15.9988 29.9978C25.3332 29.9978 29.9976 23.7303 29.9976 15.9989C29.9976 8.26751 25.3332 2 15.9988 2C6.66431 2 1.99988 8.26751 1.99988 15.9989C1.99988 23.7303 6.66431 29.9978 15.9988 29.9978Z" fill="url(#paint0_radial_715_2477)"/>
<path d="M15.9988 29.9978C25.3332 29.9978 29.9976 23.7303 29.9976 15.9989C29.9976 8.26751 25.3332 2 15.9988 2C6.66431 2 1.99988 8.26751 1.99988 15.9989C1.99988 23.7303 6.66431 29.9978 15.9988 29.9978Z" fill="url(#paint1_radial_715_2477)"/>
<path d="M15.9988 29.9978C25.3332 29.9978 29.9976 23.7303 29.9976 15.9989C29.9976 8.26751 25.3332 2 15.9988 2C6.66431 2 1.99988 8.26751 1.99988 15.9989C1.99988 23.7303 6.66431 29.9978 15.9988 29.9978Z" fill="url(#paint2_radial_715_2477)" fill-opacity="0.6"/>
<path d="M15.9988 29.9978C25.3332 29.9978 29.9976 23.7303 29.9976 15.9989C29.9976 8.26751 25.3332 2 15.9988 2C6.66431 2 1.99988 8.26751 1.99988 15.9989C1.99988 23.7303 6.66431 29.9978 15.9988 29.9978Z" fill="url(#paint3_radial_715_2477)"/>
<path d="M15.9988 29.9978C25.3332 29.9978 29.9976 23.7303 29.9976 15.9989C29.9976 8.26751 25.3332 2 15.9988 2C6.66431 2 1.99988 8.26751 1.99988 15.9989C1.99988 23.7303 6.66431 29.9978 15.9988 29.9978Z" fill="url(#paint4_radial_715_2477)"/>
<path d="M15.9988 29.9978C25.3332 29.9978 29.9976 23.7303 29.9976 15.9989C29.9976 8.26751 25.3332 2 15.9988 2C6.66431 2 1.99988 8.26751 1.99988 15.9989C1.99988 23.7303 6.66431 29.9978 15.9988 29.9978Z" fill="url(#paint5_radial_715_2477)"/>
<path d="M15.9988 29.9978C25.3332 29.9978 29.9976 23.7303 29.9976 15.9989C29.9976 8.26751 25.3332 2 15.9988 2C6.66431 2 1.99988 8.26751 1.99988 15.9989C1.99988 23.7303 6.66431 29.9978 15.9988 29.9978Z" fill="url(#paint6_radial_715_2477)"/>
<path fill-rule="evenodd" clip-rule="evenodd" d="M20.2452 21.6996C17.8967 19.3683 14.0988 19.3764 11.7581 21.7257C11.3683 22.117 10.7351 22.1181 10.3439 21.7283C9.95263 21.3385 9.95147 20.7053 10.3413 20.3141C13.4605 17.1834 18.5227 17.1716 21.6542 20.2802C22.0461 20.6693 22.0485 21.3025 21.6594 21.6944C21.2703 22.0864 20.6371 22.0887 20.2452 21.6996Z" fill="url(#paint7_linear_715_2477)"/>
<g filter="url(#filter0_f_715_2477)">
<path d="M12.4999 11.5C11.4999 13 8.99988 13.5 7.49988 12.5" stroke="#CE7C25" stroke-width="2" stroke-linecap="round" stroke-linejoin="round"/>
</g>
<path d="M12.9999 11C11.9999 12.5 9.49988 13 7.99988 12" stroke="url(#paint8_radial_715_2477)" stroke-width="2" stroke-linecap="round" stroke-linejoin="round"/>
<g opacity="0.7" filter="url(#filter1_f_715_2477)">
<path d="M18.4999 11.5C19.4999 13 21.9999 13.5 23.4999 12.5" stroke="#F4B158" stroke-width="2" stroke-linecap="round" stroke-linejoin="round"/>
</g>
<path d="M18.9999 11C19.9999 12.5 22.4999 13 23.9999 12" stroke="url(#paint9_linear_715_2477)" stroke-width="2" stroke-linecap="round" stroke-linejoin="round"/>
<g opacity="0.8" filter="url(#filter2_f_715_2477)">
<path d="M9.24988 6.32541C10.9999 5.49543 12.7874 6.3254 13.2499 7.99544" stroke="#AA7013" stroke-linecap="round" stroke-linejoin="round"/>
</g>
<path d="M9.49988 5.83005C11.2499 5.00007 13.0374 5.83004 13.4999 7.50008" stroke="url(#paint10_radial_715_2477)" stroke-linecap="round" stroke-linejoin="round"/>
<g opacity="0.8" filter="url(#filter3_f_715_2477)">
<path d="M22.0498 6.72414C20.3765 5.74869 18.525 6.42403 17.9225 8.04881" stroke="#D59A25" stroke-linecap="round" stroke-linejoin="round"/>
</g>
<path d="M22.4999 5.83005C20.7499 5.00007 18.9624 5.83004 18.4999 7.50008" stroke="url(#paint11_radial_715_2477)" stroke-linecap="round" stroke-linejoin="round"/>
<g filter="url(#filter4_i_715_2477)">
<path fill-rule="evenodd" clip-rule="evenodd" d="M4.99988 24C3.34302 24 1.99988 22.6568 1.99988 21C1.99988 19.3431 3.34302 18 4.99988 18C6.07492 18 7.01789 18.5654 7.54758 19.4152L12.8517 16.1158C13.4583 15.7385 14.199 16.3425 13.9514 17.0126L11.5742 23.4457C12.4297 23.9742 12.9999 24.9205 12.9999 26C12.9999 27.6568 11.6567 29 9.99988 29C8.34302 29 6.99988 27.6568 6.99988 26C6.99988 25.6493 7.06004 25.3127 7.1706 24.9999H4.99988L4.99988 24Z" fill="url(#paint12_radial_715_2477)"/>
</g>
<path d="M4.99988 24C6.65673 24 7.99988 22.6569 7.99988 21C7.99988 19.3431 6.65673 18 4.99988 18C3.34302 18 1.99988 19.3431 1.99988 21C1.99988 22.6569 3.34302 24 4.99988 24Z" fill="url(#paint13_radial_715_2477)"/>
<path d="M9.99988 29C11.6567 29 12.9999 27.6569 12.9999 26C12.9999 24.3431 11.6567 23 9.99988 23C8.34302 23 6.99988 24.3431 6.99988 26C6.99988 27.6569 8.34302 29 9.99988 29Z" fill="url(#paint14_radial_715_2477)"/>
<g filter="url(#filter5_i_715_2477)">
<path d="M6.49988 29C8.98516 29 10.9999 26.9853 10.9999 24.5C10.9999 22.0147 8.98516 20 6.49988 20C4.0146 20 1.99988 22.0147 1.99988 24.5C1.99988 26.9853 4.0146 29 6.49988 29Z" fill="url(#paint15_radial_715_2477)"/>
</g>
<path fill-rule="evenodd" clip-rule="evenodd" d="M27.0004 24C28.6572 24 30.0004 22.6568 30.0004 21C30.0004 19.3431 28.6572 18 27.0004 18C25.9253 18 24.9824 18.5654 24.4527 19.4152L19.1485 16.1158C18.5419 15.7385 17.8013 16.3425 18.0489 17.0126L20.4261 23.4457C19.5705 23.9742 19.0004 24.9205 19.0004 26C19.0004 27.6568 20.3435 29 22.0004 29C23.6572 29 25.0004 27.6568 25.0004 26C25.0004 25.6493 24.9402 25.3127 24.8296 24.9999H27.0004L27.0004 24Z" fill="url(#paint16_linear_715_2477)"/>
<path d="M27.0004 24C28.6572 24 30.0004 22.6569 30.0004 21C30.0004 19.3431 28.6572 18 27.0004 18C25.3435 18 24.0004 19.3431 24.0004 21C24.0004 22.6569 25.3435 24 27.0004 24Z" fill="url(#paint17_radial_715_2477)"/>
<path d="M22.0004 29C23.6572 29 25.0004 27.6569 25.0004 26C25.0004 24.3431 23.6572 23 22.0004 23C20.3435 23 19.0004 24.3431 19.0004 26C19.0004 27.6569 20.3435 29 22.0004 29Z" fill="url(#paint18_radial_715_2477)"/>
<g filter="url(#filter6_i_715_2477)">
<path d="M25.5004 29C27.9856 29 30.0004 26.9853 30.0004 24.5C30.0004 22.0147 27.9856 20 25.5004 20C23.0151 20 21.0004 22.0147 21.0004 24.5C21.0004 26.9853 23.0151 29 25.5004 29Z" fill="url(#paint19_radial_715_2477)"/>
</g>
</g>
<defs>
<filter id="filter0_f_715_2477" x="4.99976" y="8.99988" width="10.0002" height="6.52014" filterUnits="userSpaceOnUse" color-interpolation-filters="sRGB">
<feFlood flood-opacity="0" result="BackgroundImageFix"/>
<feBlend mode="normal" in="SourceGraphic" in2="BackgroundImageFix" result="shape"/>
<feGaussianBlur stdDeviation="0.75" result="effect1_foregroundBlur_715_2477"/>
</filter>
<filter id="filter1_f_715_2477" x="16.4998" y="9.49988" width="9.00024" height="5.52014" filterUnits="userSpaceOnUse" color-interpolation-filters="sRGB">
<feFlood flood-opacity="0" result="BackgroundImageFix"/>
<feBlend mode="normal" in="SourceGraphic" in2="BackgroundImageFix" result="shape"/>
<feGaussianBlur stdDeviation="0.5" result="effect1_foregroundBlur_715_2477"/>
</filter>
<filter id="filter2_f_715_2477" x="7.24976" y="4.00085" width="8.00024" height="5.99475" filterUnits="userSpaceOnUse" color-interpolation-filters="sRGB">
<feFlood flood-opacity="0" result="BackgroundImageFix"/>
<feBlend mode="normal" in="SourceGraphic" in2="BackgroundImageFix" result="shape"/>
<feGaussianBlur stdDeviation="0.75" result="effect1_foregroundBlur_715_2477"/>
</filter>
<filter id="filter3_f_715_2477" x="15.6724" y="4.02258" width="8.62756" height="6.27637" filterUnits="userSpaceOnUse" color-interpolation-filters="sRGB">
<feFlood flood-opacity="0" result="BackgroundImageFix"/>
<feBlend mode="normal" in="SourceGraphic" in2="BackgroundImageFix" result="shape"/>
<feGaussianBlur stdDeviation="0.875" result="effect1_foregroundBlur_715_2477"/>
</filter>
<filter id="filter4_i_715_2477" x="1.99988" y="15.9994" width="12.5005" height="13.5006" filterUnits="userSpaceOnUse" color-interpolation-filters="sRGB">
<feFlood flood-opacity="0" result="BackgroundImageFix"/>
<feBlend mode="normal" in="SourceGraphic" in2="BackgroundImageFix" result="shape"/>
<feColorMatrix in="SourceAlpha" type="matrix" values="0 0 0 0 0 0 0 0 0 0 0 0 0 0 0 0 0 0 127 0" result="hardAlpha"/>
<feOffset dx="0.5" dy="0.5"/>
<feGaussianBlur stdDeviation="1"/>
<feComposite in2="hardAlpha" operator="arithmetic" k2="-1" k3="1"/>
<feColorMatrix type="matrix" values="0 0 0 0 0.784314 0 0 0 0 0.745098 0 0 0 0 0.764706 0 0 0 1 0"/>
<feBlend mode="normal" in2="shape" result="effect1_innerShadow_715_2477"/>
</filter>
<filter id="filter5_i_715_2477" x="1.99988" y="20" width="10.5" height="9.5" filterUnits="userSpaceOnUse" color-interpolation-filters="sRGB">
<feFlood flood-opacity="0" result="BackgroundImageFix"/>
<feBlend mode="normal" in="SourceGraphic" in2="BackgroundImageFix" result="shape"/>
<feColorMatrix in="SourceAlpha" type="matrix" values="0 0 0 0 0 0 0 0 0 0 0 0 0 0 0 0 0 0 127 0" result="hardAlpha"/>
<feOffset dx="1.5" dy="0.5"/>
<feGaussianBlur stdDeviation="1"/>
<feComposite in2="hardAlpha" operator="arithmetic" k2="-1" k3="1"/>
<feColorMatrix type="matrix" values="0 0 0 0 0.749966 0 0 0 0 0.634228 0 0 0 0 0.878564 0 0 0 1 0"/>
<feBlend mode="normal" in2="shape" result="effect1_innerShadow_715_2477"/>
</filter>
<filter id="filter6_i_715_2477" x="21.0004" y="20" width="10.5" height="9.5" filterUnits="userSpaceOnUse" color-interpolation-filters="sRGB">
<feFlood flood-opacity="0" result="BackgroundImageFix"/>
<feBlend mode="normal" in="SourceGraphic" in2="BackgroundImageFix" result="shape"/>
<feColorMatrix in="SourceAlpha" type="matrix" values="0 0 0 0 0 0 0 0 0 0 0 0 0 0 0 0 0 0 127 0" result="hardAlpha"/>
<feOffset dx="1.5" dy="0.5"/>
<feGaussianBlur stdDeviation="1"/>
<feComposite in2="hardAlpha" operator="arithmetic" k2="-1" k3="1"/>
<feColorMatrix type="matrix" values="0 0 0 0 0.749966 0 0 0 0 0.634228 0 0 0 0 0.878564 0 0 0 0.8 0"/>
<feBlend mode="normal" in2="shape" result="effect1_innerShadow_715_2477"/>
</filter>
<radialGradient id="paint0_radial_715_2477" cx="0" cy="0" r="1" gradientUnits="userSpaceOnUse" gradientTransform="translate(25.4999 9) rotate(131.878) scale(38.9487)">
<stop stop-color="#FFF478"/>
<stop offset="0.474827" stop-color="#FFB02E"/>
<stop offset="1" stop-color="#F70A8D"/>
</radialGradient>
<radialGradient id="paint1_radial_715_2477" cx="0" cy="0" r="1" gradientUnits="userSpaceOnUse" gradientTransform="translate(15.9999 12.5) rotate(101.31) scale(17.8466 22.8581)">
<stop offset="0.787821" stop-color="#F59639" stop-opacity="0"/>
<stop offset="0.972509" stop-color="#FF7DCE"/>
</radialGradient>
<radialGradient id="paint2_radial_715_2477" cx="0" cy="0" r="1" gradientUnits="userSpaceOnUse" gradientTransform="translate(17.9999 14) rotate(135) scale(41.0122)">
<stop offset="0.314853" stop-opacity="0"/>
<stop offset="1"/>
</radialGradient>
<radialGradient id="paint3_radial_715_2477" cx="0" cy="0" r="1" gradientUnits="userSpaceOnUse" gradientTransform="translate(15.9999 17) rotate(77.692) scale(28.1469)">
<stop offset="0.507903" stop-color="#7D6133" stop-opacity="0"/>
<stop offset="1" stop-color="#715B32"/>
</radialGradient>
<radialGradient id="paint4_radial_715_2477" cx="0" cy="0" r="1" gradientUnits="userSpaceOnUse" gradientTransform="translate(16.4999 16.5) rotate(55.7131) scale(13.3135 9.65032)">
<stop stop-color="#FFB849"/>
<stop offset="1" stop-color="#FFB847" stop-opacity="0"/>
</radialGradient>
<radialGradient id="paint5_radial_715_2477" cx="0" cy="0" r="1" gradientUnits="userSpaceOnUse" gradientTransform="translate(20.4999 18) rotate(9.86581) scale(11.6726)">
<stop stop-color="#FFA64B"/>
<stop offset="0.900412" stop-color="#FFAE46" stop-opacity="0"/>
</radialGradient>
<radialGradient id="paint6_radial_715_2477" cx="0" cy="0" r="1" gradientUnits="userSpaceOnUse" gradientTransform="translate(17.4999 15) rotate(43.9708) scale(59.0529)">
<stop offset="0.185425" stop-opacity="0"/>
<stop offset="1" stop-opacity="0.4"/>
</radialGradient>
<linearGradient id="paint7_linear_715_2477" x1="15.9997" y1="17.9261" x2="15.9997" y2="19.9887" gradientUnits="userSpaceOnUse">
<stop stop-color="#4F3C43"/>
<stop offset="1" stop-color="#512756"/>
</linearGradient>
<radialGradient id="paint8_radial_715_2477" cx="0" cy="0" r="1" gradientUnits="userSpaceOnUse" gradientTransform="translate(10.4999 10) rotate(90) scale(3.5 4.7996)">
<stop stop-color="#52383E"/>
<stop offset="0.651042" stop-color="#5C4553"/>
<stop offset="1" stop-color="#432A35"/>
</radialGradient>
<linearGradient id="paint9_linear_715_2477" x1="21.4999" y1="10.5" x2="21.038" y2="12.9115" gradientUnits="userSpaceOnUse">
<stop stop-color="#52383E"/>
<stop offset="1" stop-color="#432A35"/>
</linearGradient>
<radialGradient id="paint10_radial_715_2477" cx="0" cy="0" r="1" gradientUnits="userSpaceOnUse" gradientTransform="translate(11.4999 7.00006) rotate(-63.435) scale(2.23607 3.35294)">
<stop stop-color="#301E26"/>
<stop offset="1" stop-color="#52383E"/>
</radialGradient>
<radialGradient id="paint11_radial_715_2477" cx="0" cy="0" r="1" gradientUnits="userSpaceOnUse" gradientTransform="translate(20.4999 7.00006) rotate(-116.565) scale(2.23607 3.35294)">
<stop stop-color="#301E26"/>
<stop offset="1" stop-color="#52383E"/>
</radialGradient>
<radialGradient id="paint12_radial_715_2477" cx="0" cy="0" r="1" gradientUnits="userSpaceOnUse" gradientTransform="translate(7.183 21.9999) rotate(56.3916) scale(9.60569 18.9147)">
<stop offset="0.336345" stop-color="#FEF4FF"/>
<stop offset="1" stop-color="#F8B1FF"/>
</radialGradient>
<radialGradient id="paint13_radial_715_2477" cx="0" cy="0" r="1" gradientUnits="userSpaceOnUse" gradientTransform="translate(6.99988 19.5) rotate(139.399) scale(4.60977)">
<stop stop-color="#EEEAF9" stop-opacity="0"/>
<stop offset="0.910262" stop-color="#C39ED9"/>
</radialGradient>
<radialGradient id="paint14_radial_715_2477" cx="0" cy="0" r="1" gradientUnits="userSpaceOnUse" gradientTransform="translate(11.9999 24.5) rotate(95.1944) scale(5.52268)">
<stop stop-color="#FAE8FF" stop-opacity="0"/>
<stop offset="0.910262" stop-color="#EC94FF"/>
</radialGradient>
<radialGradient id="paint15_radial_715_2477" cx="0" cy="0" r="1" gradientUnits="userSpaceOnUse" gradientTransform="translate(9.49988 22) rotate(135) scale(11.3137)">
<stop offset="0.15664" stop-color="#FFF6FF"/>
<stop offset="0.741349" stop-color="#E88DFF"/>
</radialGradient>
<linearGradient id="paint16_linear_715_2477" x1="26.4999" y1="18.9999" x2="21.4999" y2="24.9999" gradientUnits="userSpaceOnUse">
<stop stop-color="#FFF8FF"/>
<stop offset="0.455337" stop-color="#D0C1DB"/>
<stop offset="0.873798" stop-color="#C28EEC"/>
</linearGradient>
<radialGradient id="paint17_radial_715_2477" cx="0" cy="0" r="1" gradientUnits="userSpaceOnUse" gradientTransform="translate(29.0004 19.5) rotate(135.003) scale(5.6572)">
<stop stop-color="#EEEAF9" stop-opacity="0"/>
<stop offset="0.910262" stop-color="#C39ED9"/>
</radialGradient>
<radialGradient id="paint18_radial_715_2477" cx="0" cy="0" r="1" gradientUnits="userSpaceOnUse" gradientTransform="translate(20.9999 23.5) rotate(108.435) scale(6.32456)">
<stop stop-color="#C38EEC"/>
<stop offset="0.910262" stop-color="#EC94FF"/>
</radialGradient>
<radialGradient id="paint19_radial_715_2477" cx="0" cy="0" r="1" gradientUnits="userSpaceOnUse" gradientTransform="translate(28.5004 22) rotate(135) scale(11.3137)">
<stop offset="0.15664" stop-color="#FFF6FF"/>
<stop offset="0.741349" stop-color="#E88DFF"/>
</radialGradient>
<clipPath id="clip0_715_2477">
<rect width="32" height="32" fill="white"/>
</clipPath>
</defs>
</svg>
