<svg width="32" height="32" viewBox="0 0 32 32" fill="none" xmlns="http://www.w3.org/2000/svg">
<g clip-path="url(#clip0_715_2626)">
<path d="M15.9986 29.9978C25.3331 29.9978 29.9975 23.7303 29.9975 15.9989C29.9975 8.26751 25.3331 2 15.9986 2C6.66419 2 1.99976 8.26751 1.99976 15.9989C1.99976 23.7303 6.66419 29.9978 15.9986 29.9978Z" fill="url(#paint0_radial_715_2626)"/>
<path d="M15.9986 29.9978C25.3331 29.9978 29.9975 23.7303 29.9975 15.9989C29.9975 8.26751 25.3331 2 15.9986 2C6.66419 2 1.99976 8.26751 1.99976 15.9989C1.99976 23.7303 6.66419 29.9978 15.9986 29.9978Z" fill="url(#paint1_radial_715_2626)"/>
<path d="M15.9986 29.9978C25.3331 29.9978 29.9975 23.7303 29.9975 15.9989C29.9975 8.26751 25.3331 2 15.9986 2C6.66419 2 1.99976 8.26751 1.99976 15.9989C1.99976 23.7303 6.66419 29.9978 15.9986 29.9978Z" fill="url(#paint2_radial_715_2626)" fill-opacity="0.6"/>
<path d="M15.9986 29.9978C25.3331 29.9978 29.9975 23.7303 29.9975 15.9989C29.9975 8.26751 25.3331 2 15.9986 2C6.66419 2 1.99976 8.26751 1.99976 15.9989C1.99976 23.7303 6.66419 29.9978 15.9986 29.9978Z" fill="url(#paint3_radial_715_2626)"/>
<path d="M15.9986 29.9978C25.3331 29.9978 29.9975 23.7303 29.9975 15.9989C29.9975 8.26751 25.3331 2 15.9986 2C6.66419 2 1.99976 8.26751 1.99976 15.9989C1.99976 23.7303 6.66419 29.9978 15.9986 29.9978Z" fill="url(#paint4_radial_715_2626)"/>
<path d="M15.9986 29.9978C25.3331 29.9978 29.9975 23.7303 29.9975 15.9989C29.9975 8.26751 25.3331 2 15.9986 2C6.66419 2 1.99976 8.26751 1.99976 15.9989C1.99976 23.7303 6.66419 29.9978 15.9986 29.9978Z" fill="url(#paint5_radial_715_2626)"/>
<path d="M15.9986 29.9978C25.3331 29.9978 29.9975 23.7303 29.9975 15.9989C29.9975 8.26751 25.3331 2 15.9986 2C6.66419 2 1.99976 8.26751 1.99976 15.9989C1.99976 23.7303 6.66419 29.9978 15.9986 29.9978Z" fill="url(#paint6_radial_715_2626)"/>
<path opacity="0.5" d="M7.49976 23C11.0896 23 13.9998 20.0899 13.9998 16.5C13.9998 12.9101 11.0896 10 7.49976 10C3.9099 10 0.999756 12.9101 0.999756 16.5C0.999756 20.0899 3.9099 23 7.49976 23Z" fill="url(#paint7_radial_715_2626)"/>
<path opacity="0.5" d="M24.4998 23C28.0896 23 30.9998 20.0899 30.9998 16.5C30.9998 12.9101 28.0896 10 24.4998 10C20.9099 10 17.9998 12.9101 17.9998 16.5C17.9998 20.0899 20.9099 23 24.4998 23Z" fill="url(#paint8_radial_715_2626)"/>
<g opacity="0.5" filter="url(#filter0_f_715_2626)">
<path d="M7.49976 13.5C7.49976 13.5 7.74976 11.5 9.99976 11.5C12.2498 11.5 12.4998 13.5 12.4998 13.5" stroke="#9A4609" stroke-width="2" stroke-linecap="round"/>
</g>
<g opacity="0.5" filter="url(#filter1_f_715_2626)">
<path d="M18.4998 13.5C18.4998 13.5 18.9998 11.5 20.9998 11.5C22.9998 11.5 23.4998 13.5 23.4998 13.5" stroke="#9A4609" stroke-width="2" stroke-linecap="round"/>
</g>
<path d="M7.99976 13C7.99976 13 8.24976 11 10.4998 11C12.7498 11 12.9998 13 12.9998 13" stroke="#43273B" stroke-width="2" stroke-linecap="round" stroke-linejoin="round"/>
<g opacity="0.26" filter="url(#filter2_f_715_2626)">
<path d="M8.24976 12.75C8.24976 12.75 8.49976 10.75 10.7498 10.75C12.9998 10.75 13.2498 12.75 13.2498 12.75" stroke="white" stroke-width="0.75" stroke-linecap="round" stroke-linejoin="round"/>
</g>
<path d="M18.9998 13C18.9998 13 19.4998 11 21.4998 11C23.4998 11 23.9998 13 23.9998 13" stroke="#43273B" stroke-width="2" stroke-linecap="round" stroke-linejoin="round"/>
<g opacity="0.26" filter="url(#filter3_f_715_2626)">
<path d="M19.2498 12.75C19.2498 12.75 19.4998 10.75 21.7498 10.75C23.9998 10.75 24.2498 12.75 24.2498 12.75" stroke="white" stroke-width="0.75" stroke-linecap="round" stroke-linejoin="round"/>
</g>
<path d="M6.49976 9.5C6.83309 8.5 8.09976 6.5 10.4998 6.5" stroke="url(#paint9_linear_715_2626)" stroke-linecap="round" stroke-linejoin="round"/>
<path d="M25.4998 9.5C25.1664 8.5 23.8998 6.5 21.4998 6.5" stroke="url(#paint10_linear_715_2626)" stroke-linecap="round" stroke-linejoin="round"/>
<path d="M9.99976 19C10.4998 19.6667 12.4998 21.5 15.9998 21.5C19.4998 21.5 21.4998 19.6667 21.9998 19" stroke="url(#paint11_radial_715_2626)" stroke-width="2" stroke-linecap="round"/>
</g>
<defs>
<filter id="filter0_f_715_2626" x="4.99976" y="9" width="10" height="7.00012" filterUnits="userSpaceOnUse" color-interpolation-filters="sRGB">
<feFlood flood-opacity="0" result="BackgroundImageFix"/>
<feBlend mode="normal" in="SourceGraphic" in2="BackgroundImageFix" result="shape"/>
<feGaussianBlur stdDeviation="0.75" result="effect1_foregroundBlur_715_2626"/>
</filter>
<filter id="filter1_f_715_2626" x="15.9995" y="9" width="10.0005" height="7.00024" filterUnits="userSpaceOnUse" color-interpolation-filters="sRGB">
<feFlood flood-opacity="0" result="BackgroundImageFix"/>
<feBlend mode="normal" in="SourceGraphic" in2="BackgroundImageFix" result="shape"/>
<feGaussianBlur stdDeviation="0.75" result="effect1_foregroundBlur_715_2626"/>
</filter>
<filter id="filter2_f_715_2626" x="6.37476" y="8.875" width="8.75" height="5.75" filterUnits="userSpaceOnUse" color-interpolation-filters="sRGB">
<feFlood flood-opacity="0" result="BackgroundImageFix"/>
<feBlend mode="normal" in="SourceGraphic" in2="BackgroundImageFix" result="shape"/>
<feGaussianBlur stdDeviation="0.75" result="effect1_foregroundBlur_715_2626"/>
</filter>
<filter id="filter3_f_715_2626" x="17.3748" y="8.875" width="8.75" height="5.75" filterUnits="userSpaceOnUse" color-interpolation-filters="sRGB">
<feFlood flood-opacity="0" result="BackgroundImageFix"/>
<feBlend mode="normal" in="SourceGraphic" in2="BackgroundImageFix" result="shape"/>
<feGaussianBlur stdDeviation="0.75" result="effect1_foregroundBlur_715_2626"/>
</filter>
<radialGradient id="paint0_radial_715_2626" cx="0" cy="0" r="1" gradientUnits="userSpaceOnUse" gradientTransform="translate(25.4998 9) rotate(131.878) scale(38.9487)">
<stop stop-color="#FFF478"/>
<stop offset="0.474827" stop-color="#FFB02E"/>
<stop offset="1" stop-color="#F70A8D"/>
</radialGradient>
<radialGradient id="paint1_radial_715_2626" cx="0" cy="0" r="1" gradientUnits="userSpaceOnUse" gradientTransform="translate(15.9998 12.5) rotate(101.31) scale(17.8466 22.8581)">
<stop offset="0.787821" stop-color="#F59639" stop-opacity="0"/>
<stop offset="0.972509" stop-color="#FF7DCE"/>
</radialGradient>
<radialGradient id="paint2_radial_715_2626" cx="0" cy="0" r="1" gradientUnits="userSpaceOnUse" gradientTransform="translate(17.9998 14) rotate(135) scale(41.0122)">
<stop offset="0.314853" stop-opacity="0"/>
<stop offset="1"/>
</radialGradient>
<radialGradient id="paint3_radial_715_2626" cx="0" cy="0" r="1" gradientUnits="userSpaceOnUse" gradientTransform="translate(15.9998 17) rotate(77.692) scale(28.1469)">
<stop offset="0.507903" stop-color="#7D6133" stop-opacity="0"/>
<stop offset="1" stop-color="#715B32"/>
</radialGradient>
<radialGradient id="paint4_radial_715_2626" cx="0" cy="0" r="1" gradientUnits="userSpaceOnUse" gradientTransform="translate(16.4998 16.5) rotate(55.7131) scale(13.3135 9.65032)">
<stop stop-color="#FFB849"/>
<stop offset="1" stop-color="#FFB847" stop-opacity="0"/>
</radialGradient>
<radialGradient id="paint5_radial_715_2626" cx="0" cy="0" r="1" gradientUnits="userSpaceOnUse" gradientTransform="translate(20.4998 18) rotate(9.86581) scale(11.6726)">
<stop stop-color="#FFA64B"/>
<stop offset="0.900412" stop-color="#FFAE46" stop-opacity="0"/>
</radialGradient>
<radialGradient id="paint6_radial_715_2626" cx="0" cy="0" r="1" gradientUnits="userSpaceOnUse" gradientTransform="translate(17.4998 15) rotate(43.9708) scale(59.0529)">
<stop offset="0.185425" stop-opacity="0"/>
<stop offset="1" stop-opacity="0.4"/>
</radialGradient>
<radialGradient id="paint7_radial_715_2626" cx="0" cy="0" r="1" gradientUnits="userSpaceOnUse" gradientTransform="translate(7.50488 16.5012) scale(6.49487)">
<stop stop-color="#F70A8D" stop-opacity="0.59"/>
<stop offset="1" stop-color="#FF6DC6" stop-opacity="0"/>
</radialGradient>
<radialGradient id="paint8_radial_715_2626" cx="0" cy="0" r="1" gradientUnits="userSpaceOnUse" gradientTransform="translate(24.5049 16.5012) scale(6.49487)">
<stop stop-color="#F70A8D" stop-opacity="0.59"/>
<stop offset="1" stop-color="#FF6DC6" stop-opacity="0"/>
</radialGradient>
<linearGradient id="paint9_linear_715_2626" x1="6.83309" y1="10.4" x2="6.83309" y2="8.6" gradientUnits="userSpaceOnUse">
<stop offset="0.0299084" stop-color="#524049"/>
<stop offset="1" stop-color="#4A2C42"/>
</linearGradient>
<linearGradient id="paint10_linear_715_2626" x1="25.1664" y1="10.4" x2="25.1664" y2="8.6" gradientUnits="userSpaceOnUse">
<stop offset="0.0299084" stop-color="#524049"/>
<stop offset="1" stop-color="#4A2C42"/>
</linearGradient>
<radialGradient id="paint11_radial_715_2626" cx="0" cy="0" r="1" gradientUnits="userSpaceOnUse" gradientTransform="translate(17.8734 16.9194) rotate(90) scale(11.4895)">
<stop offset="0.10265" stop-color="#482641"/>
<stop offset="0.298574" stop-color="#503A4A"/>
<stop offset="0.555606" stop-color="#483637"/>
</radialGradient>
<clipPath id="clip0_715_2626">
<rect width="32" height="32" fill="white"/>
</clipPath>
</defs>
</svg>
