<svg width="146" height="121" viewBox="0 0 146 121" fill="none" xmlns="http://www.w3.org/2000/svg">
<rect x="12.5635" width="120" height="120" rx="60" fill="#E8F6F7"/>
<path d="M49.0247 42L72.5635 57L96.1022 42H49.0247ZM49.4867 82.5C47.9952 82.5 46.7185 81.969 45.6565 80.907C44.5945 79.845 44.0635 78.5683 44.0635 77.0768V42.9233C44.0635 41.4317 44.5945 40.155 45.6565 39.093C46.7185 38.031 47.9952 37.5 49.4867 37.5H95.6402C97.1317 37.5 98.4085 38.031 99.4705 39.093C100.532 40.155 101.063 41.4317 101.063 42.9233V58.7888C101.063 59.4263 100.848 59.9605 100.416 60.3915C99.9847 60.823 99.4502 61.0388 98.8127 61.0388C98.1747 61.0388 97.6405 60.823 97.21 60.3915C96.779 59.9605 96.5635 59.4263 96.5635 58.7888V46.3268L74.023 60.756C73.854 60.875 73.3675 61.0153 72.5635 61.1768C72.3135 61.1768 72.0655 61.144 71.8195 61.0785C71.573 61.0135 71.3345 60.906 71.104 60.756L48.5635 46.3268V77.0768C48.5635 77.3463 48.65 77.5675 48.823 77.7405C48.996 77.9135 49.2172 78 49.4867 78H65.4385C66.076 78 66.6102 78.2158 67.0412 78.6473C67.4727 79.0788 67.6885 79.6133 67.6885 80.2508C67.6885 80.8888 67.4727 81.423 67.0412 81.8535C66.6102 82.2845 66.076 82.5 65.4385 82.5H49.4867ZM83.7212 82.581L99.148 67.1543C99.5635 66.7388 100.086 66.5263 100.715 66.5168C101.343 66.5068 101.875 66.7193 102.309 67.1543C102.744 67.5888 102.962 68.1155 102.962 68.7345C102.962 69.354 102.744 69.881 102.309 70.3155L85.6195 87.006C85.077 87.548 84.4442 87.819 83.7212 87.819C82.9982 87.819 82.3655 87.548 81.823 87.006L73.5902 78.7733C73.1747 78.3577 72.9622 77.8355 72.9527 77.2065C72.9432 76.578 73.1557 76.0462 73.5902 75.6113C74.0247 75.1768 74.5517 74.9595 75.1712 74.9595C75.7902 74.9595 76.317 75.1768 76.7515 75.6113L83.7212 82.581Z" fill="url(#paint0_linear_1133_3229)"/>
<path d="M133.562 6L129.452 4.11L127.562 0L125.672 4.11L121.562 6L125.672 7.89L127.562 12L129.452 7.89L133.562 6Z" fill="#1DA4B1"/>
<path d="M12.4385 62L8.32847 60.11L6.43847 56L4.54848 60.11L0.438477 62L4.54848 63.89L6.43847 68L8.32847 63.89L12.4385 62Z" fill="#1DA4B1"/>
<path d="M115.562 53L113.507 52.055L112.562 50L111.617 52.055L109.562 53L111.617 53.945L112.562 56L113.507 53.945L115.562 53Z" fill="#1DA4B1"/>
<path d="M50.5615 5L48.5065 4.055L47.5615 2L46.6165 4.055L44.5615 5L46.6165 5.945L47.5615 8L48.5065 5.945L50.5615 5Z" fill="#1DA4B1"/>
<path d="M106.562 101L104.507 100.055L103.562 98L102.617 100.055L100.562 101L102.617 101.945L103.562 104L104.507 101.945L106.562 101Z" fill="#1DA4B1"/>
<path d="M145.562 118L143.507 117.055L142.562 115L141.617 117.055L139.562 118L141.617 118.945L142.562 121L143.507 118.945L145.562 118Z" fill="#1DA4B1"/>
<defs>
<linearGradient id="paint0_linear_1133_3229" x1="44.0635" y1="37.5" x2="93.7653" y2="95.6758" gradientUnits="userSpaceOnUse">
<stop stop-color="#1DA4B1"/>
<stop offset="0.500092" stop-color="#3AA6CC"/>
<stop offset="1" stop-color="#44D8E8"/>
</linearGradient>
</defs>
</svg>
