<svg width="146" height="121" viewBox="0 0 146 121" fill="none" xmlns="http://www.w3.org/2000/svg">
<rect x="12.5596" width="120" height="120" rx="60" fill="#E8F6F7"/>
<path d="M72.5596 75C73.4096 75 74.1221 74.7125 74.6971 74.1375C75.2721 73.5625 75.5596 72.85 75.5596 72C75.5596 71.15 75.2721 70.4375 74.6971 69.8625C74.1221 69.2875 73.4096 69 72.5596 69C71.7096 69 70.9971 69.2875 70.4221 69.8625C69.8471 70.4375 69.5596 71.15 69.5596 72C69.5596 72.85 69.8471 73.5625 70.4221 74.1375C70.9971 74.7125 71.7096 75 72.5596 75ZM72.5596 63C73.4096 63 74.1221 62.7125 74.6971 62.1375C75.2721 61.5625 75.5596 60.85 75.5596 60V48C75.5596 47.15 75.2721 46.4375 74.6971 45.8625C74.1221 45.2875 73.4096 45 72.5596 45C71.7096 45 70.9971 45.2875 70.4221 45.8625C69.8471 46.4375 69.5596 47.15 69.5596 48V60C69.5596 60.85 69.8471 61.5625 70.4221 62.1375C70.9971 62.7125 71.7096 63 72.5596 63ZM72.5596 90C68.4096 90 64.5096 89.2125 60.8596 87.6375C57.2096 86.0625 54.0346 83.925 51.3346 81.225C48.6346 78.525 46.4971 75.35 44.9221 71.7C43.3471 68.05 42.5596 64.15 42.5596 60C42.5596 55.85 43.3471 51.95 44.9221 48.3C46.4971 44.65 48.6346 41.475 51.3346 38.775C54.0346 36.075 57.2096 33.9375 60.8596 32.3625C64.5096 30.7875 68.4096 30 72.5596 30C76.7096 30 80.6096 30.7875 84.2596 32.3625C87.9096 33.9375 91.0846 36.075 93.7846 38.775C96.4846 41.475 98.6221 44.65 100.197 48.3C101.772 51.95 102.56 55.85 102.56 60C102.56 64.15 101.772 68.05 100.197 71.7C98.6221 75.35 96.4846 78.525 93.7846 81.225C91.0846 83.925 87.9096 86.0625 84.2596 87.6375C80.6096 89.2125 76.7096 90 72.5596 90ZM72.5596 84C79.2596 84 84.9346 81.675 89.5846 77.025C94.2346 72.375 96.5596 66.7 96.5596 60C96.5596 53.3 94.2346 47.625 89.5846 42.975C84.9346 38.325 79.2596 36 72.5596 36C65.8596 36 60.1846 38.325 55.5346 42.975C50.8846 47.625 48.5596 53.3 48.5596 60C48.5596 66.7 50.8846 72.375 55.5346 77.025C60.1846 81.675 65.8596 84 72.5596 84Z" fill="url(#paint0_linear_868_4612)"/>
<path d="M133.562 6L129.452 4.11L127.562 0L125.672 4.11L121.562 6L125.672 7.89L127.562 12L129.452 7.89L133.562 6Z" fill="#1DA4B1"/>
<path d="M12.4385 62L8.32847 60.11L6.43847 56L4.54848 60.11L0.438477 62L4.54848 63.89L6.43847 68L8.32847 63.89L12.4385 62Z" fill="#1DA4B1"/>
<path d="M115.562 53L113.507 52.055L112.562 50L111.617 52.055L109.562 53L111.617 53.945L112.562 56L113.507 53.945L115.562 53Z" fill="#1DA4B1"/>
<path d="M50.5615 5L48.5065 4.055L47.5615 2L46.6165 4.055L44.5615 5L46.6165 5.945L47.5615 8L48.5065 5.945L50.5615 5Z" fill="#1DA4B1"/>
<path d="M106.562 101L104.507 100.055L103.562 98L102.617 100.055L100.562 101L102.617 101.945L103.562 104L104.507 101.945L106.562 101Z" fill="#1DA4B1"/>
<path d="M145.562 118L143.507 117.055L142.562 115L141.617 117.055L139.562 118L141.617 118.945L142.562 121L143.507 118.945L145.562 118Z" fill="#1DA4B1"/>
<defs>
<linearGradient id="paint0_linear_868_4612" x1="42.5596" y1="30" x2="102.56" y2="90" gradientUnits="userSpaceOnUse">
<stop stop-color="#1DA4B1"/>
<stop offset="0.500092" stop-color="#3AA6CC"/>
<stop offset="1" stop-color="#44D8E8"/>
</linearGradient>
</defs>
</svg>
