<svg width="112" height="112" viewBox="0 0 112 112" fill="none" xmlns="http://www.w3.org/2000/svg">
<path d="M55.9932 23.3326C61.1266 23.3326 65.3266 27.5326 65.3266 32.666C65.3266 37.7993 61.1266 41.9993 55.9932 41.9993C50.8599 41.9993 46.6598 37.7993 46.6598 32.666C46.6598 27.5326 50.8599 23.3326 55.9932 23.3326ZM55.9932 13.9992C45.6798 13.9992 37.3265 22.3526 37.3265 32.666C37.3265 42.9794 45.6798 51.3327 55.9932 51.3327C66.3066 51.3327 74.66 42.9794 74.66 32.666C74.66 22.3526 66.3066 13.9992 55.9932 13.9992Z" fill="white"/>
<path fill-rule="evenodd" clip-rule="evenodd" d="M18.6597 79.3329C18.6597 69.0235 27.0171 60.6661 37.3265 60.6661H74.66C84.9694 60.6661 93.3268 69.0235 93.3268 79.3329V93.333C93.3268 95.9103 91.2374 97.9997 88.6601 97.9997C86.0828 97.9997 83.9934 95.9103 83.9934 93.333V79.3329C83.9934 74.1782 79.8147 69.9995 74.66 69.9995H37.3265C32.1718 69.9995 27.9931 74.1782 27.9931 79.3329V93.333C27.9931 95.9103 25.9037 97.9997 23.3264 97.9997C20.749 97.9997 18.6597 95.9103 18.6597 93.333V79.3329Z" fill="white"/>
</svg>
