<svg width="146" height="121" viewBox="0 0 146 121" fill="none" xmlns="http://www.w3.org/2000/svg">
<rect x="12.5596" width="120" height="120" rx="60" fill="#E8F6F7"/>
<path d="M48.5324 81.9236C47.2669 81.9236 46.1909 81.4804 45.3044 80.5939C44.4179 79.7069 43.9746 78.6309 43.9746 77.3659V75.2539C43.9746 73.6619 44.3756 72.2706 45.1776 71.0802C45.9791 69.8897 47.0434 68.9579 48.3704 68.2849C50.9204 66.9849 53.6126 65.9332 56.4471 65.1297C59.2821 64.3257 62.6246 63.9236 66.4746 63.9236C66.9321 63.9236 67.4254 63.9314 67.9544 63.9469C68.4829 63.9619 68.9761 64.0041 69.4341 64.0736C70.0226 64.1542 70.5169 64.4426 70.9169 64.9391C71.3169 65.4352 71.4764 65.9806 71.3954 66.5757C71.3149 67.0962 71.0821 67.5486 70.6971 67.9331C70.3126 68.3176 69.7916 68.5004 69.1341 68.4814C68.7956 68.4619 68.3811 68.4474 67.8906 68.4379C67.4001 68.4284 66.9281 68.4236 66.4746 68.4236C62.9246 68.4236 59.8139 68.8196 57.1424 69.6116C54.4714 70.4041 52.2359 71.3004 50.4359 72.3004C49.7549 72.6659 49.2579 73.0929 48.9449 73.5814C48.6314 74.0699 48.4746 74.6274 48.4746 75.2539V77.4236H69.1281C69.7656 77.4236 70.3001 77.6394 70.7316 78.0709C71.1626 78.5019 71.3781 79.0364 71.3781 79.6744C71.3781 80.3124 71.1626 80.8466 70.7316 81.2771C70.3001 81.7081 69.7656 81.9236 69.1281 81.9236H48.5324ZM82.8359 77.8392L96.4049 64.2694C96.8204 63.8544 97.3426 63.6419 97.9716 63.6319C98.6001 63.6224 99.1319 63.8349 99.5669 64.2694C100.001 64.7044 100.219 65.2314 100.219 65.8504C100.219 66.4694 100.001 66.9964 99.5669 67.4314L84.7341 82.2642C84.1916 82.8062 83.5589 83.0771 82.8359 83.0771C82.1129 83.0771 81.4801 82.8062 80.9376 82.2642L75.1049 76.4314C74.6899 76.0159 74.4774 75.4936 74.4674 74.8647C74.4579 74.2361 74.6704 73.7044 75.1049 73.2694C75.5399 72.8349 76.0669 72.6176 76.6859 72.6176C77.3049 72.6176 77.8319 72.8349 78.2669 73.2694L82.8359 77.8392ZM66.4746 59.0771C63.5871 59.0771 61.1151 58.0492 59.0586 55.9931C57.0026 53.9366 55.9746 51.4646 55.9746 48.5771C55.9746 45.6896 57.0026 43.2179 59.0586 41.1619C61.1151 39.1054 63.5871 38.0771 66.4746 38.0771C69.3621 38.0771 71.8339 39.1054 73.8899 41.1619C75.9459 43.2179 76.9739 45.6896 76.9739 48.5771C76.9739 51.4646 75.9459 53.9366 73.8899 55.9931C71.8339 58.0492 69.3621 59.0771 66.4746 59.0771ZM66.4746 54.5771C68.1246 54.5771 69.5371 53.9896 70.7121 52.8146C71.8871 51.6396 72.4746 50.2271 72.4746 48.5771C72.4746 46.9271 71.8871 45.5146 70.7121 44.3396C69.5371 43.1646 68.1246 42.5771 66.4746 42.5771C64.8246 42.5771 63.4121 43.1646 62.2371 44.3396C61.0621 45.5146 60.4746 46.9271 60.4746 48.5771C60.4746 50.2271 61.0621 51.6396 62.2371 52.8146C63.4121 53.9896 64.8246 54.5771 66.4746 54.5771Z" fill="url(#paint0_linear_868_4542)"/>
<path d="M133.562 6L129.452 4.11L127.562 0L125.672 4.11L121.562 6L125.672 7.89L127.562 12L129.452 7.89L133.562 6Z" fill="#1DA4B1"/>
<path d="M12.4385 62L8.32847 60.11L6.43847 56L4.54848 60.11L0.438477 62L4.54848 63.89L6.43847 68L8.32847 63.89L12.4385 62Z" fill="#1DA4B1"/>
<path d="M115.562 53L113.507 52.055L112.562 50L111.617 52.055L109.562 53L111.617 53.945L112.562 56L113.507 53.945L115.562 53Z" fill="#1DA4B1"/>
<path d="M50.5615 5L48.5065 4.055L47.5615 2L46.6165 4.055L44.5615 5L46.6165 5.945L47.5615 8L48.5065 5.945L50.5615 5Z" fill="#1DA4B1"/>
<path d="M106.562 101L104.507 100.055L103.562 98L102.617 100.055L100.562 101L102.617 101.945L103.562 104L104.507 101.945L106.562 101Z" fill="#1DA4B1"/>
<path d="M145.562 118L143.507 117.055L142.562 115L141.617 117.055L139.562 118L141.617 118.945L142.562 121L143.507 118.945L145.562 118Z" fill="#1DA4B1"/>
<defs>
<linearGradient id="paint0_linear_868_4542" x1="43.9746" y1="38.0771" x2="87.8781" y2="92.9506" gradientUnits="userSpaceOnUse">
<stop stop-color="#1DA4B1"/>
<stop offset="0.500092" stop-color="#3AA6CC"/>
<stop offset="1" stop-color="#44D8E8"/>
</linearGradient>
</defs>
</svg>
