<svg width="24" height="24" viewBox="0 0 24 24" fill="none" xmlns="http://www.w3.org/2000/svg">
<g id="playlist_add_check">
<path id="Vector" d="M4 16C3.71667 16 3.47917 15.9042 3.2875 15.7125C3.09583 15.5208 3 15.2833 3 15C3 14.7167 3.09583 14.4792 3.2875 14.2875C3.47917 14.0958 3.71667 14 4 14H10C10.2833 14 10.5208 14.0958 10.7125 14.2875C10.9042 14.4792 11 14.7167 11 15C11 15.2833 10.9042 15.5208 10.7125 15.7125C10.5208 15.9042 10.2833 16 10 16H4ZM4 12C3.71667 12 3.47917 11.9042 3.2875 11.7125C3.09583 11.5208 3 11.2833 3 11C3 10.7167 3.09583 10.4792 3.2875 10.2875C3.47917 10.0958 3.71667 10 4 10H14C14.2833 10 14.5208 10.0958 14.7125 10.2875C14.9042 10.4792 15 10.7167 15 11C15 11.2833 14.9042 11.5208 14.7125 11.7125C14.5208 11.9042 14.2833 12 14 12H4ZM4 8C3.71667 8 3.47917 7.90417 3.2875 7.7125C3.09583 7.52083 3 7.28333 3 7C3 6.71667 3.09583 6.47917 3.2875 6.2875C3.47917 6.09583 3.71667 6 4 6H14C14.2833 6 14.5208 6.09583 14.7125 6.2875C14.9042 6.47917 15 6.71667 15 7C15 7.28333 14.9042 7.52083 14.7125 7.7125C14.5208 7.90417 14.2833 8 14 8H4ZM16.35 18.575C16.2167 18.575 16.0917 18.5542 15.975 18.5125C15.8583 18.4708 15.75 18.4 15.65 18.3L13.5 16.15C13.3167 15.9667 13.2208 15.7375 13.2125 15.4625C13.2042 15.1875 13.3 14.95 13.5 14.75C13.6833 14.5667 13.9125 14.4708 14.1875 14.4625C14.4625 14.4542 14.7 14.5417 14.9 14.725L16.35 16.15L19.875 12.625C20.075 12.425 20.3125 12.3292 20.5875 12.3375C20.8625 12.3458 21.1 12.45 21.3 12.65C21.4833 12.85 21.5792 13.0833 21.5875 13.35C21.5958 13.6167 21.5 13.85 21.3 14.05L17.05 18.3C16.95 18.4 16.8417 18.4708 16.725 18.5125C16.6083 18.5542 16.4833 18.575 16.35 18.575Z" fill="#1DA4B1"/>
</g>
</svg>
