<svg width="24" height="24" viewBox="0 0 24 24" fill="none" xmlns="http://www.w3.org/2000/svg">
<g id="planner_banner">
<path id="Vector" d="M6 22C5.45 22 4.97917 21.8042 4.5875 21.4125C4.19583 21.0208 4 20.55 4 20V4C4 3.45 4.19583 2.97917 4.5875 2.5875C4.97917 2.19583 5.45 2 6 2H18C18.55 2 19.0208 2.19583 19.4125 2.5875C19.8042 2.97917 20 3.45 20 4V20C20 20.55 19.8042 21.0208 19.4125 21.4125C19.0208 21.8042 18.55 22 18 22H6ZM6 20H18V4H6V20ZM11.25 16.5L10.1 15C10 14.8667 9.86667 14.8 9.7 14.8C9.53333 14.8 9.4 14.8667 9.3 15L7.625 17.2C7.49167 17.3667 7.47083 17.5417 7.5625 17.725C7.65417 17.9083 7.80833 18 8.025 18H15.975C16.1917 18 16.3458 17.9083 16.4375 17.725C16.5292 17.5417 16.5083 17.3667 16.375 17.2L13.95 14.025C13.85 13.8917 13.7167 13.825 13.55 13.825C13.3833 13.825 13.25 13.8917 13.15 14.025L11.25 16.5Z" fill="#1DA4B1"/>
</g>
</svg>
