<svg width="24" height="24" viewBox="0 0 24 24" fill="none" xmlns="http://www.w3.org/2000/svg">
<g id="skillet">
<path id="Vector" d="M3.725 7C3.29167 6.48333 2.97917 5.99167 2.7875 5.525C2.59583 5.05833 2.49167 4.55 2.475 4C2.475 3.71667 2.57917 3.47917 2.7875 3.2875C2.99583 3.09583 3.24167 3 3.525 3C3.775 3 3.97917 3.1 4.1375 3.3C4.29583 3.5 4.375 3.73333 4.375 4C4.375 4.33333 4.43333 4.64167 4.55 4.925C4.66667 5.20833 4.86667 5.51667 5.15 5.85C5.65 6.45 6.00417 6.9875 6.2125 7.4625C6.42083 7.9375 6.51667 8.45 6.5 9C6.48333 9.28333 6.36667 9.52083 6.15 9.7125C5.93333 9.90417 5.68333 10 5.4 10C5.16667 10 4.97917 9.9 4.8375 9.7C4.69583 9.5 4.625 9.275 4.625 9.025C4.625 8.64167 4.54583 8.29167 4.3875 7.975C4.22917 7.65833 4.00833 7.33333 3.725 7ZM7.75 7C7.31667 6.48333 7 5.99167 6.8 5.525C6.6 5.05833 6.49167 4.55 6.475 4C6.475 3.71667 6.57917 3.47917 6.7875 3.2875C6.99583 3.09583 7.24167 3 7.525 3C7.775 3 7.97917 3.1 8.1375 3.3C8.29583 3.5 8.375 3.73333 8.375 4C8.375 4.33333 8.43333 4.64167 8.55 4.925C8.66667 5.20833 8.86667 5.51667 9.15 5.85C9.65 6.45 10.0042 6.9875 10.2125 7.4625C10.4208 7.9375 10.5167 8.45 10.5 9C10.4833 9.28333 10.3667 9.52083 10.15 9.7125C9.93333 9.90417 9.68333 10 9.4 10C9.16667 10 8.97917 9.9 8.8375 9.7C8.69583 9.5 8.625 9.275 8.625 9.025C8.64167 8.64167 8.57083 8.29167 8.4125 7.975C8.25417 7.65833 8.03333 7.33333 7.75 7ZM11.75 7C11.3167 6.48333 11 5.99167 10.8 5.525C10.6 5.05833 10.4917 4.55 10.475 4C10.475 3.71667 10.5792 3.47917 10.7875 3.2875C10.9958 3.09583 11.2417 3 11.525 3C11.775 3 11.9792 3.1 12.1375 3.3C12.2958 3.5 12.375 3.73333 12.375 4C12.375 4.33333 12.4333 4.64167 12.55 4.925C12.6667 5.20833 12.8667 5.51667 13.15 5.85C13.65 6.45 14.0042 6.9875 14.2125 7.4625C14.4208 7.9375 14.5167 8.45 14.5 9C14.4833 9.28333 14.3667 9.52083 14.15 9.7125C13.9333 9.90417 13.6833 10 13.4 10C13.1667 10 12.9792 9.9 12.8375 9.7C12.6958 9.5 12.625 9.275 12.625 9.025C12.6417 8.64167 12.5708 8.29167 12.4125 7.975C12.2542 7.65833 12.0333 7.33333 11.75 7ZM5 20C4.16667 20 3.45833 19.7083 2.875 19.125C2.29167 18.5417 2 17.8333 2 17V13C2 12.7167 2.09583 12.4792 2.2875 12.2875C2.47917 12.0958 2.71667 12 3 12H16.025C16.1083 11.4333 16.3333 10.9375 16.7 10.5125C17.0667 10.0875 17.5167 9.78333 18.05 9.6L21.725 8.375C21.9917 8.29167 22.25 8.30833 22.5 8.425C22.75 8.54167 22.9167 8.73333 23 9C23.0833 9.26667 23.0625 9.525 22.9375 9.775C22.8125 10.025 22.6167 10.1917 22.35 10.275L18.675 11.5C18.475 11.5667 18.3125 11.6875 18.1875 11.8625C18.0625 12.0375 18 12.2333 18 12.45V17C18 17.8333 17.7083 18.5417 17.125 19.125C16.5417 19.7083 15.8333 20 15 20H5ZM5 18H15C15.2833 18 15.5208 17.9042 15.7125 17.7125C15.9042 17.5208 16 17.2833 16 17V14H4V17C4 17.2833 4.09583 17.5208 4.2875 17.7125C4.47917 17.9042 4.71667 18 5 18Z" fill="#1DA4B1"/>
</g>
</svg>
