<svg width="40" height="40" viewBox="0 0 40 40" fill="none" xmlns="http://www.w3.org/2000/svg">
<g id="Star">
<path id="Vector" d="M20.0017 30.4578L13.085 34.6245C12.7794 34.819 12.46 34.9023 12.1267 34.8745C11.7933 34.8467 11.5017 34.7356 11.2517 34.5412C11.0017 34.3467 10.8072 34.1037 10.6683 33.812C10.5294 33.5203 10.5017 33.194 10.585 32.8328L12.4183 24.9578L6.29332 19.6662C6.01554 19.4162 5.84193 19.1315 5.77249 18.812C5.70304 18.4926 5.72387 18.1801 5.83499 17.8745C5.9461 17.569 6.11276 17.319 6.33499 17.1245C6.55721 16.9301 6.86276 16.8051 7.25165 16.7495L15.335 16.0412L18.46 8.62451C18.5989 8.29118 18.8142 8.04118 19.1058 7.87451C19.3975 7.70785 19.6961 7.62451 20.0017 7.62451C20.3072 7.62451 20.6058 7.70785 20.8975 7.87451C21.1892 8.04118 21.4044 8.29118 21.5433 8.62451L24.6683 16.0412L32.7517 16.7495C33.1405 16.8051 33.4461 16.9301 33.6683 17.1245C33.8905 17.319 34.0572 17.569 34.1683 17.8745C34.2794 18.1801 34.3003 18.4926 34.2308 18.812C34.1614 19.1315 33.9878 19.4162 33.71 19.6662L27.585 24.9578L29.4183 32.8328C29.5017 33.194 29.4739 33.5203 29.335 33.812C29.1961 34.1037 29.0017 34.3467 28.7517 34.5412C28.5017 34.7356 28.21 34.8467 27.8767 34.8745C27.5433 34.9023 27.2239 34.819 26.9183 34.6245L20.0017 30.4578Z" fill="#F9B10C"/>
</g>
</svg>
