<svg width="80" height="80" viewBox="0 0 80 80" fill="none" xmlns="http://www.w3.org/2000/svg">
<g id="emoji_food_beverage 2">
<path id="Vector" d="M16.6667 70C15.7222 70 14.9306 69.6806 14.2917 69.0417C13.6528 68.4028 13.3333 67.6111 13.3333 66.6667C13.3333 65.7222 13.6528 64.9306 14.2917 64.2917C14.9306 63.6528 15.7222 63.3333 16.6667 63.3333H63.3333C64.2778 63.3333 65.0695 63.6528 65.7083 64.2917C66.3472 64.9306 66.6667 65.7222 66.6667 66.6667C66.6667 67.6111 66.3472 68.4028 65.7083 69.0417C65.0695 69.6806 64.2778 70 63.3333 70H16.6667ZM26.6667 56.6667C23 56.6667 19.8611 55.3611 17.25 52.75C14.6389 50.1389 13.3333 47 13.3333 43.3333V17.4167C13.3333 15.3611 14.0556 13.6111 15.5 12.1667C16.9444 10.7222 18.6944 10 20.75 10H66.6667C68.5 10 70.0695 10.6528 71.375 11.9583C72.6806 13.2639 73.3333 14.8333 73.3333 16.6667V26.6667C73.3333 28.5 72.6806 30.0694 71.375 31.375C70.0695 32.6806 68.5 33.3333 66.6667 33.3333H60V43.3333C60 47 58.6944 50.1389 56.0833 52.75C53.4722 55.3611 50.3333 56.6667 46.6667 56.6667H26.6667ZM26.6667 16.6667H53.3333H20H26.6667ZM60 26.6667H66.6667V16.6667H60V26.6667ZM46.6667 50C48.5 50 50.0694 49.3472 51.375 48.0417C52.6806 46.7361 53.3333 45.1667 53.3333 43.3333V16.6667H33.3333V18L39.3333 22.8333C39.4444 22.9444 39.6667 23.3889 40 24.1667V38.3333C40 38.7778 39.8333 39.1667 39.5 39.5C39.1667 39.8333 38.7778 40 38.3333 40H25C24.5556 40 24.1667 39.8333 23.8333 39.5C23.5 39.1667 23.3333 38.7778 23.3333 38.3333V24.1667C23.3333 24.0556 23.5556 23.6111 24 22.8333L30 18V16.6667H20V43.3333C20 45.1667 20.6528 46.7361 21.9583 48.0417C23.2639 49.3472 24.8333 50 26.6667 50H46.6667Z" fill="#1DA4B1"/>
</g>
</svg>
