<svg width="80" height="80" viewBox="0 0 80 80" fill="none" xmlns="http://www.w3.org/2000/svg">
<g id="restaurant 2">
<path id="Vector" d="M23.3334 29.9998V9.99984C23.3334 9.05539 23.6528 8.26373 24.2917 7.62484C24.9306 6.98595 25.7223 6.6665 26.6667 6.6665C27.6112 6.6665 28.4028 6.98595 29.0417 7.62484C29.6806 8.26373 30 9.05539 30 9.99984V29.9998H33.3334V9.99984C33.3334 9.05539 33.6528 8.26373 34.2917 7.62484C34.9306 6.98595 35.7223 6.6665 36.6667 6.6665C37.6112 6.6665 38.4028 6.98595 39.0417 7.62484C39.6806 8.26373 40 9.05539 40 9.99984V29.9998C40 33.1109 39.0417 35.8332 37.125 38.1665C35.2084 40.4998 32.8334 42.0554 30 42.8332V69.9998C30 70.9443 29.6806 71.7359 29.0417 72.3748C28.4028 73.0137 27.6112 73.3332 26.6667 73.3332C25.7223 73.3332 24.9306 73.0137 24.2917 72.3748C23.6528 71.7359 23.3334 70.9443 23.3334 69.9998V42.8332C20.5 42.0554 18.125 40.4998 16.2084 38.1665C14.2917 35.8332 13.3334 33.1109 13.3334 29.9998V9.99984C13.3334 9.05539 13.6528 8.26373 14.2917 7.62484C14.9306 6.98595 15.7223 6.6665 16.6667 6.6665C17.6112 6.6665 18.4028 6.98595 19.0417 7.62484C19.6806 8.26373 20 9.05539 20 9.99984V29.9998H23.3334ZM56.6667 46.6665H50C49.0556 46.6665 48.2639 46.3471 47.625 45.7082C46.9862 45.0693 46.6667 44.2776 46.6667 43.3332V23.3332C46.6667 19.4443 48.0973 15.6943 50.9584 12.0832C53.8195 8.47206 56.7778 6.6665 59.8334 6.6665C60.8334 6.6665 61.6667 7.05539 62.3334 7.83317C63 8.61095 63.3334 9.52761 63.3334 10.5832V69.9998C63.3334 70.9443 63.0139 71.7359 62.375 72.3748C61.7362 73.0137 60.9445 73.3332 60 73.3332C59.0556 73.3332 58.2639 73.0137 57.625 72.3748C56.9862 71.7359 56.6667 70.9443 56.6667 69.9998V46.6665Z" fill="#1DA4B1"/>
</g>
</svg>
