<svg width="61" height="32" viewBox="0 0 61 32" fill="none" xmlns="http://www.w3.org/2000/svg">
<g id="Uell">
<path id="Vector" fill-rule="evenodd" clip-rule="evenodd" d="M55.0314 5.02381C56.6528 5.02381 56.2399 13.1323 51.366 20.1891C51.366 15.2401 53.4884 5.02381 55.0314 5.02381ZM44.8999 5.02381C46.5213 5.02381 46.1081 13.1323 41.2342 20.1891C41.2342 15.2401 43.3566 5.02381 44.8999 5.02381ZM30.1283 21.4369C30.2503 20.3984 30.6543 19.7227 31.3407 19.4109C31.6745 19.259 31.9858 19.249 32.2744 19.3807C32.563 19.5126 32.785 19.7605 32.9402 20.1241C33.2421 20.833 33.1919 21.5991 32.7903 22.4218C32.3883 23.2453 31.9075 23.812 30.7173 24.805C30.2035 23.6006 30.0068 22.4757 30.1283 21.4369ZM56.7601 25.228C56.543 25.228 56.3263 25.3302 56.1095 25.5336C55.7548 25.8594 55.3651 26.1243 54.9412 26.328C54.5171 26.5314 54.1378 26.6331 53.803 26.6331C53.1916 26.6331 52.7086 26.4499 52.354 26.0833C51.999 25.717 51.7522 25.1163 51.6146 24.2814C53.8422 21.1661 58.7401 13.0946 58.7401 7.25354C58.7401 5.56359 58.469 4.26531 57.9268 3.35924C57.3843 2.45371 56.6405 2 55.6942 2C54.0182 2 52.5744 3.14075 51.362 5.4209C50.1496 7.70132 49.3055 10.1285 48.6846 13.3047C48.0635 16.4812 47.7702 18.7433 47.7702 21.2271C47.7702 22.2597 47.8413 23.2113 47.9771 24.0888C46.4701 25.4953 44.8437 26.6331 43.6595 26.6331C43.0481 26.6331 42.5654 26.4499 42.2105 26.0833C41.8555 25.717 41.6087 25.1166 41.4711 24.2814C43.6987 21.1664 48.5966 13.1199 48.5966 7.25354C48.5966 5.56359 48.3253 4.26531 47.7833 3.35924C47.2408 2.45371 46.497 2.00027 45.5507 2.00027C43.8747 2.00027 42.4309 3.14075 41.2183 5.4209C40.0061 7.70132 39.162 10.1285 38.5409 13.3047C37.9201 16.4812 37.6268 18.7433 37.6268 21.2271C37.6268 22.329 37.709 23.337 37.8642 24.262C35.4636 26.4518 33.1984 27.5216 32.4313 26.8025C34.316 25.1864 35.3022 23.835 35.8165 22.4695C36.33 21.1038 36.3052 19.7602 35.7418 18.4385C35.2602 17.3085 34.5537 16.5608 33.6231 16.195C32.692 15.8293 31.6888 15.891 30.6135 16.3801C29.4074 16.9285 28.4703 17.7547 27.8006 18.8593C27.1315 19.9644 26.7708 21.209 26.7188 22.5928C26.6744 23.7754 26.8034 25.1201 27.1923 26.3112C26.9815 26.3471 26.8055 26.3655 26.6793 26.3655C26.0679 26.3655 25.58 26.147 25.2154 25.7089C24.8503 25.2714 24.6685 24.6351 24.6685 23.7999C24.6685 23.23 24.7471 22.3544 24.9049 21.1734C25.2201 18.5674 26.6248 9.7306 26.7533 8.83451C26.8812 7.93896 26.9455 7.21605 26.9455 6.66604C26.9455 5.70925 26.8358 3.94809 24.9049 3.94809C23.1639 3.94809 23.0184 4.96476 22.7462 6.727C22.1742 11.2474 21.3711 14.9582 20.336 17.8596C19.301 20.761 18.1774 22.8636 16.965 24.1665C15.7526 25.4696 14.5548 26.1211 13.3719 26.1211C12.7216 26.1211 12.2188 25.9277 11.8639 25.5409C11.5089 25.1543 11.3316 24.6351 11.3316 23.9831C11.3316 23.576 11.3611 23.1639 11.4201 22.7463C11.4794 22.329 11.558 21.8864 11.657 21.4175C11.7552 20.9495 11.8242 20.6237 11.8639 20.4403L13.0763 14.8514C13.4111 13.3446 13.648 12.1537 13.7859 11.2781C13.9235 10.4025 13.993 9.44548 13.993 8.40697C13.993 6.94091 13.6529 5.83145 12.9728 5.07805C12.2925 4.32493 11.3509 3.94809 10.1487 3.94809C7.44754 3.94809 5.09195 5.37342 3.08112 8.22354C2.22993 9.46895 2.01132 10.4916 2.56346 11.2932C3.11089 11.9592 3.69385 11.7585 4.20446 11.1252C5.0721 9.92401 5.90005 9.03304 6.68881 8.45282C7.47706 7.8726 8.1671 7.58236 8.75867 7.58236C9.07392 7.58236 9.32543 7.70455 9.51296 7.94894C9.70023 8.19306 9.79373 8.55964 9.79373 9.04842C9.79373 9.90351 9.72008 10.6976 9.57199 11.4305C9.42416 12.1637 7.45773 21.5093 7.45773 21.5093C7.20125 22.7919 7.07327 23.8814 7.07327 24.7769C7.07327 26.3655 7.49691 27.6327 8.3447 28.5795C9.19223 29.5266 10.4443 30 12.1005 30C14.0716 30 15.8116 29.2164 17.3197 27.6481C18.8282 26.0806 20.0746 23.7999 21.0608 20.8068C20.7453 23.0468 20.5876 24.5533 20.5876 25.327C20.5876 26.7118 21.0209 27.8367 21.8885 28.7017C22.7559 29.5673 23.5225 29.9757 25.1593 29.9757C26.6757 29.9757 28.0242 29.6027 29.253 29.0006C30.3612 29.7084 31.8288 30.0995 33.4839 29.9455C35.1709 29.7885 37.0892 28.6955 38.7673 27.2335C38.8209 27.3441 38.8708 27.4582 38.928 27.5645C39.7951 29.1832 41.1652 29.9927 43.0384 29.9927C45.1537 29.9927 47.2215 28.757 48.9173 27.2465C48.9685 27.3525 49.0166 27.4625 49.0714 27.5645C49.9388 29.1832 51.3087 29.9927 53.1819 29.9927C54.4828 29.9927 55.6461 29.5552 56.6713 28.6793C57.2629 28.1709 57.5585 27.4884 57.5585 26.6331C57.5585 26.2465 57.4849 25.9153 57.3368 25.6404C57.1889 25.3655 56.9965 25.228 56.7601 25.228Z" fill="white"/>
</g>
</svg>
