<svg width="32" height="32" viewBox="0 0 32 32" fill="none" xmlns="http://www.w3.org/2000/svg">
<path d="M21.3334 29.3333C19.1112 29.3333 17.2223 28.5555 15.6667 27C14.1112 25.4444 13.3334 23.5555 13.3334 21.3333C13.3334 19.1111 14.1112 17.2222 15.6667 15.6666C17.2223 14.1111 19.1112 13.3333 21.3334 13.3333C23.5556 13.3333 25.4445 14.1111 27.0001 15.6666C28.5556 17.2222 29.3334 19.1111 29.3334 21.3333C29.3334 23.5555 28.5556 25.4444 27.0001 27C25.4445 28.5555 23.5556 29.3333 21.3334 29.3333ZM21.3334 26.6666C22.8001 26.6666 24.0556 26.1444 25.1001 25.1C26.1445 24.0555 26.6667 22.8 26.6667 21.3333C26.6667 19.8666 26.1445 18.6111 25.1001 17.5666C24.0556 16.5222 22.8001 16 21.3334 16C19.8667 16 18.6112 16.5222 17.5667 17.5666C16.5223 18.6111 16.0001 19.8666 16.0001 21.3333C16.0001 22.8 16.5223 24.0555 17.5667 25.1C18.6112 26.1444 19.8667 26.6666 21.3334 26.6666ZM5.33341 26.6666C4.60008 26.6666 3.9723 26.4055 3.45008 25.8833C2.92786 25.3611 2.66675 24.7333 2.66675 24V13.8666C2.66675 13.6888 2.68341 13.5111 2.71675 13.3333C2.75008 13.1555 2.80008 12.9777 2.86675 12.8L5.53341 6.66663H5.33341C4.95564 6.66663 4.63897 6.53885 4.38341 6.28329C4.12786 6.02774 4.00008 5.71107 4.00008 5.33329V3.99996C4.00008 3.62218 4.12786 3.30551 4.38341 3.04996C4.63897 2.7944 4.95564 2.66663 5.33341 2.66663H14.6667C15.0445 2.66663 15.3612 2.7944 15.6167 3.04996C15.8723 3.30551 16.0001 3.62218 16.0001 3.99996V5.33329C16.0001 5.71107 15.8723 6.02774 15.6167 6.28329C15.3612 6.53885 15.0445 6.66663 14.6667 6.66663H14.4667L16.6667 11.7333C16.2445 11.9555 15.8445 12.1888 15.4667 12.4333C15.089 12.6777 14.7334 12.9555 14.4001 13.2666L11.6001 6.66663H8.40008L5.33341 13.8666V24H11.0001C11.1112 24.4666 11.2612 24.9277 11.4501 25.3833C11.639 25.8388 11.8667 26.2666 12.1334 26.6666H5.33341ZM21.3334 12C20.4001 12 19.6112 11.6777 18.9667 11.0333C18.3223 10.3888 18.0001 9.59996 18.0001 8.66663C18.0001 7.73329 18.3223 6.9444 18.9667 6.29996C19.6112 5.65551 20.4001 5.33329 21.3334 5.33329V12C21.3334 11.0666 21.6556 10.2777 22.3001 9.63329C22.9445 8.98885 23.7334 8.66663 24.6667 8.66663C25.6001 8.66663 26.389 8.98885 27.0334 9.63329C27.6779 10.2777 28.0001 11.0666 28.0001 12H21.3334Z" fill="#8A95AB"/>
</svg>
