<svg width="28" height="28" viewBox="0 0 28 28" fill="none" xmlns="http://www.w3.org/2000/svg">
<path d="M19.3334 27.3333C17.1112 27.3333 15.2223 26.5555 13.6667 25C12.1112 23.4444 11.3334 21.5555 11.3334 19.3333C11.3334 17.1111 12.1112 15.2222 13.6667 13.6666C15.2223 12.1111 17.1112 11.3333 19.3334 11.3333C21.5556 11.3333 23.4445 12.1111 25.0001 13.6666C26.5556 15.2222 27.3334 17.1111 27.3334 19.3333C27.3334 21.5555 26.5556 23.4444 25.0001 25C23.4445 26.5555 21.5556 27.3333 19.3334 27.3333ZM19.3334 24.6666C20.8001 24.6666 22.0556 24.1444 23.1001 23.1C24.1445 22.0555 24.6667 20.8 24.6667 19.3333C24.6667 17.8666 24.1445 16.6111 23.1001 15.5666C22.0556 14.5222 20.8001 14 19.3334 14C17.8667 14 16.6112 14.5222 15.5667 15.5666C14.5223 16.6111 14.0001 17.8666 14.0001 19.3333C14.0001 20.8 14.5223 22.0555 15.5667 23.1C16.6112 24.1444 17.8667 24.6666 19.3334 24.6666ZM3.33341 24.6666C2.60008 24.6666 1.9723 24.4055 1.45008 23.8833C0.927859 23.3611 0.666748 22.7333 0.666748 22V11.8666C0.666748 11.6888 0.683415 11.5111 0.716748 11.3333C0.750081 11.1555 0.800081 10.9777 0.866748 10.8L3.53341 4.66663H3.33341C2.95564 4.66663 2.63897 4.53885 2.38341 4.28329C2.12786 4.02774 2.00008 3.71107 2.00008 3.33329V1.99996C2.00008 1.62218 2.12786 1.30551 2.38341 1.04996C2.63897 0.794404 2.95564 0.666626 3.33341 0.666626H12.6667C13.0445 0.666626 13.3612 0.794404 13.6167 1.04996C13.8723 1.30551 14.0001 1.62218 14.0001 1.99996V3.33329C14.0001 3.71107 13.8723 4.02774 13.6167 4.28329C13.3612 4.53885 13.0445 4.66663 12.6667 4.66663H12.4667L14.6667 9.73329C14.2445 9.95551 13.8445 10.1888 13.4667 10.4333C13.089 10.6777 12.7334 10.9555 12.4001 11.2666L9.60008 4.66663H6.40008L3.33341 11.8666V22H9.00008C9.11119 22.4666 9.26119 22.9277 9.45008 23.3833C9.63897 23.8388 9.86675 24.2666 10.1334 24.6666H3.33341ZM19.3334 9.99996C18.4001 9.99996 17.6112 9.67774 16.9667 9.03329C16.3223 8.38885 16.0001 7.59996 16.0001 6.66663C16.0001 5.73329 16.3223 4.9444 16.9667 4.29996C17.6112 3.65551 18.4001 3.33329 19.3334 3.33329V9.99996C19.3334 9.06663 19.6556 8.27774 20.3001 7.63329C20.9445 6.98885 21.7334 6.66663 22.6667 6.66663C23.6001 6.66663 24.389 6.98885 25.0334 7.63329C25.6779 8.27774 26.0001 9.06663 26.0001 9.99996H19.3334Z" fill="#8A95AB"/>
</svg>
