<svg width="30" height="29" viewBox="0 0 30 29" fill="none" xmlns="http://www.w3.org/2000/svg">
<g id="psychology">
<g id="Vector">
<path d="M19.5557 8.77777L18.3765 9.24945C18.1289 9.06078 17.8695 8.90748 17.5865 8.78956L17.4096 7.5396C17.386 7.42168 17.2917 7.33914 17.1737 7.33914H15.287C15.1691 7.33914 15.0747 7.42168 15.0629 7.5396L14.8861 8.78956C14.6031 8.90748 14.3318 9.06078 14.096 9.24945L12.9168 8.77777C12.8107 8.74239 12.6809 8.77777 12.6338 8.8839L11.6904 10.5112C11.6315 10.6173 11.655 10.747 11.7494 10.8178L12.7517 11.5961C12.7163 11.7376 12.6927 11.9027 12.6927 12.056C12.6927 12.2093 12.7045 12.3626 12.7281 12.5159L11.7376 13.2941C11.6432 13.3649 11.6197 13.4946 11.6786 13.5889L12.622 15.228C12.6809 15.3342 12.7989 15.3695 12.9168 15.3342L14.0842 14.8625C14.3318 15.0512 14.5913 15.2045 14.8861 15.3224L15.0512 16.5723C15.0747 16.6903 15.1691 16.7728 15.287 16.7728H17.1737C17.2917 16.7728 17.386 16.6903 17.4096 16.5723L17.5865 15.3224C17.8695 15.2045 18.1407 15.0512 18.3765 14.8625L19.5439 15.3342C19.6501 15.3813 19.7798 15.3342 19.8269 15.228L20.7703 13.5889C20.8293 13.4828 20.8057 13.3649 20.7114 13.2941L19.7326 12.5159C19.7562 12.3626 19.768 12.2093 19.768 12.056C19.768 11.8909 19.7562 11.7376 19.7326 11.5961L20.7349 10.8178C20.8293 10.747 20.8529 10.6173 20.7939 10.5112L19.8505 8.8839C19.7916 8.77777 19.6619 8.74239 19.5557 8.77777ZM16.2304 13.7422C15.2988 13.7422 14.5441 12.9875 14.5441 12.056C14.5441 11.1244 15.2988 10.3697 16.2304 10.3697C17.1619 10.3697 17.9166 11.1244 17.9166 12.056C17.9166 12.9875 17.1619 13.7422 16.2304 13.7422Z" fill="#8A95AB"/>
<path d="M24.4141 10.9475C23.907 7.0915 20.6052 4.03736 16.7138 3.81331C16.5487 3.80151 16.3955 3.80151 16.2304 3.80151C12.0678 3.80151 8.64806 6.87925 8.07025 10.8768L5.79438 14.9804C5.3109 15.7587 5.87692 16.7728 6.7967 16.7728H7.97591V19.1312C7.97591 20.4283 9.0372 21.4896 10.3343 21.4896H11.5135V23.848C11.5135 24.4993 12.0415 25.0273 12.6927 25.0273H18.5888C19.24 25.0273 19.768 24.4993 19.768 23.848V19.5086C22.8575 18.0345 24.8975 14.6974 24.4141 10.9475ZM18.4591 17.5157L17.4096 18.011V22.6688H13.8719V19.1312H10.3343V14.4144H8.80136L10.3697 11.6668C10.582 8.5891 13.1055 6.15993 16.2304 6.15993C19.485 6.15993 22.1264 8.80135 22.1264 12.056C22.1264 14.5205 20.6052 16.6313 18.4591 17.5157Z" fill="#8A95AB"/>
<path d="M19.5557 8.77777L18.3765 9.24945C18.1289 9.06078 17.8695 8.90748 17.5865 8.78956L17.4096 7.5396C17.386 7.42168 17.2917 7.33914 17.1737 7.33914H15.287C15.1691 7.33914 15.0747 7.42168 15.0629 7.5396L14.8861 8.78956C14.6031 8.90748 14.3318 9.06078 14.096 9.24945L12.9168 8.77777C12.8107 8.74239 12.6809 8.77777 12.6338 8.8839L11.6904 10.5112C11.6315 10.6173 11.655 10.747 11.7494 10.8178L12.7517 11.5961C12.7163 11.7376 12.6927 11.9027 12.6927 12.056C12.6927 12.2093 12.7045 12.3626 12.7281 12.5159L11.7376 13.2941C11.6432 13.3649 11.6197 13.4946 11.6786 13.5889L12.622 15.228C12.6809 15.3342 12.7989 15.3695 12.9168 15.3342L14.0842 14.8625C14.3318 15.0512 14.5913 15.2045 14.8861 15.3224L15.0512 16.5723C15.0747 16.6903 15.1691 16.7728 15.287 16.7728H17.1737C17.2917 16.7728 17.386 16.6903 17.4096 16.5723L17.5865 15.3224C17.8695 15.2045 18.1407 15.0512 18.3765 14.8625L19.5439 15.3342C19.6501 15.3813 19.7798 15.3342 19.8269 15.228L20.7703 13.5889C20.8293 13.4828 20.8057 13.3649 20.7114 13.2941L19.7326 12.5159C19.7562 12.3626 19.768 12.2093 19.768 12.056C19.768 11.8909 19.7562 11.7376 19.7326 11.5961L20.7349 10.8178C20.8293 10.747 20.8529 10.6173 20.7939 10.5112L19.8505 8.8839C19.7916 8.77777 19.6619 8.74239 19.5557 8.77777ZM16.2304 13.7422C15.2988 13.7422 14.5441 12.9875 14.5441 12.056C14.5441 11.1244 15.2988 10.3697 16.2304 10.3697C17.1619 10.3697 17.9166 11.1244 17.9166 12.056C17.9166 12.9875 17.1619 13.7422 16.2304 13.7422Z" fill="#8A95AB"/>
<path d="M24.4141 10.9475C23.907 7.0915 20.6052 4.03736 16.7138 3.81331C16.5487 3.80151 16.3955 3.80151 16.2304 3.80151C12.0678 3.80151 8.64806 6.87925 8.07025 10.8768L5.79438 14.9804C5.3109 15.7587 5.87692 16.7728 6.7967 16.7728H7.97591V19.1312C7.97591 20.4283 9.0372 21.4896 10.3343 21.4896H11.5135V23.848C11.5135 24.4993 12.0415 25.0273 12.6927 25.0273H18.5888C19.24 25.0273 19.768 24.4993 19.768 23.848V19.5086C22.8575 18.0345 24.8975 14.6974 24.4141 10.9475ZM18.4591 17.5157L17.4096 18.011V22.6688H13.8719V19.1312H10.3343V14.4144H8.80136L10.3697 11.6668C10.582 8.5891 13.1055 6.15993 16.2304 6.15993C19.485 6.15993 22.1264 8.80135 22.1264 12.056C22.1264 14.5205 20.6052 16.6313 18.4591 17.5157Z" fill="#8A95AB"/>
</g>
</g>
</svg>
