<svg width="33" height="32" viewBox="0 0 33 32" fill="none" xmlns="http://www.w3.org/2000/svg">
<path d="M4.98324 8.00183C4.2499 8.00183 3.6499 8.60183 3.6499 9.33516V26.6685C3.6499 28.1352 4.8499 29.3352 6.31657 29.3352H23.6499C24.3832 29.3352 24.9832 28.7352 24.9832 28.0018C24.9832 27.2685 24.3832 26.6685 23.6499 26.6685H7.6499C6.91657 26.6685 6.31657 26.0685 6.31657 25.3352V9.33516C6.31657 8.60183 5.71657 8.00183 4.98324 8.00183Z" fill="#8A95AB"/>
<path d="M16.9736 19.334V7.33398L24.267 12.8007C24.627 13.0673 24.627 13.6007 24.267 13.8673L16.9736 19.334Z" fill="#8A95AB"/>
<path d="M27.633 2.66797H11.633C10.1663 2.66797 8.96631 3.86797 8.96631 5.33464V21.3346C8.96631 22.8013 10.1663 24.0013 11.633 24.0013H27.633C29.0996 24.0013 30.2996 22.8013 30.2996 21.3346V5.33464C30.2996 3.86797 29.0996 2.66797 27.633 2.66797ZM27.633 21.3346H11.633V5.33464H27.633V21.3346Z" fill="#8A95AB"/>
</svg>
