<svg width="180" height="181" viewBox="0 0 180 181" fill="none" xmlns="http://www.w3.org/2000/svg">
<rect y="0.691406" width="180" height="180" rx="90" fill="#44D8E8" fill-opacity="0.3"/>
<path d="M97.1645 27.4711L111.651 55.159C113.153 58.0308 115.973 60.029 119.238 60.5354L150.712 65.4176C157.198 66.4241 159.78 74.1773 155.139 78.7096L132.619 100.704C130.283 102.985 129.206 106.218 129.721 109.403L134.686 140.108C135.709 146.436 128.948 151.228 123.094 148.323L94.689 134.229C91.7429 132.767 88.2572 132.767 85.3111 134.229L56.9058 148.323C51.0525 151.228 44.2907 146.436 45.3139 140.108L50.2792 109.403C50.7942 106.218 49.7172 102.985 47.3813 100.704L24.8605 78.7096C20.2198 74.1773 22.8026 66.4241 29.2882 65.4176L60.7623 60.5354C64.0269 60.029 66.8465 58.0308 68.3491 55.159L82.8356 27.4711C85.8208 21.7657 94.1793 21.7657 97.1645 27.4711Z" fill="#44D8E8" fill-opacity="0.6" stroke="white" stroke-width="4.5"/>
</svg>
