<svg width="40" height="40" viewBox="0 0 40 40" fill="none" xmlns="http://www.w3.org/2000/svg">
<rect x="0.5" y="0.500061" width="39" height="39" rx="19.5" fill="#FEF2F4"/>
<rect x="0.5" y="0.500061" width="39" height="39" rx="19.5" stroke="#F52E40"/>
<path d="M11 24.0001C10.4667 24.0001 10 23.8001 9.6 23.4001C9.2 23.0001 9 22.5334 9 22.0001V20.0001C9 19.8834 9.01667 19.7584 9.05 19.6251C9.08333 19.4917 9.11667 19.3667 9.15 19.2501L12.15 12.2001C12.3 11.8667 12.55 11.5834 12.9 11.3501C13.25 11.1167 13.6167 11.0001 14 11.0001H25V24.0001L19 29.9501C18.75 30.2001 18.4542 30.3459 18.1125 30.3876C17.7708 30.4292 17.4417 30.3667 17.125 30.2001C16.8083 30.0334 16.575 29.8001 16.425 29.5001C16.275 29.2001 16.2417 28.8917 16.325 28.5751L17.45 24.0001H11ZM23 23.1501V13.0001H14L11 20.0001V22.0001H20L18.65 27.5001L23 23.1501ZM28 11.0001C28.55 11.0001 29.0208 11.1959 29.4125 11.5876C29.8042 11.9792 30 12.4501 30 13.0001V22.0001C30 22.5501 29.8042 23.0209 29.4125 23.4126C29.0208 23.8042 28.55 24.0001 28 24.0001H25V22.0001H28V13.0001H25V11.0001H28Z" fill="#F52E40"/>
</svg>
