<svg width="40" height="40" viewBox="0 0 40 40" fill="none" xmlns="http://www.w3.org/2000/svg">
<rect x="0.5" y="0.500061" width="39" height="39" rx="19.5" fill="#F4FDFE"/>
<rect x="0.5" y="0.500061" width="39" height="39" rx="19.5" stroke="#44D8E8"/>
<path d="M29 16.0001C29.5333 16.0001 30 16.2001 30.4 16.6001C30.8 17.0001 31 17.4667 31 18.0001V20.0001C31 20.1167 30.9833 20.2417 30.95 20.3751C30.9167 20.5084 30.8833 20.6334 30.85 20.7501L27.85 27.8001C27.7 28.1334 27.45 28.4167 27.1 28.6501C26.75 28.8834 26.3833 29.0001 26 29.0001H15V16.0001L21 10.0501C21.25 9.80007 21.5458 9.65423 21.8875 9.61257C22.2292 9.5709 22.5583 9.6334 22.875 9.80007C23.1917 9.96673 23.425 10.2001 23.575 10.5001C23.725 10.8001 23.7583 11.1084 23.675 11.4251L22.55 16.0001H29ZM17 16.8501V27.0001H26L29 20.0001V18.0001H20L21.35 12.5001L17 16.8501ZM12 29.0001C11.45 29.0001 10.9792 28.8042 10.5875 28.4126C10.1958 28.0209 10 27.5501 10 27.0001V18.0001C10 17.4501 10.1958 16.9792 10.5875 16.5876C10.9792 16.1959 11.45 16.0001 12 16.0001H15V18.0001H12V27.0001H15V29.0001H12Z" fill="#44D8E8"/>
</svg>
