<svg width="326" height="120" viewBox="0 0 326 120" fill="none" xmlns="http://www.w3.org/2000/svg">
<g filter="url(#filter0_d_546_5103)">
<rect x="65.3351" y="8" width="60" height="88" rx="8" fill="#F2F6FA" shape-rendering="crispEdges"/>
<path d="M95.2227 65.5753C93.0239 65.5668 91.1318 65.0256 89.5466 63.9517C87.9699 62.8778 86.7554 61.3224 85.9031 59.2855C85.0594 57.2486 84.6418 54.7983 84.6503 51.9347C84.6503 49.0795 85.0722 46.6463 85.9159 44.6349C86.7682 42.6236 87.9827 41.0937 89.5594 40.0455C91.1446 38.9886 93.0324 38.4602 95.2227 38.4602C97.4131 38.4602 99.2966 38.9886 100.873 40.0455C102.459 41.1023 103.677 42.6364 104.53 44.6477C105.382 46.6506 105.804 49.0795 105.795 51.9347C105.795 54.8068 105.369 57.2614 104.517 59.2983C103.673 61.3352 102.463 62.8906 100.886 63.9645C99.3094 65.0384 97.4216 65.5753 95.2227 65.5753ZM95.2227 60.9858C96.7227 60.9858 97.9202 60.2315 98.8151 58.723C99.71 57.2145 100.153 54.9517 100.145 51.9347C100.145 49.9489 99.9401 48.2955 99.531 46.9744C99.1304 45.6534 98.5594 44.6605 97.8179 43.9957C97.085 43.331 96.2199 42.9986 95.2227 42.9986C93.7313 42.9986 92.5381 43.7443 91.6432 45.2358C90.7483 46.7273 90.2966 48.9602 90.2881 51.9347C90.2881 53.946 90.4884 55.625 90.8889 56.9716C91.298 58.3097 91.8733 59.3153 92.6148 59.9886C93.3563 60.6534 94.2256 60.9858 95.2227 60.9858Z" fill="#1DA4B1"/>
</g>
<g filter="url(#filter1_d_546_5103)">
<rect x="133.335" y="8" width="60" height="88" rx="8" fill="#F2F6FA" shape-rendering="crispEdges"/>
<path d="M163.223 65.5753C161.024 65.5668 159.132 65.0256 157.547 63.9517C155.97 62.8778 154.755 61.3224 153.903 59.2855C153.059 57.2486 152.642 54.7983 152.65 51.9347C152.65 49.0795 153.072 46.6463 153.916 44.6349C154.768 42.6236 155.983 41.0937 157.559 40.0455C159.145 38.9886 161.032 38.4602 163.223 38.4602C165.413 38.4602 167.297 38.9886 168.873 40.0455C170.459 41.1023 171.677 42.6364 172.53 44.6477C173.382 46.6506 173.804 49.0795 173.795 51.9347C173.795 54.8068 173.369 57.2614 172.517 59.2983C171.673 61.3352 170.463 62.8906 168.886 63.9645C167.309 65.0384 165.422 65.5753 163.223 65.5753ZM163.223 60.9858C164.723 60.9858 165.92 60.2315 166.815 58.723C167.71 57.2145 168.153 54.9517 168.145 51.9347C168.145 49.9489 167.94 48.2955 167.531 46.9744C167.13 45.6534 166.559 44.6605 165.818 43.9957C165.085 43.331 164.22 42.9986 163.223 42.9986C161.731 42.9986 160.538 43.7443 159.643 45.2358C158.748 46.7273 158.297 48.9602 158.288 51.9347C158.288 53.946 158.488 55.625 158.889 56.9716C159.298 58.3097 159.873 59.3153 160.615 59.9886C161.356 60.6534 162.226 60.9858 163.223 60.9858Z" fill="#1DA4B1"/>
</g>
<g filter="url(#filter2_d_546_5103)">
<rect x="201.335" y="8" width="60" height="88" rx="8" fill="#F2F6FA" shape-rendering="crispEdges"/>
<path d="M220.561 60.3977V56.0384L231.491 38.8182H235.25V44.8523H233.025L226.135 55.7571V55.9616H241.667V60.3977H220.561ZM233.128 65V59.0682L233.23 57.1378V38.8182H238.42V65H233.128Z" fill="#1DA4B1"/>
</g>
<defs>
<filter id="filter0_d_546_5103" x="49.3351" y="0" width="91.9999" height="120" filterUnits="userSpaceOnUse" color-interpolation-filters="sRGB">
<feFlood flood-opacity="0" result="BackgroundImageFix"/>
<feColorMatrix in="SourceAlpha" type="matrix" values="0 0 0 0 0 0 0 0 0 0 0 0 0 0 0 0 0 0 127 0" result="hardAlpha"/>
<feOffset dy="8"/>
<feGaussianBlur stdDeviation="8"/>
<feComposite in2="hardAlpha" operator="out"/>
<feColorMatrix type="matrix" values="0 0 0 0 0.129412 0 0 0 0 0.145098 0 0 0 0 0.196078 0 0 0 0.16 0"/>
<feBlend mode="normal" in2="BackgroundImageFix" result="effect1_dropShadow_546_5103"/>
<feBlend mode="normal" in="SourceGraphic" in2="effect1_dropShadow_546_5103" result="shape"/>
</filter>
<filter id="filter1_d_546_5103" x="117.335" y="0" width="92" height="120" filterUnits="userSpaceOnUse" color-interpolation-filters="sRGB">
<feFlood flood-opacity="0" result="BackgroundImageFix"/>
<feColorMatrix in="SourceAlpha" type="matrix" values="0 0 0 0 0 0 0 0 0 0 0 0 0 0 0 0 0 0 127 0" result="hardAlpha"/>
<feOffset dy="8"/>
<feGaussianBlur stdDeviation="8"/>
<feComposite in2="hardAlpha" operator="out"/>
<feColorMatrix type="matrix" values="0 0 0 0 0.129412 0 0 0 0 0.145098 0 0 0 0 0.196078 0 0 0 0.16 0"/>
<feBlend mode="normal" in2="BackgroundImageFix" result="effect1_dropShadow_546_5103"/>
<feBlend mode="normal" in="SourceGraphic" in2="effect1_dropShadow_546_5103" result="shape"/>
</filter>
<filter id="filter2_d_546_5103" x="185.335" y="0" width="92" height="120" filterUnits="userSpaceOnUse" color-interpolation-filters="sRGB">
<feFlood flood-opacity="0" result="BackgroundImageFix"/>
<feColorMatrix in="SourceAlpha" type="matrix" values="0 0 0 0 0 0 0 0 0 0 0 0 0 0 0 0 0 0 127 0" result="hardAlpha"/>
<feOffset dy="8"/>
<feGaussianBlur stdDeviation="8"/>
<feComposite in2="hardAlpha" operator="out"/>
<feColorMatrix type="matrix" values="0 0 0 0 0.129412 0 0 0 0 0.145098 0 0 0 0 0.196078 0 0 0 0.16 0"/>
<feBlend mode="normal" in2="BackgroundImageFix" result="effect1_dropShadow_546_5103"/>
<feBlend mode="normal" in="SourceGraphic" in2="effect1_dropShadow_546_5103" result="shape"/>
</filter>
</defs>
</svg>
