<svg width="26" height="26" viewBox="0 0 26 26" fill="none" xmlns="http://www.w3.org/2000/svg">
<path d="M13 22.0188C12.7472 22.0188 12.4899 21.9736 12.2281 21.8833C11.9663 21.7931 11.7361 21.6486 11.5375 21.45L9.66871 19.7438C7.75482 17.9924 6.026 16.2545 4.48225 14.5302C2.9385 12.8059 2.16663 10.9056 2.16663 8.82917C2.16663 7.13195 2.73538 5.71458 3.87288 4.57708C5.01038 3.43958 6.42774 2.87083 8.12496 2.87083C9.0819 2.87083 9.98468 3.07396 10.8333 3.48021C11.6819 3.88646 12.4041 4.44167 13 5.14583C13.5958 4.44167 14.318 3.88646 15.1666 3.48021C16.0152 3.07396 16.918 2.87083 17.875 2.87083C19.5722 2.87083 20.9895 3.43958 22.127 4.57708C23.2645 5.71458 23.8333 7.13195 23.8333 8.82917C23.8333 10.9056 23.0659 12.8104 21.5312 14.5438C19.9965 16.2771 18.2541 18.0194 16.3041 19.7708L14.4625 21.45C14.2638 21.6486 14.0336 21.7931 13.7718 21.8833C13.51 21.9736 13.2527 22.0188 13 22.0188ZM11.9708 7.3125C11.4472 6.57222 10.8875 6.00799 10.2916 5.61979C9.69579 5.2316 8.97357 5.0375 8.12496 5.0375C7.04163 5.0375 6.13885 5.39861 5.41663 6.12083C4.6944 6.84306 4.33329 7.74583 4.33329 8.82917C4.33329 9.76806 4.66732 10.7656 5.33538 11.8219C6.00343 12.8781 6.80239 13.9028 7.73225 14.8958C8.66211 15.8889 9.61906 16.8188 10.6031 17.6854C11.5871 18.5521 12.3861 19.2653 13 19.825C13.6138 19.2653 14.4128 18.5521 15.3968 17.6854C16.3809 16.8188 17.3378 15.8889 18.2677 14.8958C19.1975 13.9028 19.9965 12.8781 20.6645 11.8219C21.3326 10.7656 21.6666 9.76806 21.6666 8.82917C21.6666 7.74583 21.3055 6.84306 20.5833 6.12083C19.8611 5.39861 18.9583 5.0375 17.875 5.0375C17.0263 5.0375 16.3041 5.2316 15.7083 5.61979C15.1125 6.00799 14.5527 6.57222 14.0291 7.3125C13.9027 7.49306 13.7493 7.62847 13.5687 7.71875C13.3882 7.80903 13.1986 7.85417 13 7.85417C12.8013 7.85417 12.6118 7.80903 12.4312 7.71875C12.2507 7.62847 12.0972 7.49306 11.9708 7.3125Z" fill="url(#paint0_linear_859_582)"/>
<defs>
<linearGradient id="paint0_linear_859_582" x1="2.16663" y1="2.87083" x2="21.1693" y2="24.3731" gradientUnits="userSpaceOnUse">
<stop stop-color="#F52E40"/>
<stop offset="0.500092" stop-color="#F52E40"/>
<stop offset="1" stop-color="#F52E40"/>
</linearGradient>
</defs>
</svg>
