<svg width="26" height="26" viewBox="0 0 26 26" fill="none" xmlns="http://www.w3.org/2000/svg">
<path d="M1.08333 19.5003C0.776389 19.5003 0.519097 19.3965 0.311458 19.1888C0.103819 18.9812 0 18.7239 0 18.4169V17.794C0 17.0176 0.397222 16.3857 1.19167 15.8982C1.98611 15.4107 3.03333 15.1669 4.33333 15.1669C4.56806 15.1669 4.79375 15.1715 5.01042 15.1805C5.22708 15.1895 5.43472 15.2121 5.63333 15.2482C5.38056 15.6274 5.19097 16.0246 5.06458 16.4399C4.93819 16.8551 4.875 17.2885 4.875 17.7399V19.5003H1.08333ZM7.58333 19.5003C7.27639 19.5003 7.0191 19.3965 6.81146 19.1888C6.60382 18.9812 6.5 18.7239 6.5 18.4169V17.7399C6.5 17.1621 6.65799 16.634 6.97396 16.1555C7.28993 15.677 7.73681 15.2572 8.31458 14.8961C8.89236 14.535 9.58299 14.2642 10.3865 14.0836C11.1899 13.9031 12.0611 13.8128 13 13.8128C13.9569 13.8128 14.8372 13.9031 15.6406 14.0836C16.4441 14.2642 17.1347 14.535 17.7125 14.8961C18.2903 15.2572 18.7326 15.677 19.0396 16.1555C19.3465 16.634 19.5 17.1621 19.5 17.7399V18.4169C19.5 18.7239 19.3962 18.9812 19.1885 19.1888C18.9809 19.3965 18.7236 19.5003 18.4167 19.5003H7.58333ZM21.125 19.5003V17.7399C21.125 17.2704 21.0663 16.8281 20.949 16.4128C20.8316 15.9975 20.6556 15.6093 20.4208 15.2482C20.6194 15.2121 20.8226 15.1895 21.0302 15.1805C21.2378 15.1715 21.45 15.1669 21.6667 15.1669C22.9667 15.1669 24.0139 15.4062 24.8083 15.8846C25.6028 16.3631 26 16.9996 26 17.794V18.4169C26 18.7239 25.8962 18.9812 25.6885 19.1888C25.4809 19.3965 25.2236 19.5003 24.9167 19.5003H21.125ZM8.80208 17.3336H17.225C17.0444 16.9725 16.5434 16.6565 15.7219 16.3857C14.9003 16.1149 13.9931 15.9794 13 15.9794C12.0069 15.9794 11.0997 16.1149 10.2781 16.3857C9.4566 16.6565 8.96458 16.9725 8.80208 17.3336ZM4.33333 14.0836C3.7375 14.0836 3.22743 13.8715 2.80313 13.4471C2.37882 13.0228 2.16667 12.5128 2.16667 11.9169C2.16667 11.3031 2.37882 10.7885 2.80313 10.3732C3.22743 9.95791 3.7375 9.75027 4.33333 9.75027C4.94722 9.75027 5.46181 9.95791 5.87708 10.3732C6.29236 10.7885 6.5 11.3031 6.5 11.9169C6.5 12.5128 6.29236 13.0228 5.87708 13.4471C5.46181 13.8715 4.94722 14.0836 4.33333 14.0836ZM21.6667 14.0836C21.0708 14.0836 20.5608 13.8715 20.1365 13.4471C19.7122 13.0228 19.5 12.5128 19.5 11.9169C19.5 11.3031 19.7122 10.7885 20.1365 10.3732C20.5608 9.95791 21.0708 9.75027 21.6667 9.75027C22.2806 9.75027 22.7951 9.95791 23.2104 10.3732C23.6257 10.7885 23.8333 11.3031 23.8333 11.9169C23.8333 12.5128 23.6257 13.0228 23.2104 13.4471C22.7951 13.8715 22.2806 14.0836 21.6667 14.0836ZM13 13.0003C12.0972 13.0003 11.3299 12.6843 10.6979 12.0524C10.066 11.4204 9.75 10.6531 9.75 9.75027C9.75 8.82944 10.066 8.05757 10.6979 7.43465C11.3299 6.81173 12.0972 6.50027 13 6.50027C13.9208 6.50027 14.6927 6.81173 15.3156 7.43465C15.9385 8.05757 16.25 8.82944 16.25 9.75027C16.25 10.6531 15.9385 11.4204 15.3156 12.0524C14.6927 12.6843 13.9208 13.0003 13 13.0003ZM13 10.8336C13.3069 10.8336 13.5642 10.7298 13.7719 10.5221C13.9795 10.3145 14.0833 10.0572 14.0833 9.75027C14.0833 9.44333 13.9795 9.18604 13.7719 8.9784C13.5642 8.77076 13.3069 8.66694 13 8.66694C12.6931 8.66694 12.4358 8.77076 12.2281 8.9784C12.0205 9.18604 11.9167 9.44333 11.9167 9.75027C11.9167 10.0572 12.0205 10.3145 12.2281 10.5221C12.4358 10.7298 12.6931 10.8336 13 10.8336Z" fill="url(#paint0_linear_785_545)"/>
<defs>
<linearGradient id="paint0_linear_785_545" x1="0" y1="6.50027" x2="10.4" y2="27.3003" gradientUnits="userSpaceOnUse">
<stop stop-color="#F52E40"/>
<stop offset="0.500092" stop-color="#F52E40"/>
<stop offset="1" stop-color="#F52E40"/>
</linearGradient>
</defs>
</svg>
