<svg width="27" height="26" viewBox="0 0 27 26" fill="none" xmlns="http://www.w3.org/2000/svg">
<path d="M10.565 23.8334C9.96919 23.8334 9.45912 23.6213 9.03481 23.197C8.61051 22.7727 8.39836 22.2626 8.39836 21.6667V18.4167H5.14836C4.55252 18.4167 4.04245 18.2046 3.61815 17.7803C3.19384 17.356 2.98169 16.8459 2.98169 16.2501V9.75008C2.98169 9.15425 3.19384 8.64418 3.61815 8.21987C4.04245 7.79557 4.55252 7.58342 5.14836 7.58342H8.39836V4.33341C8.39836 3.73758 8.61051 3.22751 9.03481 2.80321C9.45912 2.3789 9.96919 2.16675 10.565 2.16675H17.065C17.6609 2.16675 18.1709 2.3789 18.5952 2.80321C19.0195 3.22751 19.2317 3.73758 19.2317 4.33341V7.58342H22.4817C23.0775 7.58342 23.5876 7.79557 24.0119 8.21987C24.4362 8.64418 24.6484 9.15425 24.6484 9.75008V16.2501C24.6484 16.8459 24.4362 17.356 24.0119 17.7803C23.5876 18.2046 23.0775 18.4167 22.4817 18.4167H19.2317V21.6667C19.2317 22.2626 19.0195 22.7727 18.5952 23.197C18.1709 23.6213 17.6609 23.8334 17.065 23.8334H10.565ZM5.14836 11.9167H10.565C10.7456 11.9167 10.9171 11.9619 11.0796 12.0522C11.2421 12.1424 11.3685 12.2598 11.4588 12.4042L12.4067 13.8126L13.8692 9.42508C13.9414 9.20842 14.0723 9.02786 14.2619 8.88342C14.4515 8.73897 14.6636 8.66675 14.8984 8.66675C15.0789 8.66675 15.2504 8.71189 15.4129 8.80217C15.5754 8.89244 15.7018 9.0098 15.7921 9.15425L17.6338 11.9167H22.4817V9.75008H18.1484C17.8414 9.75008 17.5841 9.64626 17.3765 9.43862C17.1688 9.23098 17.065 8.97369 17.065 8.66675V4.33341H10.565V8.66675C10.565 8.97369 10.4612 9.23098 10.2536 9.43862C10.0459 9.64626 9.78863 9.75008 9.48169 9.75008H5.14836V11.9167ZM5.14836 14.0834V16.2501H9.48169C9.78863 16.2501 10.0459 16.3539 10.2536 16.5615C10.4612 16.7692 10.565 17.0265 10.565 17.3334V21.6667H17.065V17.3334C17.065 17.0265 17.1688 16.7692 17.3765 16.5615C17.5841 16.3539 17.8414 16.2501 18.1484 16.2501H22.4817V14.0834H17.065C16.8845 14.0834 16.7129 14.0383 16.5504 13.948C16.3879 13.8577 16.2525 13.7404 16.1442 13.5959L15.2234 12.1876L13.7609 16.5751C13.6886 16.7917 13.5532 16.9723 13.3546 17.1167C13.156 17.2612 12.9393 17.3334 12.7046 17.3334C12.5241 17.3334 12.3525 17.2883 12.19 17.198C12.0275 17.1077 11.9011 16.9904 11.8109 16.8459L9.96919 14.0834H5.14836Z" fill="url(#paint0_linear_785_633)"/>
<defs>
<linearGradient id="paint0_linear_785_633" x1="2.98169" y1="2.16675" x2="24.6484" y2="23.8334" gradientUnits="userSpaceOnUse">
<stop stop-color="#1DA4B1"/>
<stop offset="0.500092" stop-color="#3AA6CC"/>
<stop offset="1" stop-color="#44D8E8"/>
</linearGradient>
</defs>
</svg>
