<svg width="363" height="44" viewBox="0 0 363 44" fill="none" xmlns="http://www.w3.org/2000/svg">
<path d="M26.3334 18.4699C26.0734 18.2099 25.6534 18.2099 25.3934 18.4699L22.3334 21.5299C22.0734 21.7899 22.0734 22.2099 22.3334 22.4699L25.3934 25.5299C25.6534 25.7899 26.0734 25.7899 26.3334 25.5299C26.5934 25.2699 26.5934 24.8499 26.3334 24.5899L23.7468 21.9966L26.3334 19.4099C26.5934 19.1499 26.5868 18.7232 26.3334 18.4699Z" fill="#8A95AB"/>
<path d="M41.3376 27V16.8182H47.9598V18.3643H43.1821V21.1286H47.6168V22.6747H43.1821V25.4538H47.9996V27H41.3376ZM51.5757 22.5256V27H49.776V19.3636H51.4962V20.6612H51.5857C51.7613 20.2337 52.0414 19.8939 52.4259 19.642C52.8136 19.3902 53.2926 19.2642 53.8626 19.2642C54.3896 19.2642 54.8487 19.3769 55.2398 19.6023C55.6342 19.8277 55.9391 20.1541 56.1545 20.5817C56.3733 21.0092 56.481 21.5279 56.4777 22.1378V27H54.678V22.4162C54.678 21.9058 54.5454 21.5064 54.2803 21.218C54.0184 20.9297 53.6555 20.7855 53.1915 20.7855C52.8766 20.7855 52.5965 20.8551 52.3513 20.9943C52.1093 21.1302 51.9188 21.3274 51.7795 21.5859C51.6437 21.8445 51.5757 22.1577 51.5757 22.5256ZM61.7019 27.1491C60.9363 27.1491 60.2751 26.9901 59.7183 26.6719C59.1648 26.3504 58.7389 25.8963 58.4406 25.3097C58.1423 24.7197 57.9931 24.0253 57.9931 23.2266C57.9931 22.4411 58.1423 21.7517 58.4406 21.1584C58.7422 20.5618 59.1631 20.0978 59.7033 19.7663C60.2436 19.4316 60.8783 19.2642 61.6075 19.2642C62.0781 19.2642 62.5222 19.3404 62.9399 19.4929C63.3608 19.642 63.732 19.8741 64.0535 20.1889C64.3783 20.5038 64.6335 20.9048 64.8191 21.392C65.0047 21.8759 65.0975 22.4527 65.0975 23.1222V23.674H58.8383V22.4609H63.3724C63.3691 22.1162 63.2945 21.8097 63.1487 21.5412C63.0028 21.2694 62.799 21.0556 62.5372 20.8999C62.2786 20.7441 61.977 20.6662 61.6323 20.6662C61.2644 20.6662 60.9413 20.7557 60.6629 20.9347C60.3845 21.1103 60.1674 21.3423 60.0116 21.6307C59.8591 21.9157 59.7812 22.2289 59.7779 22.5703V23.6293C59.7779 24.0734 59.8591 24.4545 60.0215 24.7727C60.1839 25.0876 60.411 25.3295 60.7026 25.4986C60.9943 25.6643 61.3357 25.7472 61.7268 25.7472C61.9886 25.7472 62.2256 25.7107 62.4377 25.6378C62.6498 25.5616 62.8338 25.4505 62.9896 25.3047C63.1453 25.1589 63.263 24.9782 63.3426 24.7628L65.023 24.9517C64.9169 25.3958 64.7147 25.7836 64.4164 26.1151C64.1214 26.4432 63.7436 26.6984 63.2829 26.8807C62.8222 27.0597 62.2952 27.1491 61.7019 27.1491ZM66.6341 27V19.3636H68.3791V20.6364H68.4586C68.5979 20.1955 68.8365 19.8558 69.1746 19.6172C69.5159 19.3752 69.9054 19.2543 70.3429 19.2543C70.4423 19.2543 70.5533 19.2592 70.676 19.2692C70.8019 19.2758 70.9063 19.2874 70.9892 19.304V20.9595C70.913 20.933 70.792 20.9098 70.6263 20.8899C70.4639 20.8667 70.3064 20.8551 70.154 20.8551C69.8258 20.8551 69.5309 20.9264 69.269 21.0689C69.0105 21.2081 68.8067 21.402 68.6575 21.6506C68.5084 21.8991 68.4338 22.1858 68.4338 22.5107V27H66.6341ZM75.2154 27.1491C74.4696 27.1491 73.8233 26.9851 73.2764 26.657C72.7296 26.3288 72.3053 25.8698 72.0037 25.2798C71.7054 24.6899 71.5563 24.0005 71.5563 23.2116C71.5563 22.4228 71.7054 21.7318 72.0037 21.1385C72.3053 20.5452 72.7296 20.0845 73.2764 19.7564C73.8233 19.4283 74.4696 19.2642 75.2154 19.2642C75.9611 19.2642 76.6074 19.4283 77.1543 19.7564C77.7012 20.0845 78.1237 20.5452 78.422 21.1385C78.7237 21.7318 78.8745 22.4228 78.8745 23.2116C78.8745 24.0005 78.7237 24.6899 78.422 25.2798C78.1237 25.8698 77.7012 26.3288 77.1543 26.657C76.6074 26.9851 75.9611 27.1491 75.2154 27.1491ZM75.2253 25.7074C75.6297 25.7074 75.9677 25.5964 76.2395 25.3743C76.5113 25.1489 76.7135 24.8473 76.8461 24.4695C76.9819 24.0916 77.0499 23.6707 77.0499 23.2067C77.0499 22.7393 76.9819 22.3168 76.8461 21.9389C76.7135 21.5578 76.5113 21.2545 76.2395 21.0291C75.9677 20.8037 75.6297 20.6911 75.2253 20.6911C74.811 20.6911 74.4663 20.8037 74.1912 21.0291C73.9194 21.2545 73.7156 21.5578 73.5797 21.9389C73.4471 22.3168 73.3809 22.7393 73.3809 23.2067C73.3809 23.6707 73.4471 24.0916 73.5797 24.4695C73.7156 24.8473 73.9194 25.1489 74.1912 25.3743C74.4663 25.5964 74.811 25.7074 75.2253 25.7074Z" fill="#505A78"/>
<path d="M337 18.4732C336.74 18.7332 336.74 19.1532 337 19.4132L339.587 21.9999L337 24.5865C336.74 24.8465 336.74 25.2665 337 25.5265C337.26 25.7865 337.68 25.7865 337.94 25.5265L341 22.4665C341.26 22.2065 341.26 21.7865 341 21.5265L337.94 18.4665C337.687 18.2132 337.26 18.2132 337 18.4732Z" fill="#DADFE9"/>
</svg>

