<svg width="363" height="44" viewBox="0 0 363 44" fill="none" xmlns="http://www.w3.org/2000/svg">
<circle cx="20.3334" cy="20" r="4" fill="#8A95AB"/>
<path d="M38.1629 17.4545C38.1118 17.0227 37.9044 16.6875 37.5408 16.4489C37.1771 16.2102 36.7311 16.0909 36.2027 16.0909C35.8163 16.0909 35.4783 16.1534 35.1885 16.2784C34.9016 16.4034 34.6771 16.5753 34.5152 16.794C34.3561 17.0128 34.2766 17.2614 34.2766 17.5398C34.2766 17.7727 34.332 17.973 34.4427 18.1406C34.5564 18.3054 34.7013 18.4432 34.8774 18.554C35.0535 18.6619 35.2382 18.7514 35.4314 18.8224C35.6246 18.8906 35.8021 18.946 35.9641 18.9886L36.8504 19.2273C37.0777 19.2869 37.3305 19.3693 37.6089 19.4744C37.8902 19.5795 38.1587 19.723 38.4143 19.9048C38.6729 20.0838 38.8859 20.3139 39.0535 20.5952C39.2212 20.8764 39.305 21.2216 39.305 21.6307C39.305 22.1023 39.1814 22.5284 38.9342 22.9091C38.6899 23.2898 38.332 23.5923 37.8604 23.8168C37.3916 24.0412 36.822 24.1534 36.1516 24.1534C35.5266 24.1534 34.9854 24.0526 34.528 23.8509C34.0734 23.6491 33.7155 23.3679 33.4541 23.0071C33.1956 22.6463 33.0493 22.2273 33.0152 21.75H34.1061C34.1345 22.0795 34.2453 22.3523 34.4385 22.5682C34.6345 22.7812 34.8817 22.9403 35.18 23.0455C35.4811 23.1477 35.805 23.1989 36.1516 23.1989C36.555 23.1989 36.9172 23.1335 37.2382 23.0028C37.5592 22.8693 37.8135 22.6847 38.001 22.4489C38.1885 22.2102 38.2822 21.9318 38.2822 21.6136C38.2822 21.3239 38.2013 21.0881 38.0393 20.9062C37.8774 20.7244 37.6643 20.5767 37.4001 20.4631C37.1359 20.3494 36.8504 20.25 36.5436 20.1648L35.4697 19.858C34.7879 19.6619 34.2481 19.3821 33.8504 19.0185C33.4527 18.6548 33.2538 18.179 33.2538 17.5909C33.2538 17.1023 33.3859 16.6761 33.6501 16.3125C33.9172 15.946 34.2751 15.6619 34.724 15.4602C35.1757 15.2557 35.68 15.1534 36.2368 15.1534C36.7993 15.1534 37.2993 15.2543 37.7368 15.456C38.1743 15.6548 38.5209 15.9276 38.7766 16.2741C39.0351 16.6207 39.1714 17.0142 39.1856 17.4545H38.1629ZM40.9542 24V17.4545H41.9599V24H40.9542ZM41.4655 16.3636C41.2695 16.3636 41.1005 16.2969 40.9584 16.1634C40.8192 16.0298 40.7496 15.8693 40.7496 15.6818C40.7496 15.4943 40.8192 15.3338 40.9584 15.2003C41.1005 15.0668 41.2695 15 41.4655 15C41.6616 15 41.8292 15.0668 41.9684 15.2003C42.1104 15.3338 42.1814 15.4943 42.1814 15.6818C42.1814 15.8693 42.1104 16.0298 41.9684 16.1634C41.8292 16.2969 41.6616 16.3636 41.4655 16.3636ZM44.8555 20.0625V24H43.8498V17.4545H44.8214V18.4773H44.9066C45.0601 18.1449 45.293 17.8778 45.6055 17.6761C45.918 17.4716 46.3214 17.3693 46.8157 17.3693C47.2589 17.3693 47.6467 17.4602 47.9791 17.642C48.3115 17.821 48.57 18.0938 48.7547 18.4602C48.9393 18.8239 49.0316 19.2841 49.0316 19.8409V24H48.026V19.9091C48.026 19.3949 47.8924 18.9943 47.6254 18.7074C47.3584 18.4176 46.9919 18.2727 46.526 18.2727C46.2049 18.2727 45.918 18.3423 45.6652 18.4815C45.4152 18.6207 45.2177 18.8239 45.0728 19.0909C44.928 19.358 44.8555 19.6818 44.8555 20.0625ZM56.9824 26.5909C56.4966 26.5909 56.079 26.5284 55.7296 26.4034C55.3801 26.2812 55.0889 26.1193 54.856 25.9176C54.6259 25.7188 54.4426 25.5057 54.3063 25.2784L55.1074 24.7159C55.1983 24.8352 55.3134 24.9716 55.4526 25.125C55.5918 25.2812 55.7821 25.4162 56.0236 25.5298C56.2679 25.6463 56.5875 25.7045 56.9824 25.7045C57.5108 25.7045 57.9469 25.5767 58.2906 25.321C58.6344 25.0653 58.8063 24.6648 58.8063 24.1193V22.7898H58.721C58.6472 22.9091 58.5421 23.0568 58.4057 23.233C58.2722 23.4062 58.079 23.5611 57.8262 23.6974C57.5762 23.831 57.2381 23.8977 56.812 23.8977C56.2835 23.8977 55.8091 23.7727 55.3887 23.5227C54.971 23.2727 54.6401 22.9091 54.3958 22.4318C54.1543 21.9545 54.0335 21.375 54.0335 20.6932C54.0335 20.0227 54.1514 19.4389 54.3872 18.9418C54.623 18.4418 54.9512 18.0554 55.3716 17.7827C55.7921 17.5071 56.2779 17.3693 56.829 17.3693C57.2551 17.3693 57.5932 17.4403 57.8432 17.5824C58.096 17.7216 58.2892 17.8807 58.4227 18.0597C58.5591 18.2358 58.6642 18.3807 58.7381 18.4943H58.8404V17.4545H59.812V24.1875C59.812 24.75 59.6841 25.2074 59.4284 25.5597C59.1756 25.9148 58.8347 26.1747 58.4057 26.3395C57.9796 26.5071 57.5051 26.5909 56.9824 26.5909ZM56.9483 22.9943C57.3517 22.9943 57.6926 22.902 57.971 22.7173C58.2495 22.5327 58.4611 22.267 58.606 21.9205C58.7509 21.5739 58.8233 21.1591 58.8233 20.6761C58.8233 20.2045 58.7523 19.7884 58.6102 19.4276C58.4682 19.0668 58.258 18.7841 57.9796 18.5795C57.7012 18.375 57.3574 18.2727 56.9483 18.2727C56.5222 18.2727 56.1671 18.3807 55.883 18.5966C55.6017 18.8125 55.3901 19.1023 55.248 19.4659C55.1088 19.8295 55.0392 20.233 55.0392 20.6761C55.0392 21.1307 55.1102 21.5327 55.2523 21.8821C55.3972 22.2287 55.6102 22.5014 55.8915 22.7003C56.1756 22.8963 56.5279 22.9943 56.9483 22.9943ZM63.627 24.1534C63.2122 24.1534 62.8358 24.0753 62.4977 23.919C62.1597 23.7599 61.8912 23.5312 61.6923 23.233C61.4935 22.9318 61.394 22.5682 61.394 22.142C61.394 21.767 61.4679 21.4631 61.6156 21.2301C61.7634 20.9943 61.9608 20.8097 62.208 20.6761C62.4551 20.5426 62.7278 20.4432 63.0261 20.3778C63.3273 20.3097 63.6298 20.2557 63.9338 20.2159C64.3315 20.1648 64.654 20.1264 64.9011 20.1009C65.1511 20.0724 65.333 20.0256 65.4466 19.9602C65.5631 19.8949 65.6213 19.7812 65.6213 19.6193V19.5852C65.6213 19.1648 65.5063 18.8381 65.2761 18.6051C65.0489 18.3722 64.7037 18.2557 64.2406 18.2557C63.7605 18.2557 63.3841 18.3608 63.1114 18.571C62.8386 18.7812 62.6469 19.0057 62.5361 19.2443L61.5815 18.9034C61.752 18.5057 61.9793 18.196 62.2634 17.9744C62.5503 17.75 62.8628 17.5937 63.2009 17.5057C63.5418 17.4148 63.877 17.3693 64.2065 17.3693C64.4168 17.3693 64.6582 17.3949 64.931 17.446C65.2065 17.4943 65.4722 17.5952 65.7278 17.7486C65.9864 17.902 66.2009 18.1335 66.3713 18.4432C66.5418 18.7528 66.627 19.1676 66.627 19.6875V24H65.6213V23.1136H65.5702C65.502 23.2557 65.3884 23.4077 65.2293 23.5696C65.0702 23.7315 64.8585 23.8693 64.5943 23.983C64.3301 24.0966 64.0077 24.1534 63.627 24.1534ZM63.7804 23.25C64.1781 23.25 64.5134 23.1719 64.7861 23.0156C65.0617 22.8594 65.269 22.6577 65.4082 22.4105C65.5503 22.1634 65.6213 21.9034 65.6213 21.6307V20.7102C65.5787 20.7614 65.485 20.8082 65.3401 20.8509C65.198 20.8906 65.0332 20.9261 64.8457 20.9574C64.6611 20.9858 64.4807 21.0114 64.3046 21.0341C64.1313 21.054 63.9906 21.071 63.8827 21.0852C63.6213 21.1193 63.377 21.1747 63.1497 21.2514C62.9253 21.3253 62.7435 21.4375 62.6043 21.5881C62.4679 21.7358 62.3997 21.9375 62.3997 22.1932C62.3997 22.5426 62.529 22.8068 62.7875 22.9858C63.0489 23.1619 63.3798 23.25 63.7804 23.25ZM69.5163 20.0625V24H68.5106V17.4545H69.4822V18.4773H69.5674C69.7208 18.1449 69.9538 17.8778 70.2663 17.6761C70.5788 17.4716 70.9822 17.3693 71.4765 17.3693C71.9197 17.3693 72.3075 17.4602 72.6398 17.642C72.9722 17.821 73.2307 18.0938 73.4154 18.4602C73.6001 18.8239 73.6924 19.2841 73.6924 19.8409V24H72.6867V19.9091C72.6867 19.3949 72.5532 18.9943 72.2861 18.7074C72.0191 18.4176 71.6526 18.2727 71.1867 18.2727C70.8657 18.2727 70.5788 18.3423 70.3259 18.4815C70.0759 18.6207 69.8785 18.8239 69.7336 19.0909C69.5887 19.358 69.5163 19.6818 69.5163 20.0625ZM77.5042 24.1534C77.0895 24.1534 76.7131 24.0753 76.375 23.919C76.0369 23.7599 75.7684 23.5312 75.5696 23.233C75.3707 22.9318 75.2713 22.5682 75.2713 22.142C75.2713 21.767 75.3452 21.4631 75.4929 21.2301C75.6406 20.9943 75.8381 20.8097 76.0852 20.6761C76.3324 20.5426 76.6051 20.4432 76.9034 20.3778C77.2045 20.3097 77.5071 20.2557 77.8111 20.2159C78.2088 20.1648 78.5312 20.1264 78.7784 20.1009C79.0284 20.0724 79.2102 20.0256 79.3238 19.9602C79.4403 19.8949 79.4986 19.7812 79.4986 19.6193V19.5852C79.4986 19.1648 79.3835 18.8381 79.1534 18.6051C78.9261 18.3722 78.5809 18.2557 78.1179 18.2557C77.6378 18.2557 77.2613 18.3608 76.9886 18.571C76.7159 18.7812 76.5241 19.0057 76.4133 19.2443L75.4588 18.9034C75.6292 18.5057 75.8565 18.196 76.1406 17.9744C76.4275 17.75 76.74 17.5937 77.0781 17.5057C77.419 17.4148 77.7542 17.3693 78.0838 17.3693C78.294 17.3693 78.5355 17.3949 78.8082 17.446C79.0838 17.4943 79.3494 17.5952 79.6051 17.7486C79.8636 17.902 80.0781 18.1335 80.2486 18.4432C80.419 18.7528 80.5042 19.1676 80.5042 19.6875V24H79.4986V23.1136H79.4474C79.3792 23.2557 79.2656 23.4077 79.1065 23.5696C78.9474 23.7315 78.7358 23.8693 78.4716 23.983C78.2074 24.0966 77.8849 24.1534 77.5042 24.1534ZM77.6577 23.25C78.0554 23.25 78.3906 23.1719 78.6633 23.0156C78.9389 22.8594 79.1463 22.6577 79.2855 22.4105C79.4275 22.1634 79.4986 21.9034 79.4986 21.6307V20.7102C79.4559 20.7614 79.3622 20.8082 79.2173 20.8509C79.0753 20.8906 78.9105 20.9261 78.723 20.9574C78.5383 20.9858 78.3579 21.0114 78.1818 21.0341C78.0085 21.054 77.8679 21.071 77.7599 21.0852C77.4986 21.1193 77.2542 21.1747 77.027 21.2514C76.8025 21.3253 76.6207 21.4375 76.4815 21.5881C76.3452 21.7358 76.277 21.9375 76.277 22.1932C76.277 22.5426 76.4062 22.8068 76.6648 22.9858C76.9261 23.1619 77.2571 23.25 77.6577 23.25ZM87.0242 18.9205L86.1208 19.1761C86.064 19.0256 85.9802 18.8793 85.8694 18.7372C85.7614 18.5923 85.6137 18.473 85.4262 18.3793C85.2387 18.2855 84.9986 18.2386 84.706 18.2386C84.3054 18.2386 83.9716 18.331 83.7046 18.5156C83.4404 18.6974 83.3083 18.929 83.3083 19.2102C83.3083 19.4602 83.3992 19.6577 83.581 19.8026C83.7628 19.9474 84.0469 20.0682 84.4333 20.1648L85.4049 20.4034C85.9901 20.5455 86.4262 20.7628 86.7131 21.0554C87 21.3452 87.1435 21.7187 87.1435 22.1761C87.1435 22.5511 87.0356 22.8864 86.8196 23.1818C86.6066 23.4773 86.3083 23.7102 85.9248 23.8807C85.5412 24.0511 85.0952 24.1364 84.5867 24.1364C83.9191 24.1364 83.3665 23.9915 82.929 23.7017C82.4915 23.4119 82.2145 22.9886 82.0981 22.4318L83.0526 22.1932C83.1435 22.5455 83.3154 22.8097 83.5682 22.9858C83.8239 23.1619 84.1577 23.25 84.5696 23.25C85.0384 23.25 85.4106 23.1506 85.6861 22.9517C85.9645 22.75 86.1037 22.5085 86.1037 22.2273C86.1037 22 86.0242 21.8097 85.8651 21.6562C85.706 21.5 85.4617 21.3835 85.1321 21.3068L84.0412 21.0511C83.4418 20.9091 83.0015 20.6889 82.7202 20.3906C82.4418 20.0895 82.3026 19.7131 82.3026 19.2614C82.3026 18.892 82.4063 18.5653 82.6137 18.2812C82.8239 17.9972 83.1094 17.7741 83.4702 17.6122C83.8339 17.4503 84.2458 17.3693 84.706 17.3693C85.3537 17.3693 85.8623 17.5114 86.2316 17.7955C86.6037 18.0795 86.8679 18.4545 87.0242 18.9205Z" fill="#8A95AB"/>
<circle cx="135.889" cy="20" r="4" fill="#8ED1D8"/>
<path d="M148.468 16.2102V15.2727H155.014V16.2102H152.27V24H151.213V16.2102H148.468ZM155.877 24V17.4545H156.848V18.4432H156.917C157.036 18.1193 157.252 17.8565 157.564 17.6548C157.877 17.4531 158.229 17.3523 158.621 17.3523C158.695 17.3523 158.787 17.3537 158.898 17.3565C159.009 17.3594 159.093 17.3636 159.15 17.3693V18.392C159.116 18.3835 159.037 18.3707 158.915 18.3537C158.796 18.3338 158.67 18.3239 158.536 18.3239C158.218 18.3239 157.934 18.3906 157.684 18.5241C157.437 18.6548 157.241 18.8366 157.096 19.0696C156.954 19.2997 156.883 19.5625 156.883 19.858V24H155.877ZM162.316 24.1534C161.901 24.1534 161.525 24.0753 161.187 23.919C160.849 23.7599 160.58 23.5312 160.381 23.233C160.182 22.9318 160.083 22.5682 160.083 22.142C160.083 21.767 160.157 21.4631 160.305 21.2301C160.452 20.9943 160.65 20.8097 160.897 20.6761C161.144 20.5426 161.417 20.4432 161.715 20.3778C162.016 20.3097 162.319 20.2557 162.623 20.2159C163.02 20.1648 163.343 20.1264 163.59 20.1009C163.84 20.0724 164.022 20.0256 164.135 19.9602C164.252 19.8949 164.31 19.7812 164.31 19.6193V19.5852C164.31 19.1648 164.195 18.8381 163.965 18.6051C163.738 18.3722 163.393 18.2557 162.93 18.2557C162.449 18.2557 162.073 18.3608 161.8 18.571C161.528 18.7812 161.336 19.0057 161.225 19.2443L160.27 18.9034C160.441 18.5057 160.668 18.196 160.952 17.9744C161.239 17.75 161.552 17.5937 161.89 17.5057C162.231 17.4148 162.566 17.3693 162.895 17.3693C163.106 17.3693 163.347 17.3949 163.62 17.446C163.895 17.4943 164.161 17.5952 164.417 17.7486C164.675 17.902 164.89 18.1335 165.06 18.4432C165.231 18.7528 165.316 19.1676 165.316 19.6875V24H164.31V23.1136H164.259C164.191 23.2557 164.077 23.4077 163.918 23.5696C163.759 23.7315 163.547 23.8693 163.283 23.983C163.019 24.0966 162.697 24.1534 162.316 24.1534ZM162.469 23.25C162.867 23.25 163.202 23.1719 163.475 23.0156C163.751 22.8594 163.958 22.6577 164.097 22.4105C164.239 22.1634 164.31 21.9034 164.31 21.6307V20.7102C164.268 20.7614 164.174 20.8082 164.029 20.8509C163.887 20.8906 163.722 20.9261 163.535 20.9574C163.35 20.9858 163.17 21.0114 162.993 21.0341C162.82 21.054 162.68 21.071 162.572 21.0852C162.31 21.1193 162.066 21.1747 161.839 21.2514C161.614 21.3253 161.432 21.4375 161.293 21.5881C161.157 21.7358 161.089 21.9375 161.089 22.1932C161.089 22.5426 161.218 22.8068 161.476 22.9858C161.738 23.1619 162.069 23.25 162.469 23.25ZM168.205 20.0625V24H167.199V17.4545H168.171V18.4773H168.256C168.41 18.1449 168.643 17.8778 168.955 17.6761C169.268 17.4716 169.671 17.3693 170.165 17.3693C170.609 17.3693 170.996 17.4602 171.329 17.642C171.661 17.821 171.92 18.0938 172.104 18.4602C172.289 18.8239 172.381 19.2841 172.381 19.8409V24H171.376V19.9091C171.376 19.3949 171.242 18.9943 170.975 18.7074C170.708 18.4176 170.342 18.2727 169.876 18.2727C169.555 18.2727 169.268 18.3423 169.015 18.4815C168.765 18.6207 168.567 18.8239 168.422 19.0909C168.278 19.358 168.205 19.6818 168.205 20.0625ZM178.733 26.4545V22.9943H178.648C178.574 23.1136 178.469 23.2642 178.332 23.446C178.196 23.625 178.001 23.7855 177.749 23.9276C177.496 24.0668 177.159 24.1364 176.739 24.1364C176.193 24.1364 175.712 23.9986 175.294 23.723C174.876 23.4446 174.55 23.0526 174.314 22.5469C174.078 22.0384 173.96 21.4375 173.96 20.7443C173.96 20.0568 174.078 19.4602 174.314 18.9545C174.55 18.4489 174.878 18.0582 175.298 17.7827C175.719 17.5071 176.204 17.3693 176.756 17.3693C177.182 17.3693 177.518 17.4403 177.766 17.5824C178.016 17.7216 178.206 17.8807 178.337 18.0597C178.47 18.2358 178.574 18.3807 178.648 18.4943H178.767V17.4545H179.739V26.4545H178.733ZM176.875 23.233C177.278 23.233 177.619 23.1278 177.898 22.9176C178.176 22.7045 178.388 22.4105 178.533 22.0355C178.678 21.6577 178.75 21.2216 178.75 20.7273C178.75 20.2386 178.679 19.8111 178.537 19.4446C178.395 19.0753 178.185 18.7884 177.906 18.5838C177.628 18.3764 177.284 18.2727 176.875 18.2727C176.449 18.2727 176.094 18.3821 175.81 18.6009C175.528 18.8168 175.317 19.1108 175.175 19.483C175.035 19.8523 174.966 20.267 174.966 20.7273C174.966 21.1932 175.037 21.6165 175.179 21.9972C175.324 22.375 175.537 22.6761 175.818 22.9006C176.102 23.1222 176.454 23.233 176.875 23.233ZM185.752 21.3239V17.4545H186.758V24H185.752V22.892H185.684C185.531 23.2244 185.292 23.5071 184.968 23.7401C184.645 23.9702 184.235 24.0852 183.741 24.0852C183.332 24.0852 182.968 23.9957 182.65 23.8168C182.332 23.6349 182.082 23.3622 181.9 22.9986C181.718 22.6321 181.627 22.1705 181.627 21.6136V17.4545H182.633V21.5455C182.633 22.0227 182.767 22.4034 183.034 22.6875C183.304 22.9716 183.647 23.1136 184.065 23.1136C184.315 23.1136 184.569 23.0497 184.828 22.9219C185.089 22.794 185.308 22.598 185.484 22.3338C185.663 22.0696 185.752 21.733 185.752 21.3239ZM188.648 24V17.4545H189.654V24H188.648ZM189.16 16.3636C188.963 16.3636 188.794 16.2969 188.652 16.1634C188.513 16.0298 188.444 15.8693 188.444 15.6818C188.444 15.4943 188.513 15.3338 188.652 15.2003C188.794 15.0668 188.963 15 189.16 15C189.356 15 189.523 15.0668 189.662 15.2003C189.804 15.3338 189.875 15.4943 189.875 15.6818C189.875 15.8693 189.804 16.0298 189.662 16.1634C189.523 16.2969 189.356 16.3636 189.16 16.3636Z" fill="#8A95AB"/>
<circle cx="251.444" cy="20" r="4" fill="#F9B10C"/>
<path d="M271.524 18H270.467C270.405 17.696 270.295 17.429 270.139 17.1989C269.986 16.9688 269.798 16.7756 269.577 16.6193C269.358 16.4602 269.115 16.3409 268.848 16.2614C268.581 16.1818 268.302 16.142 268.013 16.142C267.484 16.142 267.006 16.2756 266.577 16.5426C266.15 16.8097 265.811 17.2031 265.558 17.723C265.308 18.2429 265.183 18.8807 265.183 19.6364C265.183 20.392 265.308 21.0298 265.558 21.5497C265.811 22.0696 266.15 22.4631 266.577 22.7301C267.006 22.9972 267.484 23.1307 268.013 23.1307C268.302 23.1307 268.581 23.0909 268.848 23.0114C269.115 22.9318 269.358 22.8139 269.577 22.6577C269.798 22.4986 269.986 22.304 270.139 22.0739C270.295 21.8409 270.405 21.5739 270.467 21.2727H271.524C271.444 21.7187 271.3 22.1179 271.089 22.4702C270.879 22.8224 270.618 23.1222 270.305 23.3693C269.993 23.6136 269.642 23.7997 269.253 23.9276C268.866 24.0554 268.453 24.1193 268.013 24.1193C267.268 24.1193 266.606 23.9375 266.027 23.5739C265.447 23.2102 264.991 22.6932 264.659 22.0227C264.327 21.3523 264.16 20.5568 264.16 19.6364C264.16 18.7159 264.327 17.9205 264.659 17.25C264.991 16.5795 265.447 16.0625 266.027 15.6989C266.606 15.3352 267.268 15.1534 268.013 15.1534C268.453 15.1534 268.866 15.2173 269.253 15.3452C269.642 15.473 269.993 15.6605 270.305 15.9077C270.618 16.152 270.879 16.4503 271.089 16.8026C271.3 17.152 271.444 17.5511 271.524 18ZM275.802 24.1364C275.212 24.1364 274.693 23.9957 274.247 23.7145C273.804 23.4332 273.457 23.0398 273.207 22.5341C272.96 22.0284 272.837 21.4375 272.837 20.7614C272.837 20.0795 272.96 19.4844 273.207 18.9759C273.457 18.4673 273.804 18.0724 274.247 17.7912C274.693 17.5099 275.212 17.3693 275.802 17.3693C276.393 17.3693 276.91 17.5099 277.354 17.7912C277.8 18.0724 278.146 18.4673 278.393 18.9759C278.643 19.4844 278.768 20.0795 278.768 20.7614C278.768 21.4375 278.643 22.0284 278.393 22.5341C278.146 23.0398 277.8 23.4332 277.354 23.7145C276.91 23.9957 276.393 24.1364 275.802 24.1364ZM275.802 23.233C276.251 23.233 276.621 23.1179 276.91 22.8878C277.2 22.6577 277.415 22.3551 277.554 21.9801C277.693 21.6051 277.763 21.1989 277.763 20.7614C277.763 20.3239 277.693 19.9162 277.554 19.5384C277.415 19.1605 277.2 18.8551 276.91 18.6222C276.621 18.3892 276.251 18.2727 275.802 18.2727C275.354 18.2727 274.984 18.3892 274.695 18.6222C274.405 18.8551 274.19 19.1605 274.051 19.5384C273.912 19.9162 273.842 20.3239 273.842 20.7614C273.842 21.1989 273.912 21.6051 274.051 21.9801C274.19 22.3551 274.405 22.6577 274.695 22.8878C274.984 23.1179 275.354 23.233 275.802 23.233ZM281.357 20.0625V24H280.352V17.4545H281.323V18.4773H281.408C281.562 18.1449 281.795 17.8778 282.107 17.6761C282.42 17.4716 282.823 17.3693 283.317 17.3693C283.761 17.3693 284.148 17.4602 284.481 17.642C284.813 17.821 285.072 18.0938 285.256 18.4602C285.441 18.8239 285.533 19.2841 285.533 19.8409V24H284.528V19.9091C284.528 19.3949 284.394 18.9943 284.127 18.7074C283.86 18.4176 283.494 18.2727 283.028 18.2727C282.707 18.2727 282.42 18.3423 282.167 18.4815C281.917 18.6207 281.719 18.8239 281.575 19.0909C281.43 19.358 281.357 19.6818 281.357 20.0625ZM293.586 24.1364C292.956 24.1364 292.412 23.9972 291.954 23.7188C291.5 23.4375 291.149 23.0455 290.902 22.5426C290.657 22.0369 290.535 21.4489 290.535 20.7784C290.535 20.108 290.657 19.517 290.902 19.0057C291.149 18.4915 291.493 18.0909 291.933 17.804C292.376 17.5142 292.893 17.3693 293.484 17.3693C293.825 17.3693 294.162 17.4261 294.494 17.5398C294.826 17.6534 295.129 17.8381 295.402 18.0938C295.674 18.3466 295.892 18.6818 296.054 19.0994C296.216 19.517 296.297 20.0312 296.297 20.642V21.0682H291.251V20.1989H295.274C295.274 19.8295 295.2 19.5 295.052 19.2102C294.907 18.9205 294.7 18.6918 294.43 18.5241C294.163 18.3565 293.848 18.2727 293.484 18.2727C293.084 18.2727 292.737 18.3722 292.444 18.571C292.155 18.767 291.932 19.0227 291.775 19.3381C291.619 19.6534 291.541 19.9915 291.541 20.3523V20.9318C291.541 21.4261 291.626 21.8452 291.797 22.1889C291.97 22.5298 292.21 22.7898 292.517 22.9688C292.824 23.1449 293.18 23.233 293.586 23.233C293.851 23.233 294.089 23.196 294.302 23.1222C294.518 23.0455 294.704 22.9318 294.861 22.7812C295.017 22.6278 295.138 22.4375 295.223 22.2102L296.194 22.483C296.092 22.8125 295.92 23.1023 295.679 23.3523C295.437 23.5994 295.139 23.7926 294.784 23.9318C294.429 24.0682 294.03 24.1364 293.586 24.1364ZM298.88 20.0625V24H297.874V17.4545H298.846V18.4773H298.931C299.085 18.1449 299.318 17.8778 299.63 17.6761C299.943 17.4716 300.346 17.3693 300.84 17.3693C301.284 17.3693 301.671 17.4602 302.004 17.642C302.336 17.821 302.595 18.0938 302.779 18.4602C302.964 18.8239 303.056 19.2841 303.056 19.8409V24H302.051V19.9091C302.051 19.3949 301.917 18.9943 301.65 18.7074C301.383 18.4176 301.016 18.2727 300.551 18.2727C300.23 18.2727 299.943 18.3423 299.69 18.4815C299.44 18.6207 299.242 18.8239 299.097 19.0909C298.953 19.358 298.88 19.6818 298.88 20.0625ZM307.686 24.1364C307.056 24.1364 306.512 23.9972 306.054 23.7188C305.6 23.4375 305.249 23.0455 305.002 22.5426C304.757 22.0369 304.635 21.4489 304.635 20.7784C304.635 20.108 304.757 19.517 305.002 19.0057C305.249 18.4915 305.593 18.0909 306.033 17.804C306.476 17.5142 306.993 17.3693 307.584 17.3693C307.925 17.3693 308.262 17.4261 308.594 17.5398C308.926 17.6534 309.229 17.8381 309.502 18.0938C309.774 18.3466 309.992 18.6818 310.154 19.0994C310.316 19.517 310.397 20.0312 310.397 20.642V21.0682H305.351V20.1989H309.374C309.374 19.8295 309.3 19.5 309.152 19.2102C309.007 18.9205 308.8 18.6918 308.53 18.5241C308.263 18.3565 307.948 18.2727 307.584 18.2727C307.183 18.2727 306.837 18.3722 306.544 18.571C306.254 18.767 306.031 19.0227 305.875 19.3381C305.719 19.6534 305.641 19.9915 305.641 20.3523V20.9318C305.641 21.4261 305.726 21.8452 305.897 22.1889C306.07 22.5298 306.31 22.7898 306.617 22.9688C306.924 23.1449 307.28 23.233 307.686 23.233C307.95 23.233 308.189 23.196 308.402 23.1222C308.618 23.0455 308.804 22.9318 308.96 22.7812C309.117 22.6278 309.237 22.4375 309.323 22.2102L310.294 22.483C310.192 22.8125 310.02 23.1023 309.779 23.3523C309.537 23.5994 309.239 23.7926 308.884 23.9318C308.529 24.0682 308.129 24.1364 307.686 24.1364ZM311.974 24V17.4545H312.946V18.4432H313.014C313.133 18.1193 313.349 17.8565 313.662 17.6548C313.974 17.4531 314.327 17.3523 314.719 17.3523C314.793 17.3523 314.885 17.3537 314.996 17.3565C315.106 17.3594 315.19 17.3636 315.247 17.3693V18.392C315.213 18.3835 315.135 18.3707 315.013 18.3537C314.893 18.3338 314.767 18.3239 314.633 18.3239C314.315 18.3239 314.031 18.3906 313.781 18.5241C313.534 18.6548 313.338 18.8366 313.193 19.0696C313.051 19.2997 312.98 19.5625 312.98 19.858V24H311.974ZM318.93 26.5909C318.444 26.5909 318.027 26.5284 317.677 26.4034C317.328 26.2812 317.037 26.1193 316.804 25.9176C316.573 25.7188 316.39 25.5057 316.254 25.2784L317.055 24.7159C317.146 24.8352 317.261 24.9716 317.4 25.125C317.539 25.2812 317.73 25.4162 317.971 25.5298C318.216 25.6463 318.535 25.7045 318.93 25.7045C319.458 25.7045 319.895 25.5767 320.238 25.321C320.582 25.0653 320.754 24.6648 320.754 24.1193V22.7898H320.669C320.595 22.9091 320.49 23.0568 320.353 23.233C320.22 23.4062 320.027 23.5611 319.774 23.6974C319.524 23.831 319.186 23.8977 318.76 23.8977C318.231 23.8977 317.757 23.7727 317.336 23.5227C316.919 23.2727 316.588 22.9091 316.343 22.4318C316.102 21.9545 315.981 21.375 315.981 20.6932C315.981 20.0227 316.099 19.4389 316.335 18.9418C316.571 18.4418 316.899 18.0554 317.319 17.7827C317.74 17.5071 318.225 17.3693 318.777 17.3693C319.203 17.3693 319.541 17.4403 319.791 17.5824C320.044 17.7216 320.237 17.8807 320.37 18.0597C320.507 18.2358 320.612 18.3807 320.686 18.4943H320.788V17.4545H321.76V24.1875C321.76 24.75 321.632 25.2074 321.376 25.5597C321.123 25.9148 320.782 26.1747 320.353 26.3395C319.927 26.5071 319.453 26.5909 318.93 26.5909ZM318.896 22.9943C319.299 22.9943 319.64 22.902 319.919 22.7173C320.197 22.5327 320.409 22.267 320.554 21.9205C320.698 21.5739 320.771 21.1591 320.771 20.6761C320.771 20.2045 320.7 19.7884 320.558 19.4276C320.416 19.0668 320.206 18.7841 319.927 18.5795C319.649 18.375 319.305 18.2727 318.896 18.2727C318.47 18.2727 318.115 18.3807 317.831 18.5966C317.549 18.8125 317.338 19.1023 317.196 19.4659C317.056 19.8295 316.987 20.233 316.987 20.6761C316.987 21.1307 317.058 21.5327 317.2 21.8821C317.345 22.2287 317.558 22.5014 317.839 22.7003C318.123 22.8963 318.475 22.9943 318.896 22.9943ZM323.648 24V17.4545H324.654V24H323.648ZM323.7 16.5682L324.739 14.5909H325.916L324.586 16.5682H323.7ZM328.47 24.1534C328.055 24.1534 327.679 24.0753 327.341 23.919C327.003 23.7599 326.734 23.5312 326.536 23.233C326.337 22.9318 326.237 22.5682 326.237 22.142C326.237 21.767 326.311 21.4631 326.459 21.2301C326.607 20.9943 326.804 20.8097 327.051 20.6761C327.298 20.5426 327.571 20.4432 327.869 20.3778C328.171 20.3097 328.473 20.2557 328.777 20.2159C329.175 20.1648 329.497 20.1264 329.744 20.1009C329.994 20.0724 330.176 20.0256 330.29 19.9602C330.406 19.8949 330.465 19.7812 330.465 19.6193V19.5852C330.465 19.1648 330.35 18.8381 330.119 18.6051C329.892 18.3722 329.547 18.2557 329.084 18.2557C328.604 18.2557 328.227 18.3608 327.955 18.571C327.682 18.7812 327.49 19.0057 327.379 19.2443L326.425 18.9034C326.595 18.5057 326.823 18.196 327.107 17.9744C327.394 17.75 327.706 17.5937 328.044 17.5057C328.385 17.4148 328.72 17.3693 329.05 17.3693C329.26 17.3693 329.502 17.3949 329.774 17.446C330.05 17.4943 330.315 17.5952 330.571 17.7486C330.83 17.902 331.044 18.1335 331.215 18.4432C331.385 18.7528 331.47 19.1676 331.47 19.6875V24H330.465V23.1136H330.413C330.345 23.2557 330.232 23.4077 330.073 23.5696C329.913 23.7315 329.702 23.8693 329.438 23.983C329.173 24.0966 328.851 24.1534 328.47 24.1534ZM328.624 23.25C329.021 23.25 329.357 23.1719 329.629 23.0156C329.905 22.8594 330.112 22.6577 330.252 22.4105C330.394 22.1634 330.465 21.9034 330.465 21.6307V20.7102C330.422 20.7614 330.328 20.8082 330.183 20.8509C330.041 20.8906 329.877 20.9261 329.689 20.9574C329.504 20.9858 329.324 21.0114 329.148 21.0341C328.975 21.054 328.834 21.071 328.726 21.0852C328.465 21.1193 328.22 21.1747 327.993 21.2514C327.769 21.3253 327.587 21.4375 327.448 21.5881C327.311 21.7358 327.243 21.9375 327.243 22.1932C327.243 22.5426 327.372 22.8068 327.631 22.9858C327.892 23.1619 328.223 23.25 328.624 23.25Z" fill="#8A95AB"/>
</svg>
