<svg width="363" height="188" viewBox="0 0 363 188" fill="none" xmlns="http://www.w3.org/2000/svg">
<rect x="85.6667" width="24" height="24" rx="4" fill="white"/>
<path d="M96.9167 16H94.2235V7.27273H97.036C97.8826 7.27273 98.607 7.44744 99.2093 7.79688C99.8116 8.14347 100.273 8.64205 100.594 9.29261C100.915 9.94034 101.076 10.7159 101.076 11.6193C101.076 12.5284 100.914 13.3111 100.59 13.9673C100.266 14.6207 99.7945 15.1236 99.1752 15.4759C98.5559 15.8253 97.8031 16 96.9167 16ZM95.2803 15.0625H96.8485C97.5701 15.0625 98.1681 14.9233 98.6425 14.6449C99.117 14.3665 99.4707 13.9702 99.7036 13.456C99.9366 12.9418 100.053 12.3295 100.053 11.6193C100.053 10.9148 99.938 10.3082 99.7079 9.79972C99.4778 9.28835 99.134 8.89631 98.6766 8.62358C98.2192 8.34801 97.6496 8.21023 96.9678 8.21023H95.2803V15.0625Z" fill="#505A78"/>
<rect x="113.667" width="24" height="24" rx="4" fill="white"/>
<path d="M123.224 16V7.27273H124.28V15.0625H128.337V16H123.224Z" fill="#505A78"/>
<rect x="141.667" width="24" height="24" rx="4" fill="white"/>
<path d="M149.224 7.27273H150.485L153.451 14.517H153.553L156.519 7.27273H157.78V16H156.792V9.36932H156.706L153.979 16H153.025L150.297 9.36932H150.212V16H149.224V7.27273Z" fill="#505A78"/>
<rect x="169.667" width="24" height="24" rx="4" fill="white"/>
<path d="M177.224 7.27273H178.485L181.451 14.517H181.553L184.519 7.27273H185.78V16H184.792V9.36932H184.706L181.979 16H181.025L178.297 9.36932H178.212V16H177.224V7.27273Z" fill="#505A78"/>
<rect x="197.667" width="24" height="24" rx="4" fill="white"/>
<path d="M210.564 7.27273H211.621V13.5114C211.621 14.0682 211.519 14.5412 211.314 14.9304C211.11 15.3196 210.822 15.6151 210.449 15.8168C210.077 16.0185 209.638 16.1193 209.133 16.1193C208.655 16.1193 208.231 16.0327 207.858 15.8594C207.486 15.6832 207.194 15.4332 206.981 15.1094C206.768 14.7855 206.661 14.4006 206.661 13.9545H207.701C207.701 14.2017 207.762 14.4176 207.884 14.6023C208.009 14.7841 208.179 14.9261 208.395 15.0284C208.611 15.1307 208.857 15.1818 209.133 15.1818C209.437 15.1818 209.695 15.1179 209.908 14.9901C210.121 14.8622 210.283 14.6747 210.394 14.4276C210.508 14.1776 210.564 13.8722 210.564 13.5114V7.27273Z" fill="#505A78"/>
<rect x="225.667" width="24" height="24" rx="4" fill="white"/>
<path d="M234.581 7.27273L237.172 14.6193H237.275L239.866 7.27273H240.974L237.769 16H236.678L233.474 7.27273H234.581Z" fill="#505A78"/>
<rect x="253.667" width="24" height="24" rx="4" fill="white"/>
<path d="M267.496 9.45455C267.445 9.02273 267.238 8.6875 266.874 8.44886C266.51 8.21023 266.064 8.09091 265.536 8.09091C265.15 8.09091 264.812 8.15341 264.522 8.27841C264.235 8.40341 264.01 8.57528 263.849 8.79403C263.689 9.01278 263.61 9.26136 263.61 9.53977C263.61 9.77273 263.665 9.97301 263.776 10.1406C263.89 10.3054 264.035 10.4432 264.211 10.554C264.387 10.6619 264.572 10.7514 264.765 10.8224C264.958 10.8906 265.135 10.946 265.297 10.9886L266.184 11.2273C266.411 11.2869 266.664 11.3693 266.942 11.4744C267.224 11.5795 267.492 11.723 267.748 11.9048C268.006 12.0838 268.219 12.3139 268.387 12.5952C268.554 12.8764 268.638 13.2216 268.638 13.6307C268.638 14.1023 268.515 14.5284 268.268 14.9091C268.023 15.2898 267.665 15.5923 267.194 15.8168C266.725 16.0412 266.155 16.1534 265.485 16.1534C264.86 16.1534 264.319 16.0526 263.861 15.8509C263.407 15.6491 263.049 15.3679 262.787 15.0071C262.529 14.6463 262.383 14.2273 262.349 13.75H263.439C263.468 14.0795 263.579 14.3523 263.772 14.5682C263.968 14.7812 264.215 14.9403 264.513 15.0455C264.814 15.1477 265.138 15.1989 265.485 15.1989C265.888 15.1989 266.25 15.1335 266.572 15.0028C266.893 14.8693 267.147 14.6847 267.334 14.4489C267.522 14.2102 267.616 13.9318 267.616 13.6136C267.616 13.3239 267.535 13.0881 267.373 12.9062C267.211 12.7244 266.998 12.5767 266.733 12.4631C266.469 12.3494 266.184 12.25 265.877 12.1648L264.803 11.858C264.121 11.6619 263.581 11.3821 263.184 11.0185C262.786 10.6548 262.587 10.179 262.587 9.59091C262.587 9.10227 262.719 8.67614 262.983 8.3125C263.25 7.94602 263.608 7.66193 264.057 7.46023C264.509 7.25568 265.013 7.15341 265.57 7.15341C266.133 7.15341 266.633 7.25426 267.07 7.45597C267.508 7.65483 267.854 7.92756 268.11 8.27415C268.368 8.62074 268.505 9.0142 268.519 9.45455H267.496Z" fill="#505A78"/>
<rect x="113.667" y="28" width="24" height="24" rx="4" fill="#8ED1D8"/>
<path d="M126.992 35.2727V44H125.411V36.8111H125.36L123.319 38.1151V36.6662L125.488 35.2727H126.992Z" fill="white"/>
<rect x="141.667" y="28" width="24" height="24" rx="4" fill="#8ED1D8"/>
<path d="M150.442 44V42.858L153.472 39.8878C153.762 39.5952 154.003 39.3352 154.197 39.108C154.39 38.8807 154.535 38.6605 154.631 38.4474C154.728 38.2344 154.776 38.0071 154.776 37.7656C154.776 37.4901 154.714 37.2543 154.589 37.0582C154.464 36.8594 154.292 36.706 154.073 36.598C153.854 36.4901 153.606 36.4361 153.327 36.4361C153.04 36.4361 152.789 36.4957 152.573 36.6151C152.357 36.7315 152.189 36.8977 152.07 37.1136C151.954 37.3295 151.895 37.5866 151.895 37.8849H150.391C150.391 37.331 150.518 36.8494 150.77 36.4403C151.023 36.0312 151.371 35.7145 151.814 35.4901C152.26 35.2656 152.772 35.1534 153.349 35.1534C153.934 35.1534 154.448 35.2628 154.891 35.4815C155.334 35.7003 155.678 36 155.922 36.3807C156.17 36.7614 156.293 37.196 156.293 37.6847C156.293 38.0114 156.231 38.3324 156.106 38.6477C155.981 38.9631 155.76 39.3125 155.445 39.696C155.133 40.0795 154.694 40.544 154.128 41.0895L152.624 42.6193V42.679H156.425V44H150.442Z" fill="white"/>
<rect x="169.667" y="28" width="24" height="24" rx="4" fill="#8A95AB"/>
<path d="M181.574 44.1193C180.961 44.1193 180.415 44.0142 179.938 43.804C179.464 43.5937 179.089 43.3011 178.813 42.9261C178.537 42.5511 178.391 42.1179 178.374 41.6264H179.976C179.991 41.8622 180.069 42.0682 180.211 42.2443C180.353 42.4176 180.542 42.5526 180.777 42.6491C181.013 42.7457 181.277 42.794 181.57 42.794C181.883 42.794 182.16 42.7401 182.401 42.6321C182.643 42.5213 182.831 42.3679 182.968 42.1719C183.104 41.9759 183.171 41.75 183.168 41.4943C183.171 41.2301 183.103 40.9972 182.964 40.7955C182.824 40.5937 182.623 40.4361 182.358 40.3224C182.097 40.2088 181.782 40.152 181.412 40.152H180.641V38.9332H181.412C181.716 38.9332 181.982 38.8807 182.209 38.7756C182.439 38.6705 182.62 38.5227 182.75 38.3324C182.881 38.1392 182.945 37.9162 182.942 37.6634C182.945 37.4162 182.89 37.2017 182.776 37.0199C182.665 36.8352 182.508 36.6918 182.303 36.5895C182.101 36.4872 181.864 36.4361 181.591 36.4361C181.324 36.4361 181.077 36.4844 180.85 36.581C180.623 36.6776 180.439 36.8153 180.3 36.9943C180.161 37.1705 180.087 37.3807 180.079 37.625H178.557C178.569 37.1364 178.709 36.7074 178.979 36.3381C179.252 35.9659 179.616 35.6761 180.07 35.4688C180.525 35.2585 181.035 35.1534 181.6 35.1534C182.182 35.1534 182.688 35.2628 183.117 35.4815C183.549 35.6974 183.883 35.9886 184.118 36.3551C184.354 36.7216 184.472 37.1264 184.472 37.5696C184.475 38.0611 184.33 38.473 184.037 38.8054C183.748 39.1378 183.367 39.3551 182.895 39.4574V39.5256C183.509 39.6108 183.979 39.8381 184.306 40.2074C184.635 40.5739 184.799 41.0298 184.796 41.5753C184.796 42.0639 184.657 42.5014 184.378 42.8878C184.103 43.2713 183.722 43.5724 183.236 43.7912C182.753 44.0099 182.199 44.1193 181.574 44.1193Z" fill="white"/>
<rect x="197.667" y="28" width="24" height="24" rx="4" fill="#8ED1D8"/>
<path d="M206.285 42.3807V41.1236L209.988 35.2727H211.036V37.0625H210.397L207.904 41.0128V41.081H213.073V42.3807H206.285ZM210.448 44V41.9972L210.465 41.4347V35.2727H211.956V44H210.448Z" fill="white"/>
<rect x="225.667" y="28" width="24" height="24" rx="4" fill="#8ED1D8"/>
<path d="M237.476 44.1193C236.908 44.1193 236.4 44.0128 235.951 43.7997C235.502 43.5838 235.145 43.2884 234.881 42.9134C234.62 42.5384 234.481 42.1094 234.464 41.6264H235.998C236.026 41.9844 236.181 42.277 236.462 42.5043C236.743 42.7287 237.081 42.8409 237.476 42.8409C237.786 42.8409 238.062 42.7699 238.303 42.6278C238.545 42.4858 238.735 42.2884 238.874 42.0355C239.013 41.7827 239.081 41.4943 239.079 41.1705C239.081 40.8409 239.012 40.5483 238.87 40.2926C238.728 40.0369 238.533 39.8366 238.286 39.6918C238.039 39.544 237.755 39.4702 237.434 39.4702C237.172 39.4673 236.915 39.5156 236.662 39.6151C236.41 39.7145 236.209 39.8452 236.062 40.0071L234.634 39.7727L235.09 35.2727H240.152V36.5938H236.398L236.147 38.9077H236.198C236.36 38.7173 236.589 38.5597 236.884 38.4347C237.179 38.3068 237.503 38.2429 237.856 38.2429C238.384 38.2429 238.856 38.3679 239.27 38.6179C239.685 38.8651 240.012 39.206 240.25 39.6406C240.489 40.0753 240.608 40.5724 240.608 41.1321C240.608 41.7088 240.475 42.223 240.208 42.6747C239.944 43.1236 239.576 43.4773 239.104 43.7358C238.635 43.9915 238.093 44.1193 237.476 44.1193Z" fill="white"/>
<rect x="253.667" y="28" width="24" height="24" rx="4" fill="#8ED1D8"/>
<path d="M265.638 44.1193C265.221 44.1165 264.813 44.044 264.415 43.902C264.018 43.7571 263.66 43.5227 263.341 43.1989C263.023 42.8722 262.77 42.4389 262.583 41.8991C262.395 41.3565 262.303 40.6847 262.306 39.8835C262.306 39.1364 262.385 38.4702 262.545 37.8849C262.704 37.2997 262.932 36.8054 263.231 36.402C263.529 35.9957 263.888 35.6861 264.309 35.473C264.732 35.2599 265.205 35.1534 265.728 35.1534C266.276 35.1534 266.762 35.2614 267.185 35.4773C267.611 35.6932 267.955 35.9886 268.216 36.3636C268.478 36.7358 268.64 37.1562 268.702 37.625H267.147C267.067 37.2898 266.904 37.0227 266.657 36.8239C266.412 36.6222 266.103 36.5213 265.728 36.5213C265.123 36.5213 264.657 36.7841 264.33 37.3097C264.006 37.8352 263.843 38.5568 263.84 39.4744H263.9C264.039 39.2244 264.219 39.0099 264.441 38.831C264.662 38.652 264.912 38.5142 265.191 38.4176C265.472 38.3182 265.769 38.2685 266.081 38.2685C266.593 38.2685 267.052 38.3906 267.458 38.6349C267.867 38.8793 268.191 39.2159 268.429 39.6449C268.668 40.071 268.786 40.5597 268.783 41.1108C268.786 41.6847 268.655 42.2003 268.391 42.6577C268.127 43.1122 267.759 43.4702 267.287 43.7315C266.816 43.9929 266.266 44.1222 265.638 44.1193ZM265.63 42.8409C265.939 42.8409 266.216 42.7656 266.461 42.6151C266.705 42.4645 266.898 42.2614 267.04 42.0057C267.182 41.75 267.252 41.4631 267.249 41.1449C267.252 40.8324 267.184 40.5497 267.045 40.2969C266.908 40.044 266.719 39.8437 266.478 39.696C266.236 39.5483 265.961 39.4744 265.651 39.4744C265.421 39.4744 265.206 39.5185 265.008 39.6065C264.809 39.6946 264.635 39.8168 264.488 39.973C264.34 40.1264 264.224 40.3054 264.138 40.5099C264.056 40.7116 264.013 40.9276 264.01 41.1577C264.013 41.4616 264.084 41.7415 264.224 41.9972C264.363 42.2528 264.554 42.4574 264.799 42.6108C265.043 42.7642 265.32 42.8409 265.63 42.8409Z" fill="white"/>
<rect x="85.6667" y="56" width="24" height="24" rx="4" fill="#8ED1D8"/>
<path d="M94.7619 72L98.4735 64.6534V64.5938H94.1653V63.2727H100.11V64.6236L96.4025 72H94.7619Z" fill="white"/>
<rect x="113.667" y="56" width="24" height="24" rx="4" fill="#F9B10C"/>
<path d="M125.545 72.1193C124.911 72.1193 124.349 72.0128 123.857 71.7997C123.368 71.5866 122.985 71.2955 122.706 70.9261C122.431 70.554 122.295 70.1321 122.297 69.6605C122.295 69.294 122.374 68.9574 122.536 68.6506C122.698 68.3438 122.917 68.0881 123.192 67.8835C123.471 67.6761 123.78 67.544 124.121 67.4872V67.4276C123.672 67.3281 123.309 67.0994 123.03 66.7415C122.755 66.3807 122.618 65.9645 122.621 65.4929C122.618 65.044 122.743 64.6435 122.996 64.2912C123.249 63.9389 123.596 63.6619 124.036 63.4602C124.476 63.2557 124.979 63.1534 125.545 63.1534C126.104 63.1534 126.603 63.2557 127.04 63.4602C127.481 63.6619 127.827 63.9389 128.08 64.2912C128.336 64.6435 128.464 65.044 128.464 65.4929C128.464 65.9645 128.323 66.3807 128.042 66.7415C127.763 67.0994 127.404 67.3281 126.964 67.4276V67.4872C127.304 67.544 127.611 67.6761 127.884 67.8835C128.16 68.0881 128.378 68.3438 128.54 68.6506C128.705 68.9574 128.787 69.294 128.787 69.6605C128.787 70.1321 128.648 70.554 128.37 70.9261C128.091 71.2955 127.708 71.5866 127.219 71.7997C126.733 72.0128 126.175 72.1193 125.545 72.1193ZM125.545 70.9006C125.871 70.9006 126.155 70.8452 126.397 70.7344C126.638 70.6207 126.826 70.4616 126.959 70.2571C127.093 70.0526 127.161 69.8168 127.164 69.5497C127.161 69.2713 127.089 69.0256 126.947 68.8125C126.807 68.5966 126.616 68.4276 126.371 68.3054C126.13 68.1832 125.854 68.1222 125.545 68.1222C125.232 68.1222 124.954 68.1832 124.709 68.3054C124.465 68.4276 124.272 68.5966 124.13 68.8125C123.991 69.0256 123.922 69.2713 123.925 69.5497C123.922 69.8168 123.988 70.0526 124.121 70.2571C124.255 70.4588 124.442 70.6165 124.684 70.7301C124.928 70.8437 125.215 70.9006 125.545 70.9006ZM125.545 66.9247C125.812 66.9247 126.047 66.8707 126.252 66.7628C126.459 66.6548 126.623 66.5043 126.742 66.3111C126.861 66.1179 126.922 65.8949 126.925 65.642C126.922 65.392 126.863 65.1733 126.746 64.9858C126.63 64.7955 126.468 64.6491 126.26 64.5469C126.053 64.4418 125.814 64.3892 125.545 64.3892C125.269 64.3892 125.026 64.4418 124.816 64.5469C124.608 64.6491 124.447 64.7955 124.33 64.9858C124.216 65.1733 124.161 65.392 124.164 65.642C124.161 65.8949 124.218 66.1179 124.334 66.3111C124.454 66.5014 124.617 66.652 124.824 66.7628C125.035 66.8707 125.275 66.9247 125.545 66.9247Z" fill="white"/>
<rect x="141.667" y="56" width="24" height="24" rx="4" fill="#8ED1D8"/>
<path d="M153.472 63.1534C153.89 63.1562 154.296 63.2301 154.691 63.375C155.089 63.517 155.447 63.75 155.765 64.0739C156.083 64.3949 156.336 64.8253 156.523 65.3651C156.711 65.9048 156.804 66.5724 156.804 67.3679C156.807 68.1179 156.728 68.7884 156.566 69.3793C156.407 69.9673 156.178 70.4645 155.88 70.8707C155.581 71.277 155.222 71.5866 154.802 71.7997C154.381 72.0128 153.908 72.1193 153.383 72.1193C152.831 72.1193 152.343 72.0114 151.917 71.7955C151.493 71.5795 151.151 71.2841 150.89 70.9091C150.628 70.5341 150.468 70.1051 150.408 69.6222H151.964C152.043 69.9687 152.205 70.2443 152.449 70.4489C152.697 70.6506 153.008 70.7514 153.383 70.7514C153.988 70.7514 154.454 70.4886 154.78 69.9631C155.107 69.4375 155.27 68.7074 155.27 67.7727H155.211C155.072 68.0227 154.891 68.2386 154.67 68.4205C154.448 68.5994 154.197 68.7372 153.915 68.8338C153.637 68.9304 153.341 68.9787 153.029 68.9787C152.518 68.9787 152.057 68.8565 151.648 68.6122C151.242 68.3679 150.92 68.0327 150.681 67.6065C150.445 67.1804 150.326 66.6932 150.323 66.1449C150.323 65.5767 150.454 65.0668 150.715 64.6151C150.979 64.1605 151.347 63.8026 151.819 63.5412C152.29 63.277 152.841 63.1477 153.472 63.1534ZM153.476 64.4318C153.17 64.4318 152.893 64.5071 152.645 64.6577C152.401 64.8054 152.208 65.0071 152.066 65.2628C151.927 65.5156 151.857 65.7983 151.857 66.1108C151.86 66.4205 151.929 66.7017 152.066 66.9545C152.205 67.2074 152.394 67.4077 152.633 67.5554C152.874 67.7031 153.15 67.777 153.459 67.777C153.689 67.777 153.904 67.733 154.103 67.6449C154.302 67.5568 154.475 67.4347 154.623 67.2784C154.773 67.1193 154.89 66.9389 154.972 66.7372C155.057 66.5355 155.099 66.3224 155.096 66.098C155.096 65.7997 155.025 65.5241 154.883 65.2713C154.743 65.0185 154.552 64.8153 154.307 64.6619C154.066 64.5085 153.789 64.4318 153.476 64.4318Z" fill="white"/>
<rect x="169.667" y="56" width="24" height="24" rx="4" fill="#8A95AB"/>
<path d="M178.992 63.2727V72H177.411V64.8111H177.36L175.319 66.1151V64.6662L177.488 63.2727H178.992ZM184.494 72.1662C183.792 72.1662 183.19 71.9886 182.687 71.6335C182.187 71.2756 181.802 70.7599 181.532 70.0866C181.265 69.4105 181.132 68.5966 181.132 67.6449C181.134 66.6932 181.269 65.8835 181.536 65.2159C181.806 64.5455 182.191 64.0341 182.691 63.6818C183.194 63.3295 183.795 63.1534 184.494 63.1534C185.193 63.1534 185.793 63.3295 186.296 63.6818C186.799 64.0341 187.184 64.5455 187.451 65.2159C187.721 65.8864 187.856 66.696 187.856 67.6449C187.856 68.5994 187.721 69.4148 187.451 70.0909C187.184 70.7642 186.799 71.2784 186.296 71.6335C185.796 71.9886 185.195 72.1662 184.494 72.1662ZM184.494 70.8324C185.039 70.8324 185.47 70.5639 185.785 70.027C186.103 69.4872 186.262 68.6932 186.262 67.6449C186.262 66.9517 186.19 66.3693 186.045 65.8977C185.9 65.4261 185.695 65.071 185.431 64.8324C185.167 64.5909 184.855 64.4702 184.494 64.4702C183.951 64.4702 183.522 64.7401 183.207 65.2798C182.891 65.8168 182.732 66.6051 182.73 67.6449C182.727 68.3409 182.796 68.9261 182.938 69.4006C183.083 69.875 183.288 70.233 183.552 70.4744C183.816 70.7131 184.13 70.8324 184.494 70.8324Z" fill="white"/>
<rect x="197.667" y="56" width="24" height="24" rx="4" fill="#8A95AB"/>
<path d="M207.992 63.2727V72H206.411V64.8111H206.36L204.319 66.1151V64.6662L206.488 63.2727H207.992ZM213.818 63.2727V72H212.237V64.8111H212.185L210.144 66.1151V64.6662L212.313 63.2727H213.818Z" fill="white"/>
<rect x="225.667" y="56" width="24" height="24" rx="4" fill="#8ED1D8"/>
<path d="M234.992 63.2727V72H233.411V64.8111H233.36L231.319 66.1151V64.6662L233.488 63.2727H234.992ZM237.268 72V70.858L240.298 67.8878C240.587 67.5952 240.829 67.3352 241.022 67.108C241.215 66.8807 241.36 66.6605 241.457 66.4474C241.553 66.2344 241.602 66.0071 241.602 65.7656C241.602 65.4901 241.539 65.2543 241.414 65.0582C241.289 64.8594 241.117 64.706 240.899 64.598C240.68 64.4901 240.431 64.4361 240.153 64.4361C239.866 64.4361 239.614 64.4957 239.399 64.6151C239.183 64.7315 239.015 64.8977 238.896 65.1136C238.779 65.3295 238.721 65.5866 238.721 65.8849H237.217C237.217 65.331 237.343 64.8494 237.596 64.4403C237.849 64.0312 238.197 63.7145 238.64 63.4901C239.086 63.2656 239.597 63.1534 240.174 63.1534C240.759 63.1534 241.274 63.2628 241.717 63.4815C242.16 63.7003 242.504 64 242.748 64.3807C242.995 64.7614 243.119 65.196 243.119 65.6847C243.119 66.0114 243.056 66.3324 242.931 66.6477C242.806 66.9631 242.586 67.3125 242.271 67.696C241.958 68.0795 241.519 68.544 240.954 69.0895L239.45 70.6193V70.679H243.251V72H237.268Z" fill="white"/>
<rect x="253.667" y="56" width="24" height="24" rx="4" fill="#F9B10C"/>
<path d="M262.992 63.2727V72H261.411V64.8111H261.36L259.319 66.1151V64.6662L261.488 63.2727H262.992ZM268.4 72.1193C267.786 72.1193 267.241 72.0142 266.764 71.804C266.289 71.5937 265.914 71.3011 265.639 70.9261C265.363 70.5511 265.217 70.1179 265.2 69.6264H266.802C266.816 69.8622 266.894 70.0682 267.036 70.2443C267.178 70.4176 267.367 70.5526 267.603 70.6491C267.839 70.7457 268.103 70.794 268.396 70.794C268.708 70.794 268.985 70.7401 269.227 70.6321C269.468 70.5213 269.657 70.3679 269.793 70.1719C269.93 69.9759 269.997 69.75 269.994 69.4943C269.997 69.2301 269.928 68.9972 269.789 68.7955C269.65 68.5937 269.448 68.4361 269.184 68.3224C268.923 68.2088 268.607 68.152 268.238 68.152H267.467V66.9332H268.238C268.542 66.9332 268.808 66.8807 269.035 66.7756C269.265 66.6705 269.445 66.5227 269.576 66.3324C269.707 66.1392 269.771 65.9162 269.768 65.6634C269.771 65.4162 269.715 65.2017 269.602 65.0199C269.491 64.8352 269.333 64.6918 269.129 64.5895C268.927 64.4872 268.69 64.4361 268.417 64.4361C268.15 64.4361 267.903 64.4844 267.676 64.581C267.448 64.6776 267.265 64.8153 267.126 64.9943C266.987 65.1705 266.913 65.3807 266.904 65.625H265.383C265.394 65.1364 265.535 64.7074 265.805 64.3381C266.078 63.9659 266.441 63.6761 266.896 63.4688C267.35 63.2585 267.86 63.1534 268.426 63.1534C269.008 63.1534 269.514 63.2628 269.943 63.4815C270.374 63.6974 270.708 63.9886 270.944 64.3551C271.18 64.7216 271.298 65.1264 271.298 65.5696C271.301 66.0611 271.156 66.473 270.863 66.8054C270.573 67.1378 270.193 67.3551 269.721 67.4574V67.5256C270.335 67.6108 270.805 67.8381 271.132 68.2074C271.461 68.5739 271.624 69.0298 271.622 69.5753C271.622 70.0639 271.482 70.5014 271.204 70.8878C270.928 71.2713 270.548 71.5724 270.062 71.7912C269.579 72.0099 269.025 72.1193 268.4 72.1193Z" fill="white"/>
<rect x="85.6667" y="84" width="24" height="24" rx="4" fill="#8ED1D8"/>
<path d="M94.992 91.2727V100H93.411V92.8111H93.3599L91.3187 94.1151V92.6662L93.4877 91.2727H94.992ZM97.1102 98.3807V97.1236L100.813 91.2727H101.862V93.0625H101.222L98.7295 97.0128V97.081H103.899V98.3807H97.1102ZM101.274 100V97.9972L101.291 97.4347V91.2727H102.782V100H101.274Z" fill="white"/>
<rect x="113.667" y="84" width="24" height="24" rx="4" fill="#8ED1D8"/>
<path d="M122.992 91.2727V100H121.411V92.8111H121.36L119.319 94.1151V92.6662L121.488 91.2727H122.992ZM128.302 100.119C127.734 100.119 127.225 100.013 126.776 99.7997C126.328 99.5838 125.971 99.2884 125.707 98.9134C125.445 98.5384 125.306 98.1094 125.289 97.6264H126.823C126.852 97.9844 127.007 98.277 127.288 98.5043C127.569 98.7287 127.907 98.8409 128.302 98.8409C128.612 98.8409 128.887 98.7699 129.129 98.6278C129.37 98.4858 129.56 98.2884 129.7 98.0355C129.839 97.7827 129.907 97.4943 129.904 97.1705C129.907 96.8409 129.837 96.5483 129.695 96.2926C129.553 96.0369 129.359 95.8366 129.112 95.6918C128.864 95.544 128.58 95.4702 128.259 95.4702C127.998 95.4673 127.741 95.5156 127.488 95.6151C127.235 95.7145 127.035 95.8452 126.887 96.0071L125.46 95.7727L125.916 91.2727H130.978V92.5938H127.224L126.972 94.9077H127.024C127.185 94.7173 127.414 94.5597 127.71 94.4347C128.005 94.3068 128.329 94.2429 128.681 94.2429C129.21 94.2429 129.681 94.3679 130.096 94.6179C130.511 94.8651 130.837 95.206 131.076 95.6406C131.315 96.0753 131.434 96.5724 131.434 97.1321C131.434 97.7088 131.301 98.223 131.034 98.6747C130.769 99.1236 130.401 99.4773 129.93 99.7358C129.461 99.9915 128.918 100.119 128.302 100.119Z" fill="white"/>
<rect x="141.667" y="84" width="24" height="24" rx="4" fill="#F9B10C"/>
<path d="M150.992 91.2727V100H149.411V92.8111H149.36L147.319 94.1151V92.6662L149.488 91.2727H150.992ZM156.464 100.119C156.046 100.116 155.639 100.044 155.241 99.902C154.843 99.7571 154.485 99.5227 154.167 99.1989C153.849 98.8722 153.596 98.4389 153.409 97.8991C153.221 97.3565 153.129 96.6847 153.132 95.8835C153.132 95.1364 153.211 94.4702 153.37 93.8849C153.529 93.2997 153.758 92.8054 154.056 92.402C154.355 91.9957 154.714 91.6861 155.134 91.473C155.558 91.2599 156.031 91.1534 156.553 91.1534C157.102 91.1534 157.587 91.2614 158.011 91.4773C158.437 91.6932 158.781 91.9886 159.042 92.3636C159.303 92.7358 159.465 93.1562 159.528 93.625H157.972C157.893 93.2898 157.73 93.0227 157.482 92.8239C157.238 92.6222 156.928 92.5213 156.553 92.5213C155.948 92.5213 155.482 92.7841 155.156 93.3097C154.832 93.8352 154.668 94.5568 154.666 95.4744H154.725C154.864 95.2244 155.045 95.0099 155.266 94.831C155.488 94.652 155.738 94.5142 156.016 94.4176C156.298 94.3182 156.595 94.2685 156.907 94.2685C157.418 94.2685 157.877 94.3906 158.284 94.6349C158.693 94.8793 159.016 95.2159 159.255 95.6449C159.494 96.071 159.612 96.5597 159.609 97.1108C159.612 97.6847 159.481 98.2003 159.217 98.6577C158.953 99.1122 158.585 99.4702 158.113 99.7315C157.641 99.9929 157.092 100.122 156.464 100.119ZM156.455 98.8409C156.765 98.8409 157.042 98.7656 157.286 98.6151C157.531 98.4645 157.724 98.2614 157.866 98.0057C158.008 97.75 158.078 97.4631 158.075 97.1449C158.078 96.8324 158.009 96.5497 157.87 96.2969C157.734 96.044 157.545 95.8437 157.303 95.696C157.062 95.5483 156.786 95.4744 156.477 95.4744C156.247 95.4744 156.032 95.5185 155.833 95.6065C155.634 95.6946 155.461 95.8168 155.313 95.973C155.166 96.1264 155.049 96.3054 154.964 96.5099C154.882 96.7116 154.839 96.9276 154.836 97.1577C154.839 97.4616 154.91 97.7415 155.049 97.9972C155.188 98.2528 155.38 98.4574 155.624 98.6108C155.869 98.7642 156.146 98.8409 156.455 98.8409Z" fill="white"/>
<rect x="169.667" y="84" width="24" height="24" rx="4" fill="#F9B10C"/>
<path d="M179.492 91.2727V100H177.911V92.8111H177.86L175.819 94.1151V92.6662L177.988 91.2727H179.492ZM182.087 100L185.799 92.6534V92.5938H181.491V91.2727H187.435V92.6236L183.728 100H182.087Z" fill="white"/>
<rect x="197.667" y="84" width="24" height="24" rx="4" fill="#8A95AB"/>
<path d="M206.992 91.2727V100H205.411V92.8111H205.36L203.319 94.1151V92.6662L205.488 91.2727H206.992ZM212.37 100.119C211.737 100.119 211.174 100.013 210.683 99.7997C210.194 99.5866 209.81 99.2955 209.532 98.9261C209.257 98.554 209.12 98.1321 209.123 97.6605C209.12 97.294 209.2 96.9574 209.362 96.6506C209.524 96.3438 209.742 96.0881 210.018 95.8835C210.296 95.6761 210.606 95.544 210.947 95.4872V95.4276C210.498 95.3281 210.134 95.0994 209.856 94.7415C209.58 94.3807 209.444 93.9645 209.447 93.4929C209.444 93.044 209.569 92.6435 209.822 92.2912C210.075 91.9389 210.421 91.6619 210.862 91.4602C211.302 91.2557 211.805 91.1534 212.37 91.1534C212.93 91.1534 213.428 91.2557 213.866 91.4602C214.306 91.6619 214.653 91.9389 214.906 92.2912C215.161 92.6435 215.289 93.044 215.289 93.4929C215.289 93.9645 215.149 94.3807 214.867 94.7415C214.589 95.0994 214.23 95.3281 213.789 95.4276V95.4872C214.13 95.544 214.437 95.6761 214.71 95.8835C214.985 96.0881 215.204 96.3438 215.366 96.6506C215.531 96.9574 215.613 97.294 215.613 97.6605C215.613 98.1321 215.474 98.554 215.195 98.9261C214.917 99.2955 214.534 99.5866 214.045 99.7997C213.559 100.013 213.001 100.119 212.37 100.119ZM212.37 98.9006C212.697 98.9006 212.981 98.8452 213.222 98.7344C213.464 98.6207 213.651 98.4616 213.785 98.2571C213.918 98.0526 213.987 97.8168 213.989 97.5497C213.987 97.2713 213.914 97.0256 213.772 96.8125C213.633 96.5966 213.441 96.4276 213.197 96.3054C212.955 96.1832 212.68 96.1222 212.37 96.1222C212.058 96.1222 211.779 96.1832 211.535 96.3054C211.291 96.4276 211.097 96.5966 210.955 96.8125C210.816 97.0256 210.748 97.2713 210.751 97.5497C210.748 97.8168 210.813 98.0526 210.947 98.2571C211.08 98.4588 211.268 98.6165 211.509 98.7301C211.754 98.8437 212.041 98.9006 212.37 98.9006ZM212.37 94.9247C212.637 94.9247 212.873 94.8707 213.078 94.7628C213.285 94.6548 213.448 94.5043 213.568 94.3111C213.687 94.1179 213.748 93.8949 213.751 93.642C213.748 93.392 213.688 93.1733 213.572 92.9858C213.455 92.7955 213.293 92.6491 213.086 92.5469C212.879 92.4418 212.64 92.3892 212.37 92.3892C212.095 92.3892 211.852 92.4418 211.641 92.5469C211.434 92.6491 211.272 92.7955 211.156 92.9858C211.042 93.1733 210.987 93.392 210.989 93.642C210.987 93.8949 211.043 94.1179 211.16 94.3111C211.279 94.5014 211.443 94.652 211.65 94.7628C211.86 94.8707 212.1 94.9247 212.37 94.9247Z" fill="white"/>
<rect x="225.667" y="84" width="24" height="24" rx="4" fill="#8ED1D8"/>
<path d="M234.992 91.2727V100H233.411V92.8111H233.36L231.319 94.1151V92.6662L233.488 91.2727H234.992ZM240.298 91.1534C240.715 91.1562 241.122 91.2301 241.516 91.375C241.914 91.517 242.272 91.75 242.59 92.0739C242.909 92.3949 243.161 92.8253 243.349 93.3651C243.536 93.9048 243.63 94.5724 243.63 95.3679C243.633 96.1179 243.553 96.7884 243.391 97.3793C243.232 97.9673 243.004 98.4645 242.705 98.8707C242.407 99.277 242.048 99.5866 241.627 99.7997C241.207 100.013 240.734 100.119 240.208 100.119C239.657 100.119 239.168 100.011 238.742 99.7955C238.319 99.5795 237.977 99.2841 237.715 98.9091C237.454 98.5341 237.293 98.1051 237.234 97.6222H238.789C238.869 97.9687 239.031 98.2443 239.275 98.4489C239.522 98.6506 239.833 98.7514 240.208 98.7514C240.813 98.7514 241.279 98.4886 241.606 97.9631C241.933 97.4375 242.096 96.7074 242.096 95.7727H242.036C241.897 96.0227 241.717 96.2386 241.495 96.4205C241.274 96.5994 241.022 96.7372 240.741 96.8338C240.462 96.9304 240.167 96.9787 239.855 96.9787C239.343 96.9787 238.883 96.8565 238.474 96.6122C238.068 96.3679 237.745 96.0327 237.507 95.6065C237.271 95.1804 237.151 94.6932 237.149 94.1449C237.149 93.5767 237.279 93.0668 237.541 92.6151C237.805 92.1605 238.173 91.8026 238.644 91.5412C239.116 91.277 239.667 91.1477 240.298 91.1534ZM240.302 92.4318C239.995 92.4318 239.718 92.5071 239.471 92.6577C239.227 92.8054 239.034 93.0071 238.891 93.2628C238.752 93.5156 238.683 93.7983 238.683 94.1108C238.685 94.4205 238.755 94.7017 238.891 94.9545C239.031 95.2074 239.22 95.4077 239.458 95.5554C239.7 95.7031 239.975 95.777 240.285 95.777C240.515 95.777 240.73 95.733 240.928 95.6449C241.127 95.5568 241.301 95.4347 241.448 95.2784C241.599 95.1193 241.715 94.9389 241.798 94.7372C241.883 94.5355 241.924 94.3224 241.921 94.098C241.921 93.7997 241.85 93.5241 241.708 93.2713C241.569 93.0185 241.377 92.8153 241.133 92.6619C240.891 92.5085 240.614 92.4318 240.302 92.4318Z" fill="white"/>
<rect x="253.667" y="84" width="24" height="24" rx="4" fill="#F9B10C"/>
<path d="M258.442 100V98.858L261.472 95.8878C261.762 95.5952 262.003 95.3352 262.197 95.108C262.39 94.8807 262.535 94.6605 262.631 94.4474C262.728 94.2344 262.776 94.0071 262.776 93.7656C262.776 93.4901 262.714 93.2543 262.589 93.0582C262.464 92.8594 262.292 92.706 262.073 92.598C261.854 92.4901 261.606 92.4361 261.327 92.4361C261.04 92.4361 260.789 92.4957 260.573 92.6151C260.357 92.7315 260.189 92.8977 260.07 93.1136C259.954 93.3295 259.895 93.5866 259.895 93.8849H258.391C258.391 93.331 258.518 92.8494 258.77 92.4403C259.023 92.0312 259.371 91.7145 259.814 91.4901C260.26 91.2656 260.772 91.1534 261.349 91.1534C261.934 91.1534 262.448 91.2628 262.891 91.4815C263.334 91.7003 263.678 92 263.922 92.3807C264.17 92.7614 264.293 93.196 264.293 93.6847C264.293 94.0114 264.231 94.3324 264.106 94.6477C263.981 94.9631 263.76 95.3125 263.445 95.696C263.133 96.0795 262.694 96.544 262.128 97.0895L260.624 98.6193V98.679H264.425V100H258.442ZM269.181 100.166C268.48 100.166 267.877 99.9886 267.374 99.6335C266.874 99.2756 266.489 98.7599 266.22 98.0866C265.953 97.4105 265.819 96.5966 265.819 95.6449C265.822 94.6932 265.957 93.8835 266.224 93.2159C266.494 92.5455 266.879 92.0341 267.379 91.6818C267.882 91.3295 268.482 91.1534 269.181 91.1534C269.88 91.1534 270.481 91.3295 270.984 91.6818C271.487 92.0341 271.872 92.5455 272.139 93.2159C272.409 93.8864 272.543 94.696 272.543 95.6449C272.543 96.5994 272.409 97.4148 272.139 98.0909C271.872 98.7642 271.487 99.2784 270.984 99.6335C270.484 99.9886 269.883 100.166 269.181 100.166ZM269.181 98.8324C269.727 98.8324 270.157 98.5639 270.472 98.027C270.791 97.4872 270.95 96.6932 270.95 95.6449C270.95 94.9517 270.877 94.3693 270.732 93.8977C270.587 93.4261 270.383 93.071 270.119 92.8324C269.855 92.5909 269.542 92.4702 269.181 92.4702C268.639 92.4702 268.21 92.7401 267.894 93.2798C267.579 93.8168 267.42 94.6051 267.417 95.6449C267.414 96.3409 267.484 96.9261 267.626 97.4006C267.771 97.875 267.975 98.233 268.239 98.4744C268.504 98.7131 268.818 98.8324 269.181 98.8324Z" fill="white"/>
<rect x="85.6667" y="112" width="24" height="24" rx="4" fill="#8A95AB"/>
<path d="M91.4423 128V126.858L94.4721 123.888C94.7619 123.595 95.0033 123.335 95.1965 123.108C95.3897 122.881 95.5346 122.661 95.6312 122.447C95.7278 122.234 95.7761 122.007 95.7761 121.766C95.7761 121.49 95.7136 121.254 95.5886 121.058C95.4636 120.859 95.2917 120.706 95.0729 120.598C94.8542 120.49 94.6056 120.436 94.3272 120.436C94.0403 120.436 93.7888 120.496 93.5729 120.615C93.357 120.732 93.1894 120.898 93.0701 121.114C92.9536 121.33 92.8954 121.587 92.8954 121.885H91.3911C91.3911 121.331 91.5175 120.849 91.7704 120.44C92.0232 120.031 92.3712 119.714 92.8144 119.49C93.2604 119.266 93.7718 119.153 94.3485 119.153C94.9337 119.153 95.4479 119.263 95.8911 119.482C96.3343 119.7 96.6781 120 96.9224 120.381C97.1695 120.761 97.2931 121.196 97.2931 121.685C97.2931 122.011 97.2306 122.332 97.1056 122.648C96.9806 122.963 96.7604 123.312 96.4451 123.696C96.1326 124.08 95.6937 124.544 95.1283 125.089L93.6241 126.619V126.679H97.4252V128H91.4423ZM102.505 119.273V128H100.924V120.811H100.873L98.8318 122.115V120.666L101.001 119.273H102.505Z" fill="white"/>
<rect x="113.667" y="112" width="24" height="24" rx="4" fill="#8ED1D8"/>
<path d="M118.942 128V126.858L121.972 123.888C122.262 123.595 122.503 123.335 122.697 123.108C122.89 122.881 123.035 122.661 123.131 122.447C123.228 122.234 123.276 122.007 123.276 121.766C123.276 121.49 123.214 121.254 123.089 121.058C122.964 120.859 122.792 120.706 122.573 120.598C122.354 120.49 122.106 120.436 121.827 120.436C121.54 120.436 121.289 120.496 121.073 120.615C120.857 120.732 120.689 120.898 120.57 121.114C120.454 121.33 120.395 121.587 120.395 121.885H118.891C118.891 121.331 119.018 120.849 119.27 120.44C119.523 120.031 119.871 119.714 120.314 119.49C120.76 119.266 121.272 119.153 121.849 119.153C122.434 119.153 122.948 119.263 123.391 119.482C123.834 119.7 124.178 120 124.422 120.381C124.67 120.761 124.793 121.196 124.793 121.685C124.793 122.011 124.731 122.332 124.606 122.648C124.481 122.963 124.26 123.312 123.945 123.696C123.633 124.08 123.194 124.544 122.628 125.089L121.124 126.619V126.679H124.925V128H118.942ZM126.455 128V126.858L129.485 123.888C129.775 123.595 130.016 123.335 130.21 123.108C130.403 122.881 130.548 122.661 130.644 122.447C130.741 122.234 130.789 122.007 130.789 121.766C130.789 121.49 130.727 121.254 130.602 121.058C130.477 120.859 130.305 120.706 130.086 120.598C129.867 120.49 129.619 120.436 129.34 120.436C129.053 120.436 128.802 120.496 128.586 120.615C128.37 120.732 128.203 120.898 128.083 121.114C127.967 121.33 127.909 121.587 127.909 121.885H126.404C126.404 121.331 126.531 120.849 126.784 120.44C127.036 120.031 127.384 119.714 127.828 119.49C128.274 119.266 128.785 119.153 129.362 119.153C129.947 119.153 130.461 119.263 130.904 119.482C131.347 119.7 131.691 120 131.935 120.381C132.183 120.761 132.306 121.196 132.306 121.685C132.306 122.011 132.244 122.332 132.119 122.648C131.994 122.963 131.774 123.312 131.458 123.696C131.146 124.08 130.707 124.544 130.141 125.089L128.637 126.619V126.679H132.438V128H126.455Z" fill="white"/>
<rect x="141.667" y="112" width="24" height="24" rx="4" fill="#8ED1D8"/>
<path d="M146.442 128V126.858L149.472 123.888C149.762 123.595 150.003 123.335 150.197 123.108C150.39 122.881 150.535 122.661 150.631 122.447C150.728 122.234 150.776 122.007 150.776 121.766C150.776 121.49 150.714 121.254 150.589 121.058C150.464 120.859 150.292 120.706 150.073 120.598C149.854 120.49 149.606 120.436 149.327 120.436C149.04 120.436 148.789 120.496 148.573 120.615C148.357 120.732 148.189 120.898 148.07 121.114C147.954 121.33 147.895 121.587 147.895 121.885H146.391C146.391 121.331 146.518 120.849 146.77 120.44C147.023 120.031 147.371 119.714 147.814 119.49C148.26 119.266 148.772 119.153 149.349 119.153C149.934 119.153 150.448 119.263 150.891 119.482C151.334 119.7 151.678 120 151.922 120.381C152.17 120.761 152.293 121.196 152.293 121.685C152.293 122.011 152.231 122.332 152.106 122.648C151.981 122.963 151.76 123.312 151.445 123.696C151.133 124.08 150.694 124.544 150.128 125.089L148.624 126.619V126.679H152.425V128H146.442ZM157.087 128.119C156.474 128.119 155.928 128.014 155.451 127.804C154.977 127.594 154.602 127.301 154.326 126.926C154.051 126.551 153.904 126.118 153.887 125.626H155.489C155.504 125.862 155.582 126.068 155.724 126.244C155.866 126.418 156.055 126.553 156.291 126.649C156.526 126.746 156.791 126.794 157.083 126.794C157.396 126.794 157.673 126.74 157.914 126.632C158.156 126.521 158.345 126.368 158.481 126.172C158.617 125.976 158.684 125.75 158.681 125.494C158.684 125.23 158.616 124.997 158.477 124.795C158.337 124.594 158.136 124.436 157.872 124.322C157.61 124.209 157.295 124.152 156.926 124.152H156.154V122.933H156.926C157.23 122.933 157.495 122.881 157.722 122.776C157.953 122.67 158.133 122.523 158.264 122.332C158.394 122.139 158.458 121.916 158.455 121.663C158.458 121.416 158.403 121.202 158.289 121.02C158.178 120.835 158.021 120.692 157.816 120.589C157.614 120.487 157.377 120.436 157.105 120.436C156.837 120.436 156.59 120.484 156.363 120.581C156.136 120.678 155.953 120.815 155.813 120.994C155.674 121.17 155.6 121.381 155.592 121.625H154.07C154.082 121.136 154.222 120.707 154.492 120.338C154.765 119.966 155.129 119.676 155.583 119.469C156.038 119.259 156.548 119.153 157.113 119.153C157.695 119.153 158.201 119.263 158.63 119.482C159.062 119.697 159.396 119.989 159.632 120.355C159.867 120.722 159.985 121.126 159.985 121.57C159.988 122.061 159.843 122.473 159.551 122.805C159.261 123.138 158.88 123.355 158.409 123.457V123.526C159.022 123.611 159.492 123.838 159.819 124.207C160.149 124.574 160.312 125.03 160.309 125.575C160.309 126.064 160.17 126.501 159.891 126.888C159.616 127.271 159.235 127.572 158.749 127.791C158.266 128.01 157.712 128.119 157.087 128.119Z" fill="white"/>
<rect x="168.667" y="111" width="26" height="26" rx="5" fill="#8A95AB"/>
<path d="M174.442 128V126.858L177.472 123.888C177.762 123.595 178.003 123.335 178.197 123.108C178.39 122.881 178.535 122.661 178.631 122.447C178.728 122.234 178.776 122.007 178.776 121.766C178.776 121.49 178.714 121.254 178.589 121.058C178.464 120.859 178.292 120.706 178.073 120.598C177.854 120.49 177.606 120.436 177.327 120.436C177.04 120.436 176.789 120.496 176.573 120.615C176.357 120.732 176.189 120.898 176.07 121.114C175.954 121.33 175.895 121.587 175.895 121.885H174.391C174.391 121.331 174.518 120.849 174.77 120.44C175.023 120.031 175.371 119.714 175.814 119.49C176.26 119.266 176.772 119.153 177.349 119.153C177.934 119.153 178.448 119.263 178.891 119.482C179.334 119.7 179.678 120 179.922 120.381C180.17 120.761 180.293 121.196 180.293 121.685C180.293 122.011 180.231 122.332 180.106 122.648C179.981 122.963 179.76 123.312 179.445 123.696C179.133 124.08 178.694 124.544 178.128 125.089L176.624 126.619V126.679H180.425V128H174.442ZM181.61 126.381V125.124L185.313 119.273H186.362V121.062H185.722L183.23 125.013V125.081H188.399V126.381H181.61ZM185.774 128V125.997L185.791 125.435V119.273H187.282V128H185.774Z" fill="white"/>
<rect x="168.667" y="111" width="26" height="26" rx="5" stroke="#DADFE9" stroke-width="2"/>
<rect x="197.667" y="112" width="24" height="24" rx="4" fill="white"/>
<path d="M202.442 128V126.858L205.472 123.888C205.762 123.595 206.003 123.335 206.197 123.108C206.39 122.881 206.535 122.661 206.631 122.447C206.728 122.234 206.776 122.007 206.776 121.766C206.776 121.49 206.714 121.254 206.589 121.058C206.464 120.859 206.292 120.706 206.073 120.598C205.854 120.49 205.606 120.436 205.327 120.436C205.04 120.436 204.789 120.496 204.573 120.615C204.357 120.732 204.189 120.898 204.07 121.114C203.954 121.33 203.895 121.587 203.895 121.885H202.391C202.391 121.331 202.518 120.849 202.77 120.44C203.023 120.031 203.371 119.714 203.814 119.49C204.26 119.266 204.772 119.153 205.349 119.153C205.934 119.153 206.448 119.263 206.891 119.482C207.334 119.7 207.678 120 207.922 120.381C208.17 120.761 208.293 121.196 208.293 121.685C208.293 122.011 208.231 122.332 208.106 122.648C207.981 122.963 207.76 123.312 207.445 123.696C207.133 124.08 206.694 124.544 206.128 125.089L204.624 126.619V126.679H208.425V128H202.442ZM212.989 128.119C212.421 128.119 211.913 128.013 211.464 127.8C211.015 127.584 210.659 127.288 210.394 126.913C210.133 126.538 209.994 126.109 209.977 125.626H211.511C211.539 125.984 211.694 126.277 211.975 126.504C212.257 126.729 212.595 126.841 212.989 126.841C213.299 126.841 213.575 126.77 213.816 126.628C214.058 126.486 214.248 126.288 214.387 126.036C214.526 125.783 214.595 125.494 214.592 125.17C214.595 124.841 214.525 124.548 214.383 124.293C214.241 124.037 214.046 123.837 213.799 123.692C213.552 123.544 213.268 123.47 212.947 123.47C212.685 123.467 212.428 123.516 212.176 123.615C211.923 123.714 211.722 123.845 211.575 124.007L210.147 123.773L210.603 119.273H215.666V120.594H211.911L211.66 122.908H211.711C211.873 122.717 212.102 122.56 212.397 122.435C212.693 122.307 213.016 122.243 213.369 122.243C213.897 122.243 214.369 122.368 214.784 122.618C215.198 122.865 215.525 123.206 215.764 123.641C216.002 124.075 216.122 124.572 216.122 125.132C216.122 125.709 215.988 126.223 215.721 126.675C215.457 127.124 215.089 127.477 214.617 127.736C214.149 127.991 213.606 128.119 212.989 128.119Z" fill="#8A95AB"/>
<rect x="225.667" y="112" width="24" height="24" rx="4" fill="white"/>
<path d="M230.442 128V126.858L233.472 123.888C233.762 123.595 234.003 123.335 234.197 123.108C234.39 122.881 234.535 122.661 234.631 122.447C234.728 122.234 234.776 122.007 234.776 121.766C234.776 121.49 234.714 121.254 234.589 121.058C234.464 120.859 234.292 120.706 234.073 120.598C233.854 120.49 233.606 120.436 233.327 120.436C233.04 120.436 232.789 120.496 232.573 120.615C232.357 120.732 232.189 120.898 232.07 121.114C231.954 121.33 231.895 121.587 231.895 121.885H230.391C230.391 121.331 230.518 120.849 230.77 120.44C231.023 120.031 231.371 119.714 231.814 119.49C232.26 119.266 232.772 119.153 233.349 119.153C233.934 119.153 234.448 119.263 234.891 119.482C235.334 119.7 235.678 120 235.922 120.381C236.17 120.761 236.293 121.196 236.293 121.685C236.293 122.011 236.231 122.332 236.106 122.648C235.981 122.963 235.76 123.312 235.445 123.696C235.133 124.08 234.694 124.544 234.128 125.089L232.624 126.619V126.679H236.425V128H230.442ZM241.151 128.119C240.734 128.116 240.326 128.044 239.928 127.902C239.531 127.757 239.173 127.523 238.855 127.199C238.536 126.872 238.284 126.439 238.096 125.899C237.909 125.357 237.816 124.685 237.819 123.884C237.819 123.136 237.899 122.47 238.058 121.885C238.217 121.3 238.445 120.805 238.744 120.402C239.042 119.996 239.401 119.686 239.822 119.473C240.245 119.26 240.718 119.153 241.241 119.153C241.789 119.153 242.275 119.261 242.698 119.477C243.124 119.693 243.468 119.989 243.73 120.364C243.991 120.736 244.153 121.156 244.215 121.625H242.66C242.58 121.29 242.417 121.023 242.17 120.824C241.926 120.622 241.616 120.521 241.241 120.521C240.636 120.521 240.17 120.784 239.843 121.31C239.519 121.835 239.356 122.557 239.353 123.474H239.413C239.552 123.224 239.732 123.01 239.954 122.831C240.176 122.652 240.426 122.514 240.704 122.418C240.985 122.318 241.282 122.268 241.595 122.268C242.106 122.268 242.565 122.391 242.971 122.635C243.38 122.879 243.704 123.216 243.943 123.645C244.181 124.071 244.299 124.56 244.296 125.111C244.299 125.685 244.168 126.2 243.904 126.658C243.64 127.112 243.272 127.47 242.801 127.732C242.329 127.993 241.779 128.122 241.151 128.119ZM241.143 126.841C241.453 126.841 241.73 126.766 241.974 126.615C242.218 126.464 242.411 126.261 242.553 126.006C242.695 125.75 242.765 125.463 242.762 125.145C242.765 124.832 242.697 124.55 242.558 124.297C242.421 124.044 242.232 123.844 241.991 123.696C241.749 123.548 241.474 123.474 241.164 123.474C240.934 123.474 240.72 123.518 240.521 123.607C240.322 123.695 240.149 123.817 240.001 123.973C239.853 124.126 239.737 124.305 239.651 124.51C239.569 124.712 239.526 124.928 239.524 125.158C239.526 125.462 239.597 125.741 239.737 125.997C239.876 126.253 240.068 126.457 240.312 126.611C240.556 126.764 240.833 126.841 241.143 126.841Z" fill="#8A95AB"/>
<rect x="253.667" y="112" width="24" height="24" rx="4" fill="white"/>
<path d="M258.942 128V126.858L261.972 123.888C262.262 123.595 262.503 123.335 262.697 123.108C262.89 122.881 263.035 122.661 263.131 122.447C263.228 122.234 263.276 122.007 263.276 121.766C263.276 121.49 263.214 121.254 263.089 121.058C262.964 120.859 262.792 120.706 262.573 120.598C262.354 120.49 262.106 120.436 261.827 120.436C261.54 120.436 261.289 120.496 261.073 120.615C260.857 120.732 260.689 120.898 260.57 121.114C260.454 121.33 260.395 121.587 260.395 121.885H258.891C258.891 121.331 259.018 120.849 259.27 120.44C259.523 120.031 259.871 119.714 260.314 119.49C260.76 119.266 261.272 119.153 261.849 119.153C262.434 119.153 262.948 119.263 263.391 119.482C263.834 119.7 264.178 120 264.422 120.381C264.67 120.761 264.793 121.196 264.793 121.685C264.793 122.011 264.731 122.332 264.606 122.648C264.481 122.963 264.26 123.312 263.945 123.696C263.633 124.08 263.194 124.544 262.628 125.089L261.124 126.619V126.679H264.925V128H258.942ZM266.775 128L270.487 120.653V120.594H266.178V119.273H272.123V120.624L268.416 128H266.775Z" fill="#8A95AB"/>
<rect x="85.6667" y="140" width="24" height="24" rx="4" fill="white"/>
<path d="M90.4423 156V154.858L93.4721 151.888C93.7619 151.595 94.0033 151.335 94.1965 151.108C94.3897 150.881 94.5346 150.661 94.6312 150.447C94.7278 150.234 94.7761 150.007 94.7761 149.766C94.7761 149.49 94.7136 149.254 94.5886 149.058C94.4636 148.859 94.2917 148.706 94.0729 148.598C93.8542 148.49 93.6056 148.436 93.3272 148.436C93.0403 148.436 92.7888 148.496 92.5729 148.615C92.357 148.732 92.1894 148.898 92.0701 149.114C91.9536 149.33 91.8954 149.587 91.8954 149.885H90.3911C90.3911 149.331 90.5175 148.849 90.7704 148.44C91.0232 148.031 91.3712 147.714 91.8144 147.49C92.2604 147.266 92.7718 147.153 93.3485 147.153C93.9337 147.153 94.4479 147.263 94.8911 147.482C95.3343 147.7 95.6781 148 95.9224 148.381C96.1695 148.761 96.2931 149.196 96.2931 149.685C96.2931 150.011 96.2306 150.332 96.1056 150.648C95.9806 150.963 95.7604 151.312 95.4451 151.696C95.1326 152.08 94.6937 152.544 94.1283 153.089L92.6241 154.619V154.679H96.4252V156H90.4423ZM101.058 156.119C100.424 156.119 99.8616 156.013 99.3702 155.8C98.8815 155.587 98.498 155.295 98.2196 154.926C97.944 154.554 97.8077 154.132 97.8105 153.661C97.8077 153.294 97.8872 152.957 98.0491 152.651C98.2111 152.344 98.4298 152.088 98.7054 151.884C98.9838 151.676 99.2934 151.544 99.6344 151.487V151.428C99.1855 151.328 98.8219 151.099 98.5434 150.741C98.2679 150.381 98.1315 149.964 98.1344 149.493C98.1315 149.044 98.2565 148.643 98.5094 148.291C98.7622 147.939 99.1088 147.662 99.5491 147.46C99.9895 147.256 100.492 147.153 101.058 147.153C101.617 147.153 102.116 147.256 102.553 147.46C102.994 147.662 103.34 147.939 103.593 148.291C103.849 148.643 103.977 149.044 103.977 149.493C103.977 149.964 103.836 150.381 103.555 150.741C103.276 151.099 102.917 151.328 102.477 151.428V151.487C102.818 151.544 103.124 151.676 103.397 151.884C103.673 152.088 103.891 152.344 104.053 152.651C104.218 152.957 104.301 153.294 104.301 153.661C104.301 154.132 104.161 154.554 103.883 154.926C103.605 155.295 103.221 155.587 102.732 155.8C102.247 156.013 101.688 156.119 101.058 156.119ZM101.058 154.901C101.384 154.901 101.668 154.845 101.91 154.734C102.151 154.621 102.339 154.462 102.472 154.257C102.606 154.053 102.674 153.817 102.677 153.55C102.674 153.271 102.602 153.026 102.46 152.812C102.32 152.597 102.129 152.428 101.884 152.305C101.643 152.183 101.367 152.122 101.058 152.122C100.745 152.122 100.467 152.183 100.222 152.305C99.9781 152.428 99.7849 152.597 99.6429 152.812C99.5037 153.026 99.4355 153.271 99.4383 153.55C99.4355 153.817 99.5008 154.053 99.6344 154.257C99.7679 154.459 99.9554 154.616 100.197 154.73C100.441 154.844 100.728 154.901 101.058 154.901ZM101.058 150.925C101.325 150.925 101.56 150.871 101.765 150.763C101.972 150.655 102.136 150.504 102.255 150.311C102.374 150.118 102.435 149.895 102.438 149.642C102.435 149.392 102.376 149.173 102.259 148.986C102.143 148.795 101.981 148.649 101.774 148.547C101.566 148.442 101.328 148.389 101.058 148.389C100.782 148.389 100.539 148.442 100.329 148.547C100.122 148.649 99.9596 148.795 99.8432 148.986C99.7295 149.173 99.6741 149.392 99.677 149.642C99.6741 149.895 99.7309 150.118 99.8474 150.311C99.9667 150.501 100.13 150.652 100.337 150.763C100.548 150.871 100.788 150.925 101.058 150.925Z" fill="#8A95AB"/>
<rect x="113.667" y="140" width="24" height="24" rx="4" fill="white"/>
<path d="M118.442 156V154.858L121.472 151.888C121.762 151.595 122.003 151.335 122.197 151.108C122.39 150.881 122.535 150.661 122.631 150.447C122.728 150.234 122.776 150.007 122.776 149.766C122.776 149.49 122.714 149.254 122.589 149.058C122.464 148.859 122.292 148.706 122.073 148.598C121.854 148.49 121.606 148.436 121.327 148.436C121.04 148.436 120.789 148.496 120.573 148.615C120.357 148.732 120.189 148.898 120.07 149.114C119.954 149.33 119.895 149.587 119.895 149.885H118.391C118.391 149.331 118.518 148.849 118.77 148.44C119.023 148.031 119.371 147.714 119.814 147.49C120.26 147.266 120.772 147.153 121.349 147.153C121.934 147.153 122.448 147.263 122.891 147.482C123.334 147.7 123.678 148 123.922 148.381C124.17 148.761 124.293 149.196 124.293 149.685C124.293 150.011 124.231 150.332 124.106 150.648C123.981 150.963 123.76 151.312 123.445 151.696C123.133 152.08 122.694 152.544 122.128 153.089L120.624 154.619V154.679H124.425V156H118.442ZM128.985 147.153C129.403 147.156 129.809 147.23 130.204 147.375C130.602 147.517 130.96 147.75 131.278 148.074C131.596 148.395 131.849 148.825 132.036 149.365C132.224 149.905 132.318 150.572 132.318 151.368C132.32 152.118 132.241 152.788 132.079 153.379C131.92 153.967 131.691 154.464 131.393 154.871C131.095 155.277 130.735 155.587 130.315 155.8C129.894 156.013 129.421 156.119 128.896 156.119C128.345 156.119 127.856 156.011 127.43 155.795C127.007 155.58 126.664 155.284 126.403 154.909C126.141 154.534 125.981 154.105 125.921 153.622H127.477C127.556 153.969 127.718 154.244 127.962 154.449C128.21 154.651 128.521 154.751 128.896 154.751C129.501 154.751 129.967 154.489 130.293 153.963C130.62 153.437 130.784 152.707 130.784 151.773H130.724C130.585 152.023 130.404 152.239 130.183 152.42C129.961 152.599 129.71 152.737 129.428 152.834C129.15 152.93 128.855 152.979 128.542 152.979C128.031 152.979 127.57 152.857 127.161 152.612C126.755 152.368 126.433 152.033 126.194 151.607C125.958 151.18 125.839 150.693 125.836 150.145C125.836 149.577 125.967 149.067 126.228 148.615C126.492 148.161 126.86 147.803 127.332 147.541C127.803 147.277 128.355 147.148 128.985 147.153ZM128.989 148.432C128.683 148.432 128.406 148.507 128.159 148.658C127.914 148.805 127.721 149.007 127.579 149.263C127.44 149.516 127.37 149.798 127.37 150.111C127.373 150.42 127.443 150.702 127.579 150.955C127.718 151.207 127.907 151.408 128.146 151.555C128.387 151.703 128.663 151.777 128.972 151.777C129.203 151.777 129.417 151.733 129.616 151.645C129.815 151.557 129.988 151.435 130.136 151.278C130.286 151.119 130.403 150.939 130.485 150.737C130.57 150.536 130.612 150.322 130.609 150.098C130.609 149.8 130.538 149.524 130.396 149.271C130.257 149.018 130.065 148.815 129.82 148.662C129.579 148.509 129.302 148.432 128.989 148.432Z" fill="#8A95AB"/>
<rect x="141.667" y="140" width="24" height="24" rx="4" fill="white"/>
<path d="M149.574 156.119C148.961 156.119 148.415 156.014 147.938 155.804C147.464 155.594 147.089 155.301 146.813 154.926C146.537 154.551 146.391 154.118 146.374 153.626H147.976C147.991 153.862 148.069 154.068 148.211 154.244C148.353 154.418 148.542 154.553 148.777 154.649C149.013 154.746 149.277 154.794 149.57 154.794C149.883 154.794 150.16 154.74 150.401 154.632C150.643 154.521 150.831 154.368 150.968 154.172C151.104 153.976 151.171 153.75 151.168 153.494C151.171 153.23 151.103 152.997 150.964 152.795C150.824 152.594 150.623 152.436 150.358 152.322C150.097 152.209 149.782 152.152 149.412 152.152H148.641V150.933H149.412C149.716 150.933 149.982 150.881 150.209 150.776C150.439 150.67 150.62 150.523 150.75 150.332C150.881 150.139 150.945 149.916 150.942 149.663C150.945 149.416 150.89 149.202 150.776 149.02C150.665 148.835 150.508 148.692 150.303 148.589C150.101 148.487 149.864 148.436 149.591 148.436C149.324 148.436 149.077 148.484 148.85 148.581C148.623 148.678 148.439 148.815 148.3 148.994C148.161 149.17 148.087 149.381 148.079 149.625H146.557C146.569 149.136 146.709 148.707 146.979 148.338C147.252 147.966 147.616 147.676 148.07 147.469C148.525 147.259 149.035 147.153 149.6 147.153C150.182 147.153 150.688 147.263 151.117 147.482C151.549 147.697 151.883 147.989 152.118 148.355C152.354 148.722 152.472 149.126 152.472 149.57C152.475 150.061 152.33 150.473 152.037 150.805C151.748 151.138 151.367 151.355 150.895 151.457V151.526C151.509 151.611 151.979 151.838 152.306 152.207C152.635 152.574 152.799 153.03 152.796 153.575C152.796 154.064 152.657 154.501 152.378 154.888C152.103 155.271 151.722 155.572 151.236 155.791C150.753 156.01 150.199 156.119 149.574 156.119ZM157.545 156.166C156.843 156.166 156.241 155.989 155.738 155.634C155.238 155.276 154.853 154.76 154.583 154.087C154.316 153.411 154.182 152.597 154.182 151.645C154.185 150.693 154.32 149.884 154.587 149.216C154.857 148.545 155.242 148.034 155.742 147.682C156.245 147.33 156.846 147.153 157.545 147.153C158.243 147.153 158.844 147.33 159.347 147.682C159.85 148.034 160.235 148.545 160.502 149.216C160.772 149.886 160.907 150.696 160.907 151.645C160.907 152.599 160.772 153.415 160.502 154.091C160.235 154.764 159.85 155.278 159.347 155.634C158.847 155.989 158.246 156.166 157.545 156.166ZM157.545 154.832C158.09 154.832 158.52 154.564 158.836 154.027C159.154 153.487 159.313 152.693 159.313 151.645C159.313 150.952 159.241 150.369 159.096 149.898C158.951 149.426 158.746 149.071 158.482 148.832C158.218 148.591 157.905 148.47 157.545 148.47C157.002 148.47 156.573 148.74 156.258 149.28C155.942 149.817 155.783 150.605 155.78 151.645C155.777 152.341 155.847 152.926 155.989 153.401C156.134 153.875 156.339 154.233 156.603 154.474C156.867 154.713 157.181 154.832 157.545 154.832Z" fill="#8A95AB"/>
<rect x="169.667" y="140" width="24" height="24" rx="4" fill="white"/>
<path d="M178.574 156.119C177.961 156.119 177.415 156.014 176.938 155.804C176.464 155.594 176.089 155.301 175.813 154.926C175.537 154.551 175.391 154.118 175.374 153.626H176.976C176.991 153.862 177.069 154.068 177.211 154.244C177.353 154.418 177.542 154.553 177.777 154.649C178.013 154.746 178.277 154.794 178.57 154.794C178.883 154.794 179.16 154.74 179.401 154.632C179.643 154.521 179.831 154.368 179.968 154.172C180.104 153.976 180.171 153.75 180.168 153.494C180.171 153.23 180.103 152.997 179.964 152.795C179.824 152.594 179.623 152.436 179.358 152.322C179.097 152.209 178.782 152.152 178.412 152.152H177.641V150.933H178.412C178.716 150.933 178.982 150.881 179.209 150.776C179.439 150.67 179.62 150.523 179.75 150.332C179.881 150.139 179.945 149.916 179.942 149.663C179.945 149.416 179.89 149.202 179.776 149.02C179.665 148.835 179.508 148.692 179.303 148.589C179.101 148.487 178.864 148.436 178.591 148.436C178.324 148.436 178.077 148.484 177.85 148.581C177.623 148.678 177.439 148.815 177.3 148.994C177.161 149.17 177.087 149.381 177.079 149.625H175.557C175.569 149.136 175.709 148.707 175.979 148.338C176.252 147.966 176.616 147.676 177.07 147.469C177.525 147.259 178.035 147.153 178.6 147.153C179.182 147.153 179.688 147.263 180.117 147.482C180.549 147.697 180.883 147.989 181.118 148.355C181.354 148.722 181.472 149.126 181.472 149.57C181.475 150.061 181.33 150.473 181.037 150.805C180.748 151.138 180.367 151.355 179.895 151.457V151.526C180.509 151.611 180.979 151.838 181.306 152.207C181.635 152.574 181.799 153.03 181.796 153.575C181.796 154.064 181.657 154.501 181.378 154.888C181.103 155.271 180.722 155.572 180.236 155.791C179.753 156.01 179.199 156.119 178.574 156.119ZM186.868 147.273V156H185.287V148.811H185.236L183.195 150.115V148.666L185.364 147.273H186.868Z" fill="#8A95AB"/>
</svg>

