<svg width="112" height="104" viewBox="0 0 112 104" fill="none" xmlns="http://www.w3.org/2000/svg">
<g id="lock_open_FILL0_wght400_GRAD0_opsz24 3">
<path id="Vector" d="M40 96C37.8 96 35.9167 95.2167 34.35 93.65C32.7833 92.0833 32 90.2 32 88V48C32 45.8 32.7833 43.9167 34.35 42.35C35.9167 40.7833 37.8 40 40 40H76V32C76 28.6667 74.8333 25.8333 72.5 23.5C70.1667 21.1667 67.3333 20 64 20C61.2 20 58.75 20.85 56.65 22.55C54.55 24.25 53.1333 26.3667 52.4 28.9C52.1333 29.8333 51.5833 30.5833 50.75 31.15C49.9167 31.7167 49 32 48 32C46.8667 32 45.9167 31.6333 45.15 30.9C44.3833 30.1667 44.1 29.3 44.3 28.3C45.2333 23.7 47.5333 19.8333 51.2 16.7C54.8667 13.5667 59.1333 12 64 12C69.5333 12 74.25 13.95 78.15 17.85C82.05 21.75 84 26.4667 84 32V40H88C90.2 40 92.0833 40.7833 93.65 42.35C95.2167 43.9167 96 45.8 96 48V88C96 90.2 95.2167 92.0833 93.65 93.65C92.0833 95.2167 90.2 96 88 96H40ZM40 88H88V48H40V88ZM64 76C66.2 76 68.0833 75.2167 69.65 73.65C71.2167 72.0833 72 70.2 72 68C72 65.8 71.2167 63.9167 69.65 62.35C68.0833 60.7833 66.2 60 64 60C61.8 60 59.9167 60.7833 58.35 62.35C56.7833 63.9167 56 65.8 56 68C56 70.2 56.7833 72.0833 58.35 73.65C59.9167 75.2167 61.8 76 64 76Z" fill="#DADFE9"/>
<g id="Vector_2">
<path d="M16 32L10.52 29.48L8 24L5.48 29.48L0 32L5.48 34.52L8 40L10.52 34.52L16 32Z" fill="#DADFE9"/>
<path d="M16.24 15.76L20 24L23.76 15.76L32 12L23.76 8.24L20 0L16.24 8.24L8 12L16.24 15.76Z" fill="#DADFE9"/>
</g>
</g>
</svg>
