<svg width="32" height="32" viewBox="0 0 32 32" fill="none" xmlns="http://www.w3.org/2000/svg">
<g id="signal_cellular_alt_FILL0_wght400_GRAD0_opsz24 8">
<path id="Vector" d="M8.66602 26.6668C8.11046 26.6668 7.63824 26.4724 7.24935 26.0835C6.86046 25.6946 6.66602 25.2224 6.66602 24.6668V20.6668C6.66602 20.1113 6.86046 19.6391 7.24935 19.2502C7.63824 18.8613 8.11046 18.6668 8.66602 18.6668C9.22157 18.6668 9.69379 18.8613 10.0827 19.2502C10.4716 19.6391 10.666 20.1113 10.666 20.6668V24.6668C10.666 25.2224 10.4716 25.6946 10.0827 26.0835C9.69379 26.4724 9.22157 26.6668 8.66602 26.6668ZM16.666 26.6668C16.1105 26.6668 15.6382 26.4724 15.2493 26.0835C14.8605 25.6946 14.666 25.2224 14.666 24.6668V14.0002C14.666 13.4446 14.8605 12.9724 15.2493 12.5835C15.6382 12.1946 16.1105 12.0002 16.666 12.0002C17.2216 12.0002 17.6938 12.1946 18.0827 12.5835C18.4716 12.9724 18.666 13.4446 18.666 14.0002V24.6668C18.666 25.2224 18.4716 25.6946 18.0827 26.0835C17.6938 26.4724 17.2216 26.6668 16.666 26.6668ZM24.666 26.6668C24.1105 26.6668 23.6382 26.4724 23.2493 26.0835C22.8605 25.6946 22.666 25.2224 22.666 24.6668V7.3335C22.666 6.77794 22.8605 6.30572 23.2493 5.91683C23.6382 5.52794 24.1105 5.3335 24.666 5.3335C25.2216 5.3335 25.6938 5.52794 26.0827 5.91683C26.4716 6.30572 26.666 6.77794 26.666 7.3335V24.6668C26.666 25.2224 26.4716 25.6946 26.0827 26.0835C25.6938 26.4724 25.2216 26.6668 24.666 26.6668Z" fill="white" fill-opacity="0.2"/>
<path id="Vector_2" d="M8.66602 26.6668C8.11046 26.6668 7.63824 26.4724 7.24935 26.0835C6.86046 25.6946 6.66602 25.2224 6.66602 24.6668V20.6668C6.66602 20.1113 6.86046 19.6391 7.24935 19.2502C7.63824 18.8613 8.11046 18.6668 8.66602 18.6668C9.22157 18.6668 9.69379 18.8613 10.0827 19.2502C10.4716 19.6391 10.666 20.1113 10.666 20.6668V24.6668C10.666 25.2224 10.4716 25.6946 10.0827 26.0835C9.69379 26.4724 9.22157 26.6668 8.66602 26.6668Z" fill="white"/>
</g>
</svg>
