<svg width="32" height="32" viewBox="0 0 32 32" fill="none" xmlns="http://www.w3.org/2000/svg">
<g id="signal_cellular_alt_FILL0_wght400_GRAD0_opsz24 9">
<path id="Vector" d="M8.66667 26.6667C8.11112 26.6667 7.63889 26.4722 7.25001 26.0833C6.86112 25.6944 6.66667 25.2222 6.66667 24.6667V20.6667C6.66667 20.1111 6.86112 19.6389 7.25001 19.25C7.63889 18.8611 8.11112 18.6667 8.66667 18.6667C9.22223 18.6667 9.69445 18.8611 10.0833 19.25C10.4722 19.6389 10.6667 20.1111 10.6667 20.6667V24.6667C10.6667 25.2222 10.4722 25.6944 10.0833 26.0833C9.69445 26.4722 9.22223 26.6667 8.66667 26.6667ZM16.6667 26.6667C16.1111 26.6667 15.6389 26.4722 15.25 26.0833C14.8611 25.6944 14.6667 25.2222 14.6667 24.6667V14C14.6667 13.4444 14.8611 12.9722 15.25 12.5833C15.6389 12.1944 16.1111 12 16.6667 12C17.2222 12 17.6945 12.1944 18.0833 12.5833C18.4722 12.9722 18.6667 13.4444 18.6667 14V24.6667C18.6667 25.2222 18.4722 25.6944 18.0833 26.0833C17.6945 26.4722 17.2222 26.6667 16.6667 26.6667ZM24.6667 26.6667C24.1111 26.6667 23.6389 26.4722 23.25 26.0833C22.8611 25.6944 22.6667 25.2222 22.6667 24.6667V7.33333C22.6667 6.77778 22.8611 6.30556 23.25 5.91667C23.6389 5.52778 24.1111 5.33333 24.6667 5.33333C25.2222 5.33333 25.6945 5.52778 26.0833 5.91667C26.4722 6.30556 26.6667 6.77778 26.6667 7.33333V24.6667C26.6667 25.2222 26.4722 25.6944 26.0833 26.0833C25.6945 26.4722 25.2222 26.6667 24.6667 26.6667Z" fill="#DADFE9"/>
<path id="Vector_2" d="M8.66667 26.6667C8.11112 26.6667 7.63889 26.4722 7.25001 26.0833C6.86112 25.6944 6.66667 25.2222 6.66667 24.6667V20.6667C6.66667 20.1111 6.86112 19.6389 7.25001 19.25C7.63889 18.8611 8.11112 18.6667 8.66667 18.6667C9.22223 18.6667 9.69445 18.8611 10.0833 19.25C10.4722 19.6389 10.6667 20.1111 10.6667 20.6667V24.6667C10.6667 25.2222 10.4722 25.6944 10.0833 26.0833C9.69445 26.4722 9.22223 26.6667 8.66667 26.6667ZM16.6667 26.6667C16.1111 26.6667 15.6389 26.4722 15.25 26.0833C14.8611 25.6944 14.6667 25.2222 14.6667 24.6667V14C14.6667 13.4444 14.8611 12.9722 15.25 12.5833C15.6389 12.1944 16.1111 12 16.6667 12C17.2222 12 17.6944 12.1944 18.0833 12.5833C18.4722 12.9722 18.6667 13.4444 18.6667 14V24.6667C18.6667 25.2222 18.4722 25.6944 18.0833 26.0833C17.6944 26.4722 17.2222 26.6667 16.6667 26.6667Z" fill="#1DA4B1"/>
</g>
</svg>
