<svg width="32" height="32" viewBox="0 0 32 32" fill="none" xmlns="http://www.w3.org/2000/svg">
<g id="signal_cellular_alt_FILL0_wght400_GRAD0_opsz24 8">
<path id="Vector" d="M8.66666 26.6668C8.1111 26.6668 7.63888 26.4724 7.24999 26.0835C6.8611 25.6946 6.66666 25.2224 6.66666 24.6668V20.6668C6.66666 20.1113 6.8611 19.6391 7.24999 19.2502C7.63888 18.8613 8.1111 18.6668 8.66666 18.6668C9.22221 18.6668 9.69443 18.8613 10.0833 19.2502C10.4722 19.6391 10.6667 20.1113 10.6667 20.6668V24.6668C10.6667 25.2224 10.4722 25.6946 10.0833 26.0835C9.69443 26.4724 9.22221 26.6668 8.66666 26.6668ZM16.6667 26.6668C16.1111 26.6668 15.6389 26.4724 15.25 26.0835C14.8611 25.6946 14.6667 25.2224 14.6667 24.6668V14.0002C14.6667 13.4446 14.8611 12.9724 15.25 12.5835C15.6389 12.1946 16.1111 12.0002 16.6667 12.0002C17.2222 12.0002 17.6944 12.1946 18.0833 12.5835C18.4722 12.9724 18.6667 13.4446 18.6667 14.0002V24.6668C18.6667 25.2224 18.4722 25.6946 18.0833 26.0835C17.6944 26.4724 17.2222 26.6668 16.6667 26.6668ZM24.6667 26.6668C24.1111 26.6668 23.6389 26.4724 23.25 26.0835C22.8611 25.6946 22.6667 25.2224 22.6667 24.6668V7.3335C22.6667 6.77794 22.8611 6.30572 23.25 5.91683C23.6389 5.52794 24.1111 5.3335 24.6667 5.3335C25.2222 5.3335 25.6944 5.52794 26.0833 5.91683C26.4722 6.30572 26.6667 6.77794 26.6667 7.3335V24.6668C26.6667 25.2224 26.4722 25.6946 26.0833 26.0835C25.6944 26.4724 25.2222 26.6668 24.6667 26.6668Z" fill="#DADFE9"/>
<path id="Vector_2" d="M8.66666 26.6668C8.1111 26.6668 7.63888 26.4724 7.24999 26.0835C6.8611 25.6946 6.66666 25.2224 6.66666 24.6668V20.6668C6.66666 20.1113 6.8611 19.6391 7.24999 19.2502C7.63888 18.8613 8.1111 18.6668 8.66666 18.6668C9.22221 18.6668 9.69443 18.8613 10.0833 19.2502C10.4722 19.6391 10.6667 20.1113 10.6667 20.6668V24.6668C10.6667 25.2224 10.4722 25.6946 10.0833 26.0835C9.69443 26.4724 9.22221 26.6668 8.66666 26.6668Z" fill="#1DA4B1"/>
</g>
</svg>
