<svg width="48" height="48" viewBox="0 0 48 48" fill="none" xmlns="http://www.w3.org/2000/svg">
<path d="M19.1996 33.3002L23.9996 29.6002L28.7996 33.3002L26.9996 27.2002L31.4996 24.0002H25.8996L23.9996 17.8002L22.0996 24.0002H16.4996L20.9996 27.2002L19.1996 33.3002ZM23.9996 34.6002L16.5996 40.2502C16.233 40.5502 15.833 40.6919 15.3996 40.6752C14.9663 40.6585 14.583 40.5335 14.2496 40.3002C13.9163 40.0669 13.658 39.7502 13.4746 39.3502C13.2913 38.9502 13.283 38.5169 13.4496 38.0502L16.2996 28.8002L9.04964 23.6502C8.64964 23.3835 8.39964 23.0335 8.29964 22.6002C8.19964 22.1669 8.2163 21.7669 8.34964 21.4002C8.48297 21.0335 8.7163 20.7085 9.04964 20.4252C9.38297 20.1419 9.78297 20.0002 10.2496 20.0002H19.1996L22.0996 10.4002C22.2663 9.93353 22.5246 9.5752 22.8746 9.3252C23.2246 9.0752 23.5996 8.9502 23.9996 8.9502C24.3996 8.9502 24.7746 9.0752 25.1246 9.3252C25.4746 9.5752 25.733 9.93353 25.8996 10.4002L28.7996 20.0002H37.7496C38.2163 20.0002 38.6163 20.1419 38.9496 20.4252C39.283 20.7085 39.5163 21.0335 39.6496 21.4002C39.783 21.7669 39.7996 22.1669 39.6996 22.6002C39.5996 23.0335 39.3496 23.3835 38.9496 23.6502L31.6996 28.8002L34.5496 38.0502C34.7163 38.5169 34.708 38.9502 34.5246 39.3502C34.3413 39.7502 34.083 40.0669 33.7496 40.3002C33.4163 40.5335 33.033 40.6585 32.5996 40.6752C32.1663 40.6919 31.7663 40.5502 31.3996 40.2502L23.9996 34.6002Z" fill="#DADFE9"/>
</svg>
