<svg width="48" height="48" viewBox="0 0 48 48" fill="none" xmlns="http://www.w3.org/2000/svg">
<path d="M16.5996 40.2502L23.9996 34.6002L31.3996 40.2502C31.7663 40.5502 32.1663 40.6919 32.5996 40.6752C33.033 40.6585 33.4163 40.5335 33.7496 40.3002C34.083 40.0669 34.3413 39.7502 34.5246 39.3502C34.708 38.9502 34.7163 38.5169 34.5496 38.0502L31.6996 28.8002L38.9496 23.6502C39.3496 23.3835 39.5996 23.0335 39.6996 22.6002C39.7996 22.1669 39.783 21.7669 39.6496 21.4002C39.5163 21.0335 39.283 20.7085 38.9496 20.4252C38.6163 20.1419 38.2163 20.0002 37.7496 20.0002H28.7996L25.8996 10.4002C25.733 9.93353 25.4746 9.5752 25.1246 9.3252C24.7746 9.0752 24.3996 8.9502 23.9996 8.9502C23.5996 8.9502 23.2246 9.0752 22.8746 9.3252C22.5246 9.5752 22.2663 9.93353 22.0996 10.4002L19.1996 20.0002H10.2496C9.78297 20.0002 9.38297 20.1419 9.04964 20.4252C8.7163 20.7085 8.48297 21.0335 8.34964 21.4002C8.2163 21.7669 8.19964 22.1669 8.29964 22.6002C8.39964 23.0335 8.64964 23.3835 9.04964 23.6502L16.2996 28.8002L13.4496 38.0502C13.283 38.5169 13.2913 38.9502 13.4746 39.3502C13.658 39.7502 13.9163 40.0669 14.2496 40.3002C14.583 40.5335 14.9663 40.6585 15.3996 40.6752C15.833 40.6919 16.233 40.5502 16.5996 40.2502Z" fill="#F9B10C"/>
</svg>
