<svg width="24" height="24" viewBox="0 0 24 24" fill="none" xmlns="http://www.w3.org/2000/svg">
<g id="thumb_down">
<path id="Vector" d="M15 2H6C5.17 2 4.46 2.5 4.16 3.22L1.14 10.27C1.05 10.5 1 10.74 1 11V13C1 14.1 1.9 15 3 15H9.31L8.36 19.57L8.33 19.89C8.33 20.3 8.5 20.68 8.77 20.95C9.35623 21.5307 10.3015 21.5285 10.885 20.945L16.42 15.41C16.78 15.05 17 14.55 17 14V4C17 2.9 16.1 2 15 2ZM15 14L10.66 18.34L12 13H3V11L6 4H15V14ZM19 4C19 2.89543 19.8954 2 21 2C22.1046 2 23 2.89543 23 4V12C23 13.1046 22.1046 14 21 14C19.8954 14 19 13.1046 19 12V4Z" fill="#8A95AB"/>
</g>
</svg>
