<svg width="24" height="24" viewBox="0 0 24 24" fill="none" xmlns="http://www.w3.org/2000/svg">
<path d="M12.949 2.75186L7.40901 8.29186C7.03901 8.66186 6.82901 9.17186 6.82901 9.70186V19.6919C6.82901 20.7919 7.72901 21.6919 8.82901 21.6919H17.829C18.629 21.6919 19.349 21.2119 19.669 20.4819L22.929 12.8719C23.769 10.8919 22.319 8.69186 20.169 8.69186H14.519L15.469 4.11186C15.569 3.61186 15.419 3.10186 15.059 2.74186C14.469 2.16186 13.529 2.16186 12.949 2.75186ZM2.82901 21.6919C3.92901 21.6919 4.82901 20.7919 4.82901 19.6919V11.6919C4.82901 10.5919 3.92901 9.69186 2.82901 9.69186C1.72901 9.69186 0.82901 10.5919 0.82901 11.6919V19.6919C0.82901 20.7919 1.72901 21.6919 2.82901 21.6919Z" fill="#1DA4B1"/>
</svg>
