<svg width="24" height="20" viewBox="0 0 24 20" fill="none" xmlns="http://www.w3.org/2000/svg">
<path d="M11.0484 19.2481L16.5784 13.7081C16.9484 13.3381 17.1584 12.8281 17.1584 12.2981V2.30811C17.1584 1.20811 16.2584 0.308105 15.1584 0.308105H6.16841C5.36841 0.308105 4.64841 0.788105 4.33841 1.51811L1.07841 9.12811C0.228406 11.1081 1.67841 13.3081 3.82841 13.3081H9.47841L8.52841 17.8881C8.42841 18.3881 8.57841 18.8981 8.93841 19.2581C9.52841 19.8381 10.4684 19.8381 11.0484 19.2481ZM21.1684 0.308105C20.0684 0.308105 19.1684 1.20811 19.1684 2.30811V10.3081C19.1684 11.4081 20.0684 12.3081 21.1684 12.3081C22.2684 12.3081 23.1684 11.4081 23.1684 10.3081V2.30811C23.1684 1.20811 22.2684 0.308105 21.1684 0.308105Z" fill="#1DA4B1"/>
</svg>
