<svg width="27" height="28" viewBox="0 0 27 28" fill="none" xmlns="http://www.w3.org/2000/svg">
<path fill-rule="evenodd" clip-rule="evenodd" d="M14.4533 1.48999C16.5999 4.11666 17.7599 7.27666 17.9733 10.5033C16.2666 11.4233 14.6933 12.5967 13.3199 14.01C11.9466 12.5833 10.3733 11.41 8.66661 10.5033C8.93328 7.28999 10.1599 4.12999 12.3599 1.48999C12.9066 0.823324 13.9066 0.823324 14.4533 1.48999ZM13.3999 4.92C14.2399 6.29334 14.8266 7.82667 15.1332 9.42667C14.5066 9.82667 13.9199 10.2667 13.3466 10.7333C12.7866 10.28 12.1866 9.84 11.5732 9.44C11.9066 7.84 12.5199 6.30667 13.3999 4.92Z" fill="#1DA4B1"/>
<path fill-rule="evenodd" clip-rule="evenodd" d="M9.19911 13.9629C9.23571 13.9871 9.27163 14.0117 9.30661 14.0367C9.2768 14.0154 9.2463 13.9947 9.21529 13.9745C10.8289 15.1348 12.2219 16.5908 13.3199 18.2633C15.9199 14.3033 20.1733 11.5567 25.1199 11.0767C25.9599 10.9967 26.6799 11.7033 26.5999 12.5567C25.9999 18.97 21.7333 24.2633 15.9599 26.33C15.1066 26.6233 14.2399 26.85 13.3333 27.01C12.4266 26.8633 11.5466 26.6367 10.7066 26.33C4.93328 24.2633 0.666613 18.9567 0.0666134 12.5567C-0.0133867 11.7033 0.69328 10.9967 1.54661 11.0767C4.38176 11.3533 6.99552 12.3825 9.19911 13.9629ZM15.0932 24.1333C14.5066 24.3333 13.9199 24.4933 13.3199 24.6267C12.7332 24.5067 12.1599 24.3467 11.6132 24.1467C7.22656 22.5733 4.01322 18.8267 3.01322 14.3467C4.47989 14.6933 5.87989 15.2933 7.17322 16.12L7.14656 16.1333C7.31989 16.2533 7.49323 16.3733 7.66656 16.4667L7.75989 16.52C9.07989 17.48 10.2132 18.6667 11.1066 20.0533L13.3332 23.4667L15.5599 20.0667C16.4799 18.6667 17.6266 17.4667 18.9332 16.52L19.0266 16.4533C19.1466 16.3867 19.2666 16.3067 19.3866 16.2267L19.3732 16.2C20.6799 15.3333 22.1332 14.6933 23.6532 14.3333C22.6532 18.8267 19.4532 22.5733 15.0932 24.1333Z" fill="#1DA4B1"/>
</svg>
