<svg width="25" height="22" viewBox="0 0 25 22" fill="none" xmlns="http://www.w3.org/2000/svg">
<path d="M12.6666 5.66665C14.1394 5.66665 15.3333 4.47274 15.3333 2.99998C15.3333 1.52722 14.1394 0.333313 12.6666 0.333313C11.1939 0.333313 9.99996 1.52722 9.99996 2.99998C9.99996 4.47274 11.1939 5.66665 12.6666 5.66665Z" fill="#1DA4B1"/>
<path d="M24.6666 14.92C24.6666 14.2533 24.1866 13.68 23.5333 13.6133C21.0266 13.3333 18.88 12.1066 17.2 10.1066L15.4133 7.97331C14.9066 7.34665 14.16 6.99998 13.3733 6.99998H11.9733C11.1866 6.99998 10.44 7.34665 9.93329 7.95998L8.14663 10.0933C6.47996 12.0933 4.31996 13.32 1.81329 13.6C1.14663 13.68 0.666626 14.2533 0.666626 14.92C0.666626 15.72 1.37329 16.3466 2.17329 16.2533C5.23996 15.8933 7.93329 14.4 9.99996 12V15L4.98663 17C4.11996 17.3466 3.43996 18.1066 3.34663 19.04C3.21329 20.4666 4.31996 21.6666 5.71996 21.6666H8.66663V21C8.66663 19.16 10.16 17.6666 12 17.6666H16C16.3733 17.6666 16.6666 17.96 16.6666 18.3333C16.6666 18.7066 16.3733 19 16 19H12C10.8933 19 9.99996 19.8933 9.99996 21V21.6666H19.4666C20.6 21.6666 21.6666 20.9466 21.9333 19.84C22.2133 18.6533 21.5733 17.4933 20.4933 17.0666L15.3333 15V12C17.4133 14.4 20.0933 15.88 23.16 16.2533C23.96 16.3333 24.6666 15.72 24.6666 14.92Z" fill="#1DA4B1"/>
</svg>
