<?xml version="1.0" encoding="UTF-8"?>
<svg width="22px" height="22px" viewBox="0 0 22 22" version="1.1" xmlns="http://www.w3.org/2000/svg" xmlns:xlink="http://www.w3.org/1999/xlink">
    <title>Alerta</title>
    <g id="Desktop-Onboarding" stroke="none" stroke-width="1" fill-rule="evenodd">
        <g id="Registracion-Copy-4" transform="translate(-324.000000, -180.000000)" fill-rule="nonzero">
            <path d="M334.666667,180 C340.552921,180 345.333333,184.780383 345.333333,190.666667 C345.333333,196.552921 340.552921,201.333333 334.666667,201.333333 C328.780383,201.333333 324,196.552921 324,190.666667 C324,184.780383 328.780383,180 334.666667,180 Z M334.666667,182.14047 C329.957634,182.14047 326.14047,185.957634 326.14047,190.666667 C326.14047,195.375709 329.957634,199.192824 334.666667,199.192824 C339.375709,199.192824 343.192824,195.375709 343.192824,190.666667 C343.192824,185.957634 339.375709,182.14047 334.666667,182.14047 Z M334.666667,194.210311 C335.389067,194.210311 335.974756,194.795911 335.974756,195.518311 C335.974756,196.2408 335.389067,196.8264 334.666667,196.8264 C333.944267,196.8264 333.358578,196.2408 333.358578,195.518311 C333.358578,194.795911 333.944267,194.210311 334.666667,194.210311 Z M334.666663,183.642945 C335.174793,183.642945 335.563366,184.024722 335.563366,184.523981 L335.563366,191.522475 C335.563366,192.021703 335.174793,192.403512 334.666663,192.403512 C334.15854,192.403512 333.769967,192.021703 333.769967,191.522475 L333.769967,184.523981 C333.769967,184.024722 334.15854,183.642945 334.666663,183.642945 Z" id="Combined-Shape" fill="black"></path>
        </g>
    </g>
</svg>