<svg width="22" height="24" viewBox="0 0 22 24" fill="none" xmlns="http://www.w3.org/2000/svg">
<path d="M16.0934 5.62671L14.7601 6.16005C14.4801 5.94671 14.1867 5.77338 13.8667 5.64005L13.6667 4.22671C13.6401 4.09338 13.5334 4.00005 13.4001 4.00005H11.2667C11.1334 4.00005 11.0267 4.09338 11.0134 4.22671L10.8134 5.64005C10.4934 5.77338 10.1867 5.94671 9.92008 6.16005L8.58675 5.62671C8.46675 5.58671 8.32008 5.62671 8.26675 5.74671L7.20008 7.58671C7.13341 7.70671 7.16008 7.85338 7.26675 7.93338L8.40008 8.81338C8.36008 8.97338 8.33341 9.16005 8.33341 9.33338C8.33341 9.50671 8.34675 9.68005 8.37341 9.85338L7.25341 10.7334C7.14675 10.8134 7.12008 10.96 7.18675 11.0667L8.25341 12.92C8.32008 13.04 8.45341 13.08 8.58675 13.04L9.90675 12.5067C10.1867 12.72 10.4801 12.8934 10.8134 13.0267L11.0001 14.44C11.0267 14.5734 11.1334 14.6667 11.2667 14.6667H13.4001C13.5334 14.6667 13.6401 14.5734 13.6667 14.44L13.8667 13.0267C14.1867 12.8934 14.4934 12.72 14.7601 12.5067L16.0801 13.04C16.2001 13.0934 16.3467 13.04 16.4001 12.92L17.4667 11.0667C17.5334 10.9467 17.5067 10.8134 17.4001 10.7334L16.2934 9.85338C16.3201 9.68005 16.3334 9.50671 16.3334 9.33338C16.3334 9.14671 16.3201 8.97338 16.2934 8.81338L17.4267 7.93338C17.5334 7.85338 17.5601 7.70671 17.4934 7.58671L16.4267 5.74671C16.3601 5.62671 16.2134 5.58671 16.0934 5.62671ZM12.3334 11.24C11.2801 11.24 10.4267 10.3867 10.4267 9.33338C10.4267 8.28005 11.2801 7.42671 12.3334 7.42671C13.3867 7.42671 14.2401 8.28005 14.2401 9.33338C14.2401 10.3867 13.3867 11.24 12.3334 11.24Z" fill="#1DA4B1"/>
<path d="M21.5867 8.08005C21.0134 3.72005 17.2801 0.266712 12.8801 0.0133791C12.6934 4.57639e-05 12.5201 4.57764e-05 12.3334 4.57764e-05C7.62675 4.57764e-05 3.76008 3.48005 3.10675 8.00005L0.533415 12.64C-0.013252 13.52 0.626748 14.6667 1.66675 14.6667H3.00008V17.3334C3.00008 18.8 4.20008 20 5.66675 20H7.00008V22.6667C7.00008 23.4031 7.59703 24 8.33341 24H15.0001C15.7365 24 16.3334 23.4031 16.3334 22.6667V17.76C19.8267 16.0934 22.1334 12.32 21.5867 8.08005ZM14.8534 15.5067L13.6667 16.0667V21.3334H9.66675V17.3334H5.66675V12H3.93341L5.70675 8.89338C5.94675 5.41338 8.80008 2.66671 12.3334 2.66671C16.0134 2.66671 19.0001 5.65338 19.0001 9.33338C19.0001 12.12 17.2801 14.5067 14.8534 15.5067Z" fill="#1DA4B1"/>
<path d="M16.0934 5.62671L14.7601 6.16005C14.4801 5.94671 14.1867 5.77338 13.8667 5.64005L13.6667 4.22671C13.6401 4.09338 13.5334 4.00005 13.4001 4.00005H11.2667C11.1334 4.00005 11.0267 4.09338 11.0134 4.22671L10.8134 5.64005C10.4934 5.77338 10.1867 5.94671 9.92008 6.16005L8.58675 5.62671C8.46675 5.58671 8.32008 5.62671 8.26675 5.74671L7.20008 7.58671C7.13341 7.70671 7.16008 7.85338 7.26675 7.93338L8.40008 8.81338C8.36008 8.97338 8.33341 9.16005 8.33341 9.33338C8.33341 9.50671 8.34675 9.68005 8.37341 9.85338L7.25341 10.7334C7.14675 10.8134 7.12008 10.96 7.18675 11.0667L8.25341 12.92C8.32008 13.04 8.45341 13.08 8.58675 13.04L9.90675 12.5067C10.1867 12.72 10.4801 12.8934 10.8134 13.0267L11.0001 14.44C11.0267 14.5734 11.1334 14.6667 11.2667 14.6667H13.4001C13.5334 14.6667 13.6401 14.5734 13.6667 14.44L13.8667 13.0267C14.1867 12.8934 14.4934 12.72 14.7601 12.5067L16.0801 13.04C16.2001 13.0934 16.3467 13.04 16.4001 12.92L17.4667 11.0667C17.5334 10.9467 17.5067 10.8134 17.4001 10.7334L16.2934 9.85338C16.3201 9.68005 16.3334 9.50671 16.3334 9.33338C16.3334 9.14671 16.3201 8.97338 16.2934 8.81338L17.4267 7.93338C17.5334 7.85338 17.5601 7.70671 17.4934 7.58671L16.4267 5.74671C16.3601 5.62671 16.2134 5.58671 16.0934 5.62671ZM12.3334 11.24C11.2801 11.24 10.4267 10.3867 10.4267 9.33338C10.4267 8.28005 11.2801 7.42671 12.3334 7.42671C13.3867 7.42671 14.2401 8.28005 14.2401 9.33338C14.2401 10.3867 13.3867 11.24 12.3334 11.24Z" fill="#1DA4B1"/>
<path d="M21.5867 8.08005C21.0134 3.72005 17.2801 0.266712 12.8801 0.0133791C12.6934 4.57639e-05 12.5201 4.57764e-05 12.3334 4.57764e-05C7.62675 4.57764e-05 3.76008 3.48005 3.10675 8.00005L0.533415 12.64C-0.013252 13.52 0.626748 14.6667 1.66675 14.6667H3.00008V17.3334C3.00008 18.8 4.20008 20 5.66675 20H7.00008V22.6667C7.00008 23.4031 7.59703 24 8.33341 24H15.0001C15.7365 24 16.3334 23.4031 16.3334 22.6667V17.76C19.8267 16.0934 22.1334 12.32 21.5867 8.08005ZM14.8534 15.5067L13.6667 16.0667V21.3334H9.66675V17.3334H5.66675V12H3.93341L5.70675 8.89338C5.94675 5.41338 8.80008 2.66671 12.3334 2.66671C16.0134 2.66671 19.0001 5.65338 19.0001 9.33338C19.0001 12.12 17.2801 14.5067 14.8534 15.5067Z" fill="#1DA4B1"/>
</svg>
