<svg width="89" height="67" viewBox="0 0 89 67" fill="none" xmlns="http://www.w3.org/2000/svg">
<path d="M80.3333 19C74.5333 19 71.2933 24.76 72.6133 29.04L58.4133 43.28C57.2133 42.92 55.4533 42.92 54.2533 43.28L44.0533 33.08C45.4133 28.8 42.1733 23 36.3333 23C30.5333 23 27.2533 28.76 28.6133 33.08L10.3733 51.28C6.09331 49.96 0.333313 53.2 0.333313 59C0.333313 63.4 3.93331 67 8.33331 67C14.1333 67 17.3733 61.24 16.0533 56.96L34.2533 38.72C35.4533 39.08 37.2133 39.08 38.4133 38.72L48.6133 48.92C47.2533 53.2 50.4933 59 56.3333 59C62.1333 59 65.4133 53.24 64.0533 48.92L78.2933 34.72C82.5733 36.04 88.3333 32.8 88.3333 27C88.3333 22.6 84.7333 19 80.3333 19Z" fill="white"/>
<path d="M58.2633 21.05L60.7833 15.45L66.3833 12.93C67.9433 12.21 67.9433 10.01 66.3833 9.29L60.7833 6.77L58.2633 1.17C57.5433 -0.39 55.3433 -0.39 54.6233 1.17L52.1033 6.77L46.5033 9.29C44.9433 10.01 44.9433 12.21 46.5033 12.93L52.1033 15.45L54.6233 21.05C55.3033 22.61 57.5433 22.61 58.2633 21.05Z" fill="white"/>
<path d="M12.3033 29.17L14.2633 24.93L18.5033 22.97C20.0633 22.25 20.0633 20.05 18.5033 19.33L14.2633 17.37L12.3033 13.17C11.6233 11.61 9.38331 11.61 8.70331 13.17L6.74331 17.41L2.50331 19.37C0.943313 20.09 0.943313 22.29 2.50331 23.01L6.74331 24.97L8.70331 29.17C9.38331 30.73 11.6233 30.73 12.3033 29.17Z" fill="white"/>
</svg>
