<svg width="27" height="28" viewBox="0 0 27 28" fill="none" xmlns="http://www.w3.org/2000/svg">
<path d="M17.9999 12.6665C19.1044 12.6665 19.9999 11.7711 19.9999 10.6665C19.9999 9.56193 19.1044 8.6665 17.9999 8.6665C16.8953 8.6665 15.9999 9.56193 15.9999 10.6665C15.9999 11.7711 16.8953 12.6665 17.9999 12.6665Z" fill="#1DA4B1"/>
<path d="M8.66654 12.6665C9.77111 12.6665 10.6665 11.7711 10.6665 10.6665C10.6665 9.56193 9.77111 8.6665 8.66654 8.6665C7.56197 8.6665 6.66654 9.56193 6.66654 10.6665C6.66654 11.7711 7.56197 12.6665 8.66654 12.6665Z" fill="#1DA4B1"/>
<path d="M13.3199 0.666504C5.95988 0.666504 -0.00012207 6.63984 -0.00012207 13.9998C-0.00012207 21.3598 5.95988 27.3332 13.3199 27.3332C20.6932 27.3332 26.6665 21.3598 26.6665 13.9998C26.6665 6.63984 20.6932 0.666504 13.3199 0.666504ZM13.3332 24.6665C7.43988 24.6665 2.66654 19.8932 2.66654 13.9998C2.66654 8.1065 7.43988 3.33317 13.3332 3.33317C19.2265 3.33317 23.9999 8.1065 23.9999 13.9998C23.9999 19.8932 19.2265 24.6665 13.3332 24.6665ZM19.2132 16.5198C18.7465 16.2265 18.1199 16.3732 17.8399 16.8398C16.8532 18.3998 15.1732 19.3332 13.3332 19.3332C11.4932 19.3332 9.81321 18.3998 8.82654 16.8265C8.53321 16.3598 7.91988 16.2132 7.45321 16.5065C6.98654 16.7998 6.83988 17.4132 7.13321 17.8798C8.49321 20.0532 10.7999 21.3332 13.3332 21.3332C15.8665 21.3332 18.1732 20.0398 19.5332 17.8932C19.8265 17.4265 19.6799 16.8132 19.2132 16.5198Z" fill="#1DA4B1"/>
</svg>
