<svg width="33" height="32" viewBox="0 0 33 32" fill="none" xmlns="http://www.w3.org/2000/svg">
<path fill-rule="evenodd" clip-rule="evenodd" d="M23.3333 6.66683H26C27.4666 6.66683 28.6666 7.86683 28.6666 9.3335V10.6668C28.6666 14.0668 26.1066 16.8402 22.8133 17.2535C21.9733 19.2535 20.1733 20.7602 18 21.2002V25.3335H22C22.7333 25.3335 23.3333 25.9335 23.3333 26.6668C23.3333 27.4002 22.7333 28.0002 22 28.0002H11.3333C10.6 28.0002 9.99996 27.4002 9.99996 26.6668C9.99996 25.9335 10.6 25.3335 11.3333 25.3335H15.3333V21.2002C13.16 20.7602 11.36 19.2535 10.52 17.2535C7.22663 16.8402 4.66663 14.0668 4.66663 10.6668V9.3335C4.66663 7.86683 5.86663 6.66683 7.33329 6.66683H9.99996V5.3335C9.99996 4.60017 10.6 4.00017 11.3333 4.00017H22C22.7333 4.00017 23.3333 4.60017 23.3333 5.3335V6.66683ZM7.33329 9.3335V10.6668C7.33329 12.4002 8.45329 13.8668 9.99996 14.4268V9.3335H7.33329ZM23.3333 14.4268C24.88 13.8668 26 12.4002 26 10.6668V9.3335H23.3333V14.4268ZM12.6666 14.6668C12.6666 16.8668 14.4666 18.6668 16.6666 18.6668C18.8666 18.6668 20.6666 16.8668 20.6666 14.6668V6.66683H12.6666V14.6668Z" fill="black"/>
</svg>
